<svg width="24" height="24" viewBox="0 0 24 24" fill="none" xmlns="http://www.w3.org/2000/svg">
<path d="M2.00024 9C2.79589 9 3.55896 9.31607 4.12156 9.87868C4.68417 10.4413 5.00024 11.2044 5.00024 12C5.00024 12.7956 4.68417 13.5587 4.12156 14.1213C3.55896 14.6839 2.79589 15 2.00024 15V17C2.00024 17.5304 2.21096 18.0391 2.58603 18.4142C2.9611 18.7893 3.46981 19 4.00024 19H20.0002C20.5307 19 21.0394 18.7893 21.4145 18.4142C21.7895 18.0391 22.0002 17.5304 22.0002 17V15C21.2046 15 20.4415 14.6839 19.8789 14.1213C19.3163 13.5587 19.0002 12.7956 19.0002 12C19.0002 11.2044 19.3163 10.4413 19.8789 9.87868C20.4415 9.31607 21.2046 9 22.0002 9V7C22.0002 6.46957 21.7895 5.96086 21.4145 5.58579C21.0394 5.21071 20.5307 5 20.0002 5H4.00024C3.46981 5 2.9611 5.21071 2.58603 5.58579C2.21096 5.96086 2.00024 6.46957 2.00024 7V9Z" stroke="#2D334B" stroke-width="0.75" stroke-linecap="round" stroke-linejoin="round"/>
<path d="M12.9998 5V7" stroke="#2D334B" stroke-width="0.75" stroke-linecap="round" stroke-linejoin="round"/>
<path d="M12.9998 17V19" stroke="#2D334B" stroke-width="0.75" stroke-linecap="round" stroke-linejoin="round"/>
<path d="M12.9998 11V13" stroke="#2D334B" stroke-width="0.75" stroke-linecap="round" stroke-linejoin="round"/>
</svg>
