<svg width="24" height="24" viewBox="0 0 24 24" fill="none" xmlns="http://www.w3.org/2000/svg">
<path d="M3 10H18.6C19.4401 10 19.8601 10 20.181 9.83651C20.4632 9.6927 20.6927 9.46323 20.8365 9.18099C21 8.86012 21 8.44008 21 7.6V6C21 5.46957 20.7893 4.96086 20.4142 4.58579C20.0391 4.21071 19.5304 4 19 4H5C4.46957 4 3.96086 4.21071 3.58579 4.58579C3.21071 4.96086 3 5.46957 3 6V20C3 20.5304 3.21071 21.0391 3.58579 21.4142C3.96086 21.7893 4.46957 22 5 22H12" stroke="#2D334B" stroke-width="0.75" stroke-linecap="round" stroke-linejoin="round"/>
<path d="M8.00024 2V6" stroke="#2D334B" stroke-width="0.75" stroke-linecap="round" stroke-linejoin="round"/>
<path d="M15.9998 2V6" stroke="#2D334B" stroke-width="0.75" stroke-linecap="round" stroke-linejoin="round"/>
<path d="M21.2899 14.7047C21.2899 14.7015 21.2886 14.6984 21.2864 14.6962C20.9462 14.359 20.5139 14.1299 20.0438 14.0377C19.5721 13.9451 19.0835 13.9945 18.6399 14.1797C18.3399 14.2997 18.0699 14.4797 17.8399 14.7097V14.7097C17.6513 14.8982 17.3463 14.9005 17.155 14.7146L17.1499 14.7097C16.8103 14.3689 16.3772 14.1367 15.9054 14.0423C15.4336 13.948 14.9445 13.9958 14.4999 14.1797C14.1999 14.2997 13.9399 14.4797 13.7099 14.7097C12.7599 15.6497 12.7099 17.2397 13.9099 18.4497L15.8147 20.3333C16.4053 20.9173 16.7006 21.2093 17.0405 21.319C17.3394 21.4156 17.6612 21.4158 17.9603 21.3197C18.3003 21.2104 18.596 20.9188 19.1874 20.3356L21.0999 18.4497C22.2984 17.2412 22.2401 15.6537 21.2935 14.7132C21.2912 14.711 21.2899 14.7079 21.2899 14.7047V14.7047Z" stroke="#2D334B" stroke-width="0.75" stroke-linecap="round" stroke-linejoin="round"/>
</svg>
