<svg width="25" height="25" viewBox="0 0 25 25" fill="none" xmlns="http://www.w3.org/2000/svg">
<path d="M11.8906 24.6738C12.0264 24.8776 12.2551 25 12.5 25C12.7449 25 12.9736 24.8776 13.1094 24.6738C14.8428 22.0739 17.3959 18.8629 19.175 15.5972C20.5975 12.9861 21.2891 10.7591 21.2891 8.78906C21.2891 3.94277 17.3463 0 12.5 0C7.65371 0 3.71094 3.94277 3.71094 8.78906C3.71094 10.7591 4.40249 12.9861 5.82505 15.5972C7.60283 18.8604 10.1608 22.0792 11.8906 24.6738ZM12.5 1.46484C16.5386 1.46484 19.8242 4.75049 19.8242 8.78906C19.8242 10.508 19.1911 12.5058 17.8886 14.8964C16.3551 17.7113 14.1667 20.5667 12.5 22.9672C10.8335 20.5671 8.64502 17.7115 7.11138 14.8964C5.80894 12.5058 5.17578 10.508 5.17578 8.78906C5.17578 4.75049 8.46143 1.46484 12.5 1.46484Z" fill="white"/>
<path d="M12.5 13.1836C14.9231 13.1836 16.8945 11.2122 16.8945 8.78906C16.8945 6.36592 14.9231 4.39453 12.5 4.39453C10.0769 4.39453 8.10547 6.36592 8.10547 8.78906C8.10547 11.2122 10.0769 13.1836 12.5 13.1836ZM12.5 5.85938C14.1154 5.85938 15.4297 7.17363 15.4297 8.78906C15.4297 10.4045 14.1154 11.7188 12.5 11.7188C10.8846 11.7188 9.57031 10.4045 9.57031 8.78906C9.57031 7.17363 10.8846 5.85938 12.5 5.85938Z" fill="white"/>
</svg>
