<svg width="24" height="24" viewBox="0 0 24 24" fill="none" xmlns="http://www.w3.org/2000/svg">
<g clip-path="url(#clip0_386_11693)">
<g clip-path="url(#clip1_386_11693)">
<path d="M23.2328 15.1144V15.0401L23.1617 15.0186C21.8543 14.6238 20.9197 13.4033 20.9197 11.9995C20.9197 10.5956 21.8543 9.37513 23.1617 8.9803L23.2328 8.95883V8.88457V5.3106C23.2328 5.17597 23.121 5.06411 22.9863 5.06411H8.27974H8.17974V5.16411V6.32026C8.17974 6.58862 7.96215 6.8062 7.6938 6.8062C7.42544 6.8062 7.20786 6.58862 7.20786 6.32026V5.16411V5.06411H7.10786H1.01367C0.879049 5.06411 0.767187 5.17597 0.767187 5.3106V8.88457V8.95883L0.838281 8.9803C2.14573 9.37509 3.08032 10.5956 3.08032 11.9995C3.08032 13.4033 2.14573 14.6238 0.838278 15.0186L0.767187 15.0401V15.1144V18.6883C0.767187 18.823 0.879049 18.9348 1.01367 18.9348H7.10786H7.20786V18.8348V17.6787C7.20786 17.4104 7.42544 17.1928 7.6938 17.1928C7.96215 17.1928 8.17974 17.4104 8.17974 17.6787V18.8348V18.9348H8.27974H22.9863C23.121 18.9348 23.2328 18.823 23.2328 18.6883V15.1144ZM24.2047 9.35566C24.2047 9.59936 24.0242 9.80536 23.7826 9.83739L0.204248 9.93652L0.217394 9.83739C0.217392 9.83739 0.217389 9.83739 0.217387 9.83739C-0.0241651 9.80536 -0.204687 9.59935 -0.204687 9.35566V5.31055C-0.204687 4.63882 0.341947 4.09219 1.01367 4.09219H22.9863C23.6581 4.09219 24.2047 4.63882 24.2047 5.31055V9.35566ZM8.17974 8.94502V10.6871C8.17974 10.9554 7.96215 11.173 7.6938 11.173C7.42544 11.173 7.20786 10.9554 7.20786 10.6871V8.94502C7.20786 8.67666 7.42544 8.45908 7.6938 8.45908C7.96216 8.45908 8.17974 8.67662 8.17974 8.94502ZM8.17974 13.3119V15.0539C8.17974 15.3223 7.96215 15.5398 7.6938 15.5398C7.42544 15.5398 7.20786 15.3223 7.20786 15.0539V13.3119C7.20786 13.0435 7.42544 12.8259 7.6938 12.8259C7.96216 12.8259 8.17974 13.0435 8.17974 13.3119ZM12.6202 7.98135C13.6124 7.98135 14.4198 8.78872 14.4198 9.78096C14.4198 10.7732 13.6124 11.5806 12.6202 11.5806C11.628 11.5806 10.8206 10.7732 10.8206 9.78096C10.8206 8.78872 11.628 7.98135 12.6202 7.98135ZM12.6202 8.95322C12.1637 8.95322 11.7925 9.32446 11.7925 9.78096C11.7925 10.2375 12.1637 10.6087 12.6202 10.6087C13.0767 10.6087 13.4479 10.2375 13.4479 9.78096C13.4479 9.32446 13.0767 8.95322 12.6202 8.95322ZM17.8219 8.95017L13.388 15.5043C13.2941 15.6431 13.1411 15.718 12.985 15.718C12.8913 15.718 12.7968 15.691 12.7132 15.6345C12.4909 15.4841 12.4326 15.182 12.583 14.9597L17.0169 8.40554C17.1673 8.18327 17.4694 8.12496 17.6917 8.27535C17.9139 8.42575 17.9723 8.72785 17.8219 8.95017ZM16.0058 14.218C16.0058 13.2257 16.8131 12.4184 17.8054 12.4184C18.7976 12.4184 19.605 13.2257 19.605 14.218C19.605 15.2102 18.7976 16.0176 17.8054 16.0176C16.8131 16.0176 16.0058 15.2102 16.0058 14.218ZM16.9776 14.218C16.9776 14.6745 17.3489 15.0457 17.8054 15.0457C18.2619 15.0457 18.6331 14.6745 18.6331 14.218C18.6331 13.7615 18.2619 13.3902 17.8054 13.3902C17.3489 13.3902 16.9776 13.7615 16.9776 14.218Z" fill="#2D334B" stroke="#E3DADB" stroke-width="0.2"/>
</g>
</g>
<defs>
<clipPath id="clip0_386_11693">
<rect width="24" height="24" fill="white"/>
</clipPath>
<clipPath id="clip1_386_11693">
<rect width="25" height="25" fill="white" transform="translate(-0.5 -0.5)"/>
</clipPath>
</defs>
</svg>
