<svg width="24" height="24" viewBox="0 0 24 24" fill="none" xmlns="http://www.w3.org/2000/svg">
<path d="M12.9998 4H15.9998C16.5302 4 17.0389 4.21071 17.414 4.58579C17.789 4.96086 17.9998 5.46957 17.9998 6V20" stroke="#2D334B" stroke-width="0.75" stroke-linecap="round" stroke-linejoin="round"/>
<path d="M2.00024 20H5.00024" stroke="#2D334B" stroke-width="0.75" stroke-linecap="round" stroke-linejoin="round"/>
<path d="M12.9998 20H21.9998" stroke="#2D334B" stroke-width="0.75" stroke-linecap="round" stroke-linejoin="round"/>
<path d="M9.99976 12V12.01" stroke="#2D334B" stroke-width="0.75" stroke-linecap="round" stroke-linejoin="round"/>
<path d="M13.0002 4.5622V20.7192C13.0002 20.8711 12.9656 21.021 12.8989 21.1575C12.8323 21.294 12.7355 21.4135 12.6158 21.507C12.4961 21.6005 12.3566 21.6655 12.208 21.6971C12.0594 21.7287 11.9056 21.726 11.7582 21.6892L5.00024 20.0002V5.5622C5.00031 5.11621 5.14945 4.68303 5.42395 4.33153C5.69845 3.98002 6.08257 3.73035 6.51524 3.6222L10.5152 2.6222C10.81 2.54852 11.1177 2.54297 11.4149 2.60595C11.7121 2.66894 11.9911 2.79881 12.2306 2.98571C12.4701 3.17261 12.6639 3.41163 12.7973 3.68461C12.9306 3.9576 13 4.25838 13.0002 4.5622Z" stroke="#2D334B" stroke-width="0.75" stroke-linecap="round" stroke-linejoin="round"/>
</svg>
