<svg width="50" height="50" viewBox="0 0 50 50" fill="none" xmlns="http://www.w3.org/2000/svg">
<circle cx="25" cy="25" r="25" fill="#4A5069" fill-opacity="0.25"/>
<path d="M20.2089 21.666C20.2089 22.1193 20.3433 22.5623 20.5951 22.9392C20.8469 23.3161 21.2048 23.6098 21.6236 23.7832C22.0423 23.9567 22.5031 24.0021 22.9477 23.9136C23.3922 23.8252 23.8005 23.607 24.121 23.2865C24.4415 22.966 24.6598 22.5576 24.7482 22.1131C24.8366 21.6686 24.7912 21.2078 24.6178 20.789C24.4443 20.3703 24.1506 20.0124 23.7738 19.7606C23.3969 19.5088 22.9538 19.3743 22.5006 19.3743C21.8929 19.3748 21.3103 19.6164 20.8806 20.0461C20.4509 20.4757 20.2093 21.0584 20.2089 21.666ZM23.5422 21.666C23.5422 21.872 23.4811 22.0734 23.3667 22.2447C23.2522 22.416 23.0895 22.5495 22.8992 22.6284C22.7089 22.7072 22.4994 22.7279 22.2974 22.6877C22.0953 22.6475 21.9097 22.5483 21.764 22.4026C21.6183 22.2569 21.5191 22.0713 21.4789 21.8692C21.4387 21.6672 21.4594 21.4577 21.5382 21.2674C21.617 21.077 21.7505 20.9144 21.9219 20.7999C22.0932 20.6854 22.2945 20.6243 22.5006 20.6243C22.7767 20.6248 23.0414 20.7347 23.2367 20.9299C23.4319 21.1252 23.5418 21.3899 23.5422 21.666ZM33.3339 22.7077C33.1681 22.7077 33.0092 22.7735 32.892 22.8907C32.7748 23.008 32.7089 23.1669 32.7089 23.3327V25.2218L32.3831 24.9427C31.9379 24.5738 31.3779 24.372 30.7997 24.372C30.2216 24.372 29.6616 24.5738 29.2164 24.9427L25.7506 27.916C25.5321 28.09 25.2611 28.1847 24.9818 28.1847C24.7026 28.1847 24.4315 28.09 24.2131 27.916L23.9364 27.6785C23.5259 27.3387 23.0171 27.1397 22.485 27.1108C21.9529 27.0818 21.4255 27.2244 20.9806 27.5177L17.5414 29.826C17.361 29.064 17.2773 28.2823 17.2922 27.4993V22.4993C17.2922 18.6543 18.6556 17.291 22.5006 17.291H25.8339C25.9997 17.291 26.1586 17.2252 26.2758 17.108C26.3931 16.9907 26.4589 16.8318 26.4589 16.666C26.4589 16.5003 26.3931 16.3413 26.2758 16.2241C26.1586 16.1069 25.9997 16.041 25.8339 16.041H22.5006C17.9739 16.041 16.0422 17.9718 16.0422 22.4993V27.4993C16.0422 32.0268 17.9739 33.9577 22.5006 33.9577H27.5006C32.0272 33.9577 33.9589 32.0268 33.9589 27.4993V23.3327C33.9589 23.1669 33.8931 23.008 33.7758 22.8907C33.6586 22.7735 33.4997 22.7077 33.3339 22.7077ZM32.7089 27.4993C32.7089 31.3443 31.3456 32.7077 27.5006 32.7077H22.5006C20.2031 32.7077 18.7972 32.2152 18.0331 31.0035L21.6764 28.5585C21.8949 28.4187 22.1514 28.3504 22.4105 28.3629C22.6695 28.3755 22.9183 28.4683 23.1222 28.6285L23.3989 28.8668C23.8437 29.2365 24.4039 29.4388 24.9822 29.4388C25.5606 29.4388 26.1207 29.2365 26.5656 28.8668L30.0339 25.891C30.2526 25.7178 30.5233 25.6236 30.8022 25.6236C31.0812 25.6236 31.3519 25.7178 31.5706 25.891L32.7106 26.8693L32.7089 27.4993ZM27.5006 19.166C27.5006 19.0003 27.5664 18.8413 27.6836 18.7241C27.8008 18.6069 27.9598 18.541 28.1256 18.541H29.7922V16.8743C29.7922 16.7086 29.8581 16.5496 29.9753 16.4324C30.0925 16.3152 30.2515 16.2493 30.4172 16.2493C30.583 16.2493 30.742 16.3152 30.8592 16.4324C30.9764 16.5496 31.0422 16.7086 31.0422 16.8743V18.541H32.7089C32.8747 18.541 33.0336 18.6069 33.1508 18.7241C33.2681 18.8413 33.3339 19.0003 33.3339 19.166C33.3339 19.3318 33.2681 19.4907 33.1508 19.608C33.0336 19.7252 32.8747 19.791 32.7089 19.791H31.0422V21.4577C31.0422 21.6234 30.9764 21.7824 30.8592 21.8996C30.742 22.0168 30.583 22.0827 30.4172 22.0827C30.2515 22.0827 30.0925 22.0168 29.9753 21.8996C29.8581 21.7824 29.7922 21.6234 29.7922 21.4577V19.791H28.1256C27.9598 19.791 27.8008 19.7252 27.6836 19.608C27.5664 19.4907 27.5006 19.3318 27.5006 19.166Z" fill="#2D334B"/>
</svg>
