<svg width="15" height="15" viewBox="0 0 15 15" fill="none" xmlns="http://www.w3.org/2000/svg">
<path d="M9.57234 13.5937H2.46703C2.18577 13.5935 1.9161 13.4816 1.71722 13.2828C1.51834 13.0839 1.4065 12.8142 1.40625 12.5329V11.9409C1.40607 11.1336 1.61777 10.3403 2.02021 9.64044C2.42264 8.94056 3.00171 8.35854 3.69955 7.95257C4.39739 7.54659 5.18955 7.33087 5.99688 7.32696C6.8042 7.32305 7.59842 7.53109 8.30016 7.93028C8.35368 7.96072 8.40068 8.00141 8.43848 8.05001C8.47629 8.09862 8.50414 8.15419 8.52047 8.21357C8.53679 8.27294 8.54126 8.33494 8.53362 8.39604C8.52598 8.45714 8.50638 8.51614 8.47594 8.56966C8.4455 8.62318 8.40481 8.67019 8.35621 8.70799C8.3076 8.74579 8.25203 8.77365 8.19266 8.78997C8.13328 8.80629 8.07128 8.81076 8.01018 8.80312C7.94908 8.79548 7.89009 8.77588 7.83656 8.74544C7.27747 8.42723 6.64464 8.26136 6.00135 8.26441C5.35805 8.26746 4.72682 8.43931 4.17077 8.7628C3.61471 9.08629 3.15331 9.55007 2.8327 10.1078C2.51208 10.6655 2.34348 11.2976 2.34375 11.9409V12.5329C2.34423 12.5655 2.35738 12.5966 2.38039 12.6196C2.40341 12.6426 2.43449 12.6557 2.46703 12.6562H9.57234C9.60493 12.6557 9.63606 12.6426 9.65915 12.6196C9.68224 12.5966 9.69549 12.5655 9.69609 12.5329V11.9409C9.69669 11.8221 9.69059 11.7033 9.67781 11.5851C9.66995 11.5235 9.6744 11.461 9.69091 11.4011C9.70743 11.3413 9.73567 11.2853 9.774 11.2364C9.81233 11.1876 9.85999 11.1468 9.9142 11.1165C9.96842 11.0862 10.0281 11.067 10.0898 11.06C10.1515 11.053 10.214 11.0583 10.2736 11.0756C10.3333 11.093 10.3889 11.122 10.4372 11.161C10.4855 11.2 10.5256 11.2482 10.5551 11.3028C10.5847 11.3574 10.603 11.4174 10.6092 11.4792C10.6262 11.6325 10.6343 11.7867 10.6336 11.9409V12.5329C10.6332 12.8142 10.5213 13.0839 10.3223 13.2828C10.1234 13.4816 9.85365 13.5935 9.57234 13.5937Z" fill="white"/>
<path d="M6.01971 8.26451C5.34142 8.26451 4.67837 8.06337 4.1144 7.68653C3.55043 7.30968 3.11088 6.77406 2.85133 6.1474C2.59179 5.52073 2.5239 4.83117 2.65626 4.16593C2.78862 3.50068 3.11529 2.88963 3.59494 2.41004C4.07459 1.93045 4.68569 1.60387 5.35096 1.4716C6.01622 1.33933 6.70577 1.40731 7.3324 1.66694C7.95903 1.92658 8.49459 2.3662 8.87136 2.93022C9.24813 3.49424 9.44918 4.15732 9.44908 4.83561C9.44797 5.74475 9.08629 6.61633 8.44338 7.25914C7.80048 7.90196 6.92885 8.26352 6.01971 8.26451ZM6.01971 2.34373C5.52686 2.34373 5.04508 2.48988 4.6353 2.76369C4.22551 3.0375 3.90612 3.42668 3.71752 3.88201C3.52891 4.33734 3.47956 4.83837 3.57571 5.32175C3.67186 5.80512 3.90919 6.24913 4.25769 6.59763C4.60618 6.94612 5.05019 7.18345 5.53357 7.2796C6.01694 7.37575 6.51798 7.3264 6.97331 7.1378C7.42864 6.9492 7.81782 6.62981 8.09163 6.22002C8.36544 5.81023 8.51158 5.32845 8.51158 4.83561C8.51084 4.17495 8.24806 3.54156 7.78091 3.07441C7.31375 2.60725 6.68037 2.34448 6.01971 2.34373Z" fill="white"/>
<path d="M11.0526 10.6331C10.9283 10.6331 10.8091 10.5837 10.7212 10.4958C10.6332 10.4079 10.5839 10.2887 10.5839 10.1644V6.07217C10.5837 5.93286 10.6111 5.79489 10.6644 5.66616C10.7176 5.53743 10.7958 5.42047 10.8943 5.32198C10.9928 5.22349 11.1098 5.1454 11.2386 5.09219C11.3673 5.03897 11.5053 5.01168 11.6446 5.01186C11.8153 5.0088 11.9854 4.99313 12.1537 4.96499C12.4185 4.91663 12.6752 4.83093 12.9159 4.71046C13.027 4.65614 13.1551 4.64795 13.2723 4.68767C13.3894 4.72739 13.4861 4.81181 13.5413 4.92252C13.5964 5.03324 13.6056 5.16127 13.5668 5.27871C13.528 5.39616 13.4443 5.4935 13.334 5.54952C12.8102 5.81196 12.2324 5.9484 11.6465 5.94796C11.6302 5.94775 11.6139 5.95084 11.5988 5.95704C11.5836 5.96324 11.5699 5.97243 11.5584 5.98405C11.5469 5.99531 11.5377 6.00881 11.5316 6.02372C11.5255 6.03864 11.5225 6.05465 11.5228 6.07077V10.163C11.523 10.2247 11.5109 10.286 11.4874 10.3431C11.4638 10.4002 11.4292 10.4521 11.3855 10.4958C11.3418 10.5395 11.2899 10.5741 11.2328 10.5977C11.1756 10.6213 11.1144 10.6333 11.0526 10.6331Z" fill="white"/>
<path d="M9.57233 12.113C9.18681 12.1131 8.80991 11.9988 8.48932 11.7847C8.16872 11.5706 7.91884 11.2662 7.77126 10.91C7.62368 10.5538 7.58504 10.1619 7.66023 9.78378C7.73542 9.40565 7.92106 9.05832 8.19367 8.78571C8.46628 8.5131 8.81361 8.32746 9.19174 8.25227C9.56986 8.17708 9.96179 8.21572 10.318 8.3633C10.6741 8.51088 10.9785 8.76076 11.1926 9.08136C11.4068 9.40195 11.521 9.77885 11.5209 10.1644C11.5203 10.681 11.3148 11.1763 10.9495 11.5416C10.5842 11.9069 10.0889 12.1123 9.57233 12.113ZM9.57233 9.15281C9.37225 9.15272 9.17663 9.21197 9.01021 9.32306C8.8438 9.43416 8.71407 9.59211 8.63744 9.77694C8.5608 9.96177 8.5407 10.1652 8.57968 10.3614C8.61866 10.5577 8.71497 10.738 8.85642 10.8795C8.99787 11.021 9.17811 11.1174 9.37435 11.1565C9.57058 11.1955 9.774 11.1755 9.95887 11.099C10.1437 11.0224 10.3017 10.8928 10.4129 10.7264C10.5241 10.5601 10.5834 10.3645 10.5834 10.1644C10.5832 9.89625 10.4766 9.63917 10.287 9.44953C10.0975 9.25989 9.84046 9.15319 9.57233 9.15281Z" fill="white"/>
</svg>
