<svg width="35" height="35" viewBox="0 0 35 35" fill="none" xmlns="http://www.w3.org/2000/svg">
<g clip-path="url(#clip0_388_15681)">
<path d="M30.9897 34.9997H4.01069C1.79838 34.9997 0.000488281 33.2015 0.000488281 30.9895V9.84369C0.000488281 7.63138 1.79838 5.8335 4.01069 5.8335H9.11489C9.71864 5.8335 10.2086 6.32349 10.2086 6.92724C10.2086 7.53098 9.71864 8.02097 9.11489 8.02097H4.01069C3.00587 8.02097 2.18797 8.83888 2.18797 9.84369V30.9895C2.18797 31.994 3.00587 32.8122 4.01069 32.8122H30.9897C31.9945 32.8122 32.8127 31.994 32.8127 30.9895V18.5936C32.8127 17.9899 33.3027 17.4999 33.9064 17.4999C34.5101 17.4999 35.0001 17.9899 35.0001 18.5936V30.9895C35.0001 33.2015 33.202 34.9997 30.9897 34.9997Z" fill="#2D334B"/>
<path d="M9.8425 23.3146C9.7624 23.3146 9.68202 23.3058 9.60191 23.2852C9.10765 23.1701 8.75037 22.7472 8.75037 22.2398V20.0523C8.75037 12.2124 15.1291 5.83372 22.969 5.83372H23.3335V1.09401C23.3335 0.647807 23.6048 0.246734 24.0189 0.0790416C24.4315 -0.0870487 24.9054 0.0133531 25.2147 0.335654L34.6938 10.1793C35.1021 10.6023 35.1021 11.273 34.6938 11.696L25.2147 21.5397C24.9054 21.862 24.4285 21.9613 24.0189 21.7963C23.6048 21.6286 23.3335 21.2275 23.3335 20.7813V16.0419H21.601C17.0132 16.0419 12.8903 18.5909 10.8401 22.6932C10.6519 23.0724 10.2567 23.3146 9.8425 23.3146ZM22.969 8.0212C16.8439 8.0212 11.772 12.6221 11.0297 18.55C13.6807 15.5927 17.4827 13.8544 21.601 13.8544H24.4272C25.031 13.8544 25.5209 14.3444 25.5209 14.9481V18.0689L32.3881 10.9377L25.5209 3.80646V6.92746C25.5209 7.53121 25.031 8.0212 24.4272 8.0212H22.969Z" fill="#2D334B"/>
</g>
<defs>
<clipPath id="clip0_388_15681">
<rect width="35" height="35" fill="white"/>
</clipPath>
</defs>
</svg>
