<svg width="30" height="30" viewBox="0 0 30 30" fill="none" xmlns="http://www.w3.org/2000/svg">
<path d="M19.1447 27.1874H4.93406C4.37154 27.1869 3.8322 26.9633 3.43444 26.5655C3.03668 26.1677 2.813 25.6284 2.8125 25.0659V23.8818C2.81214 22.2671 3.23555 20.6807 4.04042 19.2809C4.84528 17.8811 6.00342 16.7171 7.3991 15.9051C8.79477 15.0932 10.3791 14.6617 11.9938 14.6539C13.6084 14.6461 15.1968 15.0622 16.6003 15.8606C16.7074 15.9214 16.8014 16.0028 16.877 16.1C16.9526 16.1972 17.0083 16.3084 17.0409 16.4271C17.0736 16.5459 17.0825 16.6699 17.0672 16.7921C17.052 16.9143 17.0128 17.0323 16.9519 17.1393C16.891 17.2464 16.8096 17.3404 16.7124 17.416C16.6152 17.4916 16.5041 17.5473 16.3853 17.5799C16.2666 17.6126 16.1426 17.6215 16.0204 17.6062C15.8982 17.591 15.7802 17.5518 15.6731 17.4909C14.5549 16.8545 13.2893 16.5227 12.0027 16.5288C10.7161 16.5349 9.45364 16.8786 8.34153 17.5256C7.22942 18.1726 6.30663 19.1001 5.6654 20.2156C5.02416 21.331 4.68696 22.5952 4.6875 23.8818V25.0659C4.68847 25.131 4.71476 25.1931 4.76079 25.2392C4.80682 25.2852 4.86897 25.3115 4.93406 25.3124H19.1447C19.2099 25.3115 19.2721 25.2852 19.3183 25.2392C19.3645 25.1932 19.391 25.1311 19.3922 25.0659V23.8818C19.3934 23.6441 19.3812 23.4066 19.3556 23.1703C19.3399 23.0471 19.3488 22.922 19.3818 22.8022C19.4149 22.6825 19.4713 22.5705 19.548 22.4728C19.6247 22.3751 19.72 22.2936 19.8284 22.233C19.9368 22.1725 20.0562 22.1341 20.1796 22.12C20.303 22.106 20.428 22.1166 20.5473 22.1513C20.6665 22.1859 20.7777 22.244 20.8743 22.322C20.971 22.4 21.0512 22.4964 21.1103 22.6056C21.1693 22.7149 21.2061 22.8348 21.2184 22.9584C21.2523 23.265 21.2686 23.5733 21.2672 23.8818V25.0659C21.2664 25.6285 21.0426 26.1678 20.6446 26.5656C20.2467 26.9633 19.7073 27.1869 19.1447 27.1874Z" fill="#EF5660"/>
<path d="M12.0394 16.529C10.6828 16.529 9.35674 16.1267 8.2288 15.3731C7.10087 14.6194 6.22176 13.5481 5.70267 12.2948C5.18357 11.0415 5.0478 9.66235 5.31252 8.33186C5.57725 7.00136 6.23057 5.77925 7.18988 4.82008C8.14919 3.8609 9.37139 3.20774 10.7019 2.9432C12.0324 2.67866 13.4115 2.81462 14.6648 3.33389C15.9181 3.85315 16.9892 4.7324 17.7427 5.86044C18.4963 6.98848 18.8984 8.31464 18.8982 9.67121C18.8959 11.4895 18.1726 13.2327 16.8868 14.5183C15.601 15.8039 13.8577 16.527 12.0394 16.529ZM12.0394 4.68746C11.0537 4.68746 10.0902 4.97976 9.27059 5.52738C8.45102 6.075 7.81224 6.85335 7.43503 7.76402C7.05782 8.67468 6.95913 9.67674 7.15143 10.6435C7.34373 11.6102 7.81838 12.4983 8.51537 13.1953C9.21236 13.8922 10.1004 14.3669 11.0671 14.5592C12.0339 14.7515 13.036 14.6528 13.9466 14.2756C14.8573 13.8984 15.6356 13.2596 16.1833 12.44C16.7309 11.6205 17.0232 10.6569 17.0232 9.67121C17.0217 8.3499 16.4961 7.08313 15.5618 6.14882C14.6275 5.2145 13.3607 4.68895 12.0394 4.68746Z" fill="#EF5660"/>
<path d="M22.1053 21.2662C21.8567 21.2662 21.6182 21.1675 21.4424 20.9916C21.2666 20.8158 21.1678 20.5774 21.1678 20.3287V12.1443C21.1676 11.8657 21.2223 11.5898 21.3289 11.3323C21.4354 11.0749 21.5917 10.8409 21.7887 10.644C21.9858 10.447 22.2198 10.2908 22.4773 10.1844C22.7348 10.0779 23.0108 10.0234 23.2894 10.0237C23.6306 10.0176 23.9709 9.98626 24.3075 9.92997C24.8372 9.83326 25.3504 9.66187 25.8319 9.42091C26.0542 9.31227 26.3104 9.29589 26.5447 9.37534C26.7789 9.45479 26.9723 9.62362 27.0827 9.84505C27.193 10.0665 27.2114 10.3225 27.1337 10.5574C27.0561 10.7923 26.8887 10.987 26.6682 11.099C25.6206 11.6239 24.4649 11.8968 23.2932 11.8959C23.2604 11.8955 23.228 11.9017 23.1977 11.9141C23.1674 11.9265 23.1399 11.9449 23.1169 11.9681C23.0938 11.9906 23.0756 12.0176 23.0633 12.0474C23.0511 12.0773 23.0451 12.1093 23.0457 12.1415V20.3259C23.046 20.4495 23.022 20.5719 22.9748 20.6862C22.9277 20.8004 22.8585 20.9043 22.7711 20.9916C22.6837 21.079 22.5799 21.1483 22.4656 21.1954C22.3514 21.2425 22.2289 21.2666 22.1053 21.2662Z" fill="#EF5660"/>
<path d="M19.1447 24.2259C18.3736 24.2261 17.6198 23.9976 16.9786 23.5694C16.3374 23.1411 15.8377 22.5323 15.5425 21.82C15.2474 21.1077 15.1701 20.3238 15.3205 19.5676C15.4708 18.8113 15.8421 18.1166 16.3873 17.5714C16.9326 17.0262 17.6272 16.6549 18.3835 16.5045C19.1397 16.3542 19.9236 16.4314 20.6359 16.7266C21.3482 17.0218 21.957 17.5215 22.3853 18.1627C22.8136 18.8039 23.042 19.5577 23.0419 20.3288C23.0406 21.362 22.6296 22.3525 21.899 23.0831C21.1684 23.8137 20.1779 24.2247 19.1447 24.2259ZM19.1447 18.3056C18.7445 18.3054 18.3533 18.4239 18.0204 18.6461C17.6876 18.8683 17.4281 19.1842 17.2749 19.5539C17.1216 19.9235 17.0814 20.3304 17.1594 20.7229C17.2373 21.1154 17.4299 21.476 17.7128 21.759C17.9957 22.042 18.3562 22.2348 18.7487 22.3129C19.1412 22.3911 19.548 22.3511 19.9177 22.198C20.2875 22.0449 20.6035 21.7856 20.8258 21.4528C21.0482 21.1201 21.1669 20.7289 21.1669 20.3288C21.1664 19.7925 20.9532 19.2783 20.5741 18.8991C20.195 18.5198 19.6809 18.3064 19.1447 18.3056Z" fill="#EF5660"/>
</svg>
