<svg width="30" height="30" viewBox="0 0 30 30" fill="none" xmlns="http://www.w3.org/2000/svg">
<g clip-path="url(#clip0_370_5327)">
<path d="M17.8125 5.625H6.5625C6.045 5.625 5.625 6.045 5.625 6.5625C5.625 7.08 6.045 7.5 6.5625 7.5H17.8125C18.33 7.5 18.75 7.08 18.75 6.5625C18.75 6.045 18.33 5.625 17.8125 5.625Z" fill="#EF5660"/>
<path d="M14.0625 9.375H6.5625C6.045 9.375 5.625 9.795 5.625 10.3125C5.625 10.83 6.045 11.25 6.5625 11.25H14.0625C14.58 11.25 15 10.83 15 10.3125C15 9.795 14.58 9.375 14.0625 9.375Z" fill="#EF5660"/>
<path d="M20.625 0H3.75C1.68187 0 0 1.68187 0 3.75V22.5C0 22.8638 0.21 23.1956 0.54 23.3494C0.665625 23.4075 0.8025 23.4375 0.9375 23.4375C1.15313 23.4375 1.36687 23.3625 1.5375 23.22L6.90188 18.75H20.625C22.6931 18.75 24.375 17.0681 24.375 15V3.75C24.375 1.68187 22.6931 0 20.625 0ZM22.5 15C22.5 16.0331 21.66 16.875 20.625 16.875H6.5625C6.34312 16.875 6.13125 16.9519 5.9625 17.0925L1.875 20.4994V3.75C1.875 2.71688 2.715 1.875 3.75 1.875H20.625C21.66 1.875 22.5 2.71688 22.5 3.75V15Z" fill="#EF5660"/>
<path d="M26.25 7.5C25.7325 7.5 25.3125 7.92 25.3125 8.4375C25.3125 8.955 25.7325 9.375 26.25 9.375C27.285 9.375 28.125 10.2169 28.125 11.25V27.1106L24.96 24.5794C24.795 24.4481 24.5869 24.375 24.375 24.375H11.25C10.215 24.375 9.375 23.5331 9.375 22.5V21.5625C9.375 21.045 8.955 20.625 8.4375 20.625C7.92 20.625 7.5 21.045 7.5 21.5625V22.5C7.5 24.5681 9.18187 26.25 11.25 26.25H24.045L28.4756 29.7956C28.6462 29.9306 28.8544 30 29.0625 30C29.1994 30 29.3381 29.97 29.4694 29.9081C29.7938 29.7506 30 29.4225 30 29.0625V11.25C30 9.18187 28.3181 7.5 26.25 7.5Z" fill="#EF5660"/>
</g>
<defs>
<clipPath id="clip0_370_5327">
<rect width="30" height="30" fill="white"/>
</clipPath>
</defs>
</svg>
