<svg width="49" height="30" viewBox="0 0 49 30" fill="none" xmlns="http://www.w3.org/2000/svg">
<path d="M44.0291 0H4.51938C2.02425 0 0 1.64073 0 3.66021V26.6262C0 28.4855 1.86404 30 4.15534 30H44.3884C46.6797 30 48.5437 28.4854 48.5437 26.6262V3.66021C48.5436 1.64073 46.5194 0 44.0291 0ZM47.5729 26.6262C47.5729 27.9515 46.1457 29.0291 44.3884 29.0291H4.15534C2.39803 29.0291 0.970881 27.9514 0.970881 26.6262V3.66021C0.970881 2.17959 2.56311 0.97088 4.51938 0.97088H44.0291C45.9805 0.97088 47.5729 2.17959 47.5729 3.66021V26.6262Z" fill="#EF5660"/>
<path d="M40.5729 5.73315H7.97088C6.05337 5.73315 4.5 7.08269 4.5 8.74279V23.3156C4.5 24.9758 6.05337 26.3254 7.97088 26.3254H40.5728C42.4904 26.3254 44.0437 24.9758 44.0437 23.3156V8.74279C44.0437 7.08259 42.4904 5.73315 40.5729 5.73315ZM38.6069 20.5875C38.6069 21.6846 37.4419 22.5777 36.0098 22.5777H11.4758C10.0389 22.5777 8.87378 21.6846 8.87378 20.5875V11.9419C8.87378 10.8448 10.0389 9.9516 11.4758 9.9516H36.0097C37.4418 9.9516 38.6068 10.8448 38.6068 11.9419V20.5875H38.6069Z" fill="#EF5660"/>
<path d="M31.3058 11.1892H16.1796C13.1796 11.1892 10.6845 13.4999 10.7718 16.4028C10.6602 18.6018 12.8883 21.3397 16.1796 21.3397H31.3058C33.4029 21.3397 35.2233 20.2135 36.1214 18.5679C37.8495 15.8445 35.8107 11.1892 31.3058 11.1892ZM28.3398 19.1698C28.8058 19.6892 29.3835 20.097 30.0243 20.3688H17.466C22.102 18.3785 20.2913 12.4901 15.8496 12.1746C16.1069 12.1552 31.2913 12.1504 31.636 12.1746C28.2476 12.4028 25.8156 16.3445 28.3398 19.1698Z" fill="#EF5660"/>
<path d="M34.1299 3.94729C34.4514 3.94729 34.451 3.4619 34.1299 3.4619C5.6218 3.5746 6.67119 3.22855 6.67119 3.7046C6.67119 4.18323 5.63849 3.83459 34.1299 3.94729Z" fill="#EF5660"/>
<path d="M39.6351 3.94735C39.9565 3.94735 39.9561 3.46196 39.6351 3.46196C37.9776 3.54166 37.3762 3.27621 37.3762 3.70465C37.3762 4.13369 37.982 3.86784 39.6351 3.94735Z" fill="#EF5660"/>
</svg>
