<svg width="15" height="15" viewBox="0 0 15 15" fill="none" xmlns="http://www.w3.org/2000/svg">
<path d="M13.1578 10.6219L12.3562 9.46875C12.2468 9.312 12.1879 9.12554 12.1874 8.93437V5.625C12.1874 4.3818 11.6936 3.18951 10.8145 2.31044C9.93542 1.43136 8.74314 0.9375 7.49994 0.9375C6.25674 0.9375 5.06445 1.43136 4.18537 2.31044C3.3063 3.18951 2.81244 4.3818 2.81244 5.625V8.93437C2.81199 9.12554 2.7531 9.312 2.64369 9.46875L1.84213 10.6219C1.72076 10.7564 1.64095 10.9231 1.61235 11.102C1.58374 11.2809 1.60758 11.4642 1.68097 11.6298C1.75435 11.7954 1.87415 11.9362 2.02587 12.0352C2.17759 12.1342 2.35473 12.1871 2.53588 12.1875H5.20306C5.31065 12.7173 5.59809 13.1937 6.01669 13.5358C6.43529 13.8779 6.9593 14.0648 7.49994 14.0648C8.04057 14.0648 8.56458 13.8779 8.98318 13.5358C9.40178 13.1937 9.68923 12.7173 9.79681 12.1875H12.464C12.6451 12.1871 12.8223 12.1342 12.974 12.0352C13.1257 11.9362 13.2455 11.7954 13.3189 11.6298C13.3923 11.4642 13.4161 11.2809 13.3875 11.102C13.3589 10.9231 13.2791 10.7564 13.1578 10.6219ZM7.49994 13.125C7.20981 13.1242 6.92703 13.0337 6.69038 12.8658C6.45372 12.698 6.27477 12.461 6.17806 12.1875H8.82181C8.7251 12.461 8.54615 12.698 8.3095 12.8658C8.07284 13.0337 7.79007 13.1242 7.49994 13.125ZM2.53588 11.25C2.55706 11.2303 2.57593 11.2083 2.59213 11.1844L3.41244 10.0031C3.63127 9.68962 3.74903 9.3167 3.74994 8.93437V5.625C3.74994 4.63044 4.14503 3.67661 4.84829 2.97335C5.55155 2.27009 6.50538 1.875 7.49994 1.875C8.4945 1.875 9.44833 2.27009 10.1516 2.97335C10.8548 3.67661 11.2499 4.63044 11.2499 5.625V8.93437C11.2508 9.3167 11.3686 9.68962 11.5874 10.0031L12.4077 11.1844C12.4239 11.2083 12.4428 11.2303 12.464 11.25H2.53588Z" fill="white"/>
</svg>
