<svg width="30" height="28" viewBox="0 0 30 28" fill="none" xmlns="http://www.w3.org/2000/svg">
<path d="M6.53259 23.161C6.53259 22.2742 6.00702 21.5083 5.25163 21.1577V12.9131C5.25163 12.6372 5.02798 12.4136 4.75212 12.4136C4.47626 12.4136 4.25262 12.6372 4.25262 12.9131V20.9535H3.54362V11.7046H4.32508C5.07151 11.7046 5.67856 11.0975 5.67856 10.3511C5.67856 9.96278 5.51393 9.61247 5.25157 9.36569V8.21613C5.25157 7.64586 4.89713 7.15763 4.3976 6.95853V6.05771C4.89714 5.85866 5.25157 5.37042 5.25157 4.80011C5.25157 4.05369 4.64446 3.44663 3.89809 3.44663C3.15173 3.44663 2.54461 4.05374 2.54461 4.80011C2.54461 5.37038 2.89905 5.85861 3.39859 6.05771V6.95853C2.89905 7.15758 2.54461 7.64582 2.54461 8.21613V9.36569C2.28225 9.61247 2.11762 9.96278 2.11762 10.3511C2.11762 10.7395 2.28225 11.0898 2.54461 11.3366V21.1577C1.78922 21.5083 1.26365 22.2742 1.26365 23.161C1.26365 23.4369 1.48729 23.6605 1.76315 23.6605H6.03309C6.30895 23.6605 6.53259 23.4369 6.53259 23.161ZM4.32514 10.7056H3.4711C3.27572 10.7056 3.11663 10.5465 3.11663 10.3511C3.11663 10.1558 3.27577 9.99665 3.4711 9.99665H4.32508C4.52047 9.99665 4.67956 10.1558 4.67956 10.3511C4.67956 10.5465 4.52046 10.7056 4.32514 10.7056ZM3.89815 4.44574C4.09353 4.44574 4.25262 4.60487 4.25262 4.80022C4.25262 4.99556 4.09349 5.15469 3.89815 5.15469C3.70281 5.15469 3.54367 4.99556 3.54367 4.80022C3.54367 4.60487 3.70276 4.44574 3.89815 4.44574ZM3.54362 8.21618C3.54362 8.02079 3.70275 7.86171 3.89809 7.86171C4.09343 7.86171 4.25257 8.02084 4.25257 8.21618V8.99764H3.54362V8.21618ZM5.42546 22.6615H2.37072C2.56121 22.2435 2.98301 21.9525 3.4711 21.9525H4.32508C4.81316 21.9525 5.23497 22.2436 5.42546 22.6615Z" fill="#EF5660" stroke="#EF5660" stroke-width="0.2"/>
<path d="M28.7364 23.161C28.7364 22.2742 28.2108 21.5083 27.4554 21.1577V11.3366C27.7178 11.0898 27.8824 10.7395 27.8824 10.3511C27.8824 9.96278 27.7178 9.61247 27.4554 9.36569V8.21613C27.4554 7.64586 27.101 7.15763 26.6015 6.95853V6.05771C27.101 5.85866 27.4554 5.37042 27.4554 4.80011C27.4554 4.05369 26.8483 3.44663 26.102 3.44663C25.3556 3.44663 24.7485 4.05374 24.7485 4.80011C24.7485 5.37038 25.1029 5.85861 25.6024 6.05771V6.95853C25.1029 7.15758 24.7485 7.64582 24.7485 8.21613V9.36569C24.4861 9.61247 24.3215 9.96278 24.3215 10.3511C24.3215 10.7395 24.4861 11.0898 24.7485 11.3366V21.1577C23.9931 21.5084 23.4675 22.2742 23.4675 23.161C23.4675 23.4369 23.6911 23.6605 23.967 23.6605H28.2369C28.5128 23.6605 28.7364 23.4369 28.7364 23.161ZM25.3204 10.3511C25.3204 10.1557 25.4796 9.99665 25.6749 9.99665H26.5289C26.7243 9.99665 26.8834 10.1558 26.8834 10.3511C26.8834 10.5465 26.7242 10.7056 26.5289 10.7056H25.6749C25.4796 10.7056 25.3204 10.5465 25.3204 10.3511ZM26.1019 4.44574C26.2973 4.44574 26.4564 4.60487 26.4564 4.80022C26.4564 4.99556 26.2972 5.15469 26.1019 5.15469C25.9066 5.15469 25.7474 4.99556 25.7474 4.80022C25.7474 4.60488 25.9066 4.44574 26.1019 4.44574ZM25.7474 8.21618C25.7474 8.02079 25.9066 7.86171 26.1019 7.86171C26.2972 7.86171 26.4564 8.02084 26.4564 8.21618V8.99764H25.7474V8.21618ZM25.7474 20.9535V11.7046H26.4564V20.9535H25.7474ZM27.6293 22.6615H24.5745C24.765 22.2435 25.1868 21.9525 25.6749 21.9525H26.5289C27.017 21.9525 27.4388 22.2436 27.6293 22.6615Z" fill="#EF5660" stroke="#EF5660" stroke-width="0.2"/>
<path d="M20.1837 11.947L20.1837 11.947L19.5846 11.5726C19.3158 11.6347 19.1482 11.9028 19.2102 12.1716L19.2102 12.1716L21.631 22.6617H8.36897L10.7898 12.1716L10.7898 12.1716C10.8518 11.9028 10.6843 11.6346 10.4154 11.5726L10.4154 11.5726C10.1467 11.5106 9.8784 11.6781 9.81633 11.947L9.81633 11.947L7.25435 23.0489C7.22011 23.1972 7.25541 23.353 7.35019 23.4721H7.35019C7.44496 23.5913 7.58882 23.6607 7.74106 23.6607H22.2589C22.4112 23.6607 22.5551 23.5913 22.6498 23.4721C22.7446 23.353 22.7799 23.1972 22.7457 23.0489L20.1837 11.947Z" fill="#EF5660" stroke="#EF5660" stroke-width="0.2"/>
<path d="M9.32286 9.79338L9.38164 9.71248L9.32286 9.79338L11.8901 11.6586L10.9095 14.6766L10.9095 14.6766C10.7747 15.0914 10.9163 15.527 11.2691 15.7834C11.6218 16.0396 12.0799 16.0396 12.4326 15.7834L12.4326 15.7834L15 13.9181L17.5674 15.7834L17.6261 15.7025C17.785 15.8179 17.9671 15.8756 18.1492 15.8756C18.3312 15.8756 18.5133 15.8179 18.6722 15.7025L18.7309 15.7834C18.7309 15.7834 18.7309 15.7834 18.7309 15.7834C19.0837 15.5271 19.2253 15.0914 19.0905 14.6766L19.0905 14.6766L18.1099 11.6586L20.6772 9.79333C20.6773 9.79333 20.6773 9.79333 20.6773 9.79333C21.03 9.53705 21.1716 9.10136 21.0368 8.68665C20.902 8.27195 20.5315 8.00269 20.0954 8.00269H18.4159C18.1401 8.00269 17.9164 8.22634 17.9164 8.5022C17.9164 8.77806 18.1401 9.0017 18.4159 9.0017H20.0672L17.2291 11.0637C17.054 11.1909 16.9808 11.4163 17.0476 11.6222L17.0476 11.6222L18.1317 14.9586L15.2937 12.8966C15.1186 12.7694 14.8815 12.7694 14.7065 12.8966L11.8684 14.9585L12.9525 11.6222C13.0193 11.4164 12.9461 11.1909 12.771 11.0637L9.93293 9.0017H13.441C13.6574 9.0017 13.8492 8.86238 13.9161 8.65657L15.0002 5.32022L16.0842 8.65652L16.1793 8.62562L16.0842 8.65652C16.1695 8.91887 16.4512 9.06245 16.7136 8.97721L16.7136 8.9772C16.976 8.89195 17.1196 8.61017 17.0343 8.34777L15.9416 4.9846C15.9416 4.9846 15.9415 4.9846 15.9415 4.98459C15.8068 4.56988 15.4362 4.30063 15.0001 4.30063C14.564 4.30063 14.1935 4.56989 14.0588 4.98454L13.0781 8.00259H9.90477C9.46871 8.00259 9.09814 8.27184 8.96336 8.68654C8.82858 9.10124 8.97005 9.53704 9.32286 9.79338ZM9.90054 9.00179C9.90054 9.00179 9.90054 9.00178 9.90055 9.00178L9.90054 9.00179Z" fill="#EF5660" stroke="#EF5660" stroke-width="0.2"/>
<path d="M12.9388 4.29958L12.9388 4.29957L12.0849 3.44556C12.0849 3.44555 12.0849 3.44555 12.0849 3.44554C11.8898 3.25052 11.8898 2.93425 12.0849 2.73919L12.9388 4.29958ZM12.9388 4.29958C13.0363 4.39706 13.1643 4.44589 13.292 4.44589M12.9388 4.29958L13.292 4.44589M12.7912 2.73917L12.7913 2.73918L13.6452 3.59319C13.8402 3.78821 13.8402 4.10449 13.6452 4.29955L12.7912 2.73917ZM12.7912 2.73917C12.5962 2.54411 12.2799 2.54409 12.0849 2.73917L12.7912 2.73917ZM13.292 4.44589C13.4196 4.44589 13.5477 4.39714 13.6452 4.29958L13.292 4.44589Z" fill="#EF5660" stroke="#EF5660" stroke-width="0.2"/>
<path d="M17.9151 3.44555L17.9151 3.44555L17.0611 4.2995C17.0611 4.29951 17.0611 4.29952 17.0611 4.29953C16.9636 4.39708 16.8355 4.44584 16.7079 4.44584C16.5802 4.44584 16.4523 4.397 16.3548 4.29954L17.9151 3.44555ZM17.9151 3.44555C18.1102 3.25049 18.1102 2.9342 17.9151 2.73917V3.44555ZM17.9151 2.73916C17.7201 2.54411 17.4038 2.5441 17.2088 2.73917C17.2087 2.73918 17.2087 2.73918 17.2087 2.73919L16.3548 3.59315C16.1597 3.78821 16.1597 4.1045 16.3548 4.29952L17.9151 2.73916Z" fill="#EF5660" stroke="#EF5660" stroke-width="0.2"/>
<path d="M15 3.59182C15.2758 3.59182 15.4995 3.36818 15.4995 3.09232V1.38437C15.4995 1.10851 15.2758 0.884863 15 0.884863C14.7241 0.884863 14.5005 1.10851 14.5005 1.38437V3.09232C14.5005 3.36818 14.7241 3.59182 15 3.59182Z" fill="#EF5660" stroke="#EF5660" stroke-width="0.2"/>
</svg>
