<svg width="25" height="25" viewBox="0 0 25 25" fill="none" xmlns="http://www.w3.org/2000/svg">
<g clip-path="url(#clip0_204_4938)">
<path d="M18.75 2.08333C21.0479 2.08333 22.9167 3.95208 22.9167 6.25V18.75C22.9167 21.0479 21.0479 22.9167 18.75 22.9167H6.25C3.95208 22.9167 2.08333 21.0479 2.08333 18.75V6.25C2.08333 3.95208 3.95208 2.08333 6.25 2.08333H18.75ZM18.75 0H6.25C2.79792 0 0 2.79792 0 6.25V18.75C0 22.2021 2.79792 25 6.25 25H18.75C22.2021 25 25 22.2021 25 18.75V6.25C25 2.79792 22.2021 0 18.75 0Z" fill="white"/>
<path d="M12.5002 18.75C11.9252 18.75 11.4585 18.2844 11.4585 17.7083V7.29167C11.4585 6.71667 11.9252 6.25 12.5002 6.25C13.0752 6.25 13.5418 6.71667 13.5418 7.29167V17.7083C13.5418 18.2844 13.0752 18.75 12.5002 18.75Z" fill="white"/>
<path d="M6.25 12.5007C6.25 11.9257 6.71563 11.459 7.29167 11.459H17.7083C18.2833 11.459 18.75 11.9257 18.75 12.5007C18.75 13.0757 18.2833 13.5423 17.7083 13.5423H7.29167C6.71563 13.5423 6.25 13.0757 6.25 12.5007Z" fill="white"/>
</g>
<defs>
<clipPath id="clip0_204_4938">
<rect width="25" height="25" fill="white"/>
</clipPath>
</defs>
</svg>
