<svg width="20" height="20" viewBox="0 0 20 20" fill="none" xmlns="http://www.w3.org/2000/svg">
<path d="M18.3332 7.70671C18.1681 7.70886 18.0104 7.77541 17.8936 7.89215C17.7769 8.0089 17.7104 8.16662 17.7082 8.33171V13.3317L14.2249 9.34837C14.0035 9.11276 13.7363 8.92498 13.4396 8.79662C13.1429 8.66826 12.8231 8.60204 12.4999 8.60204C12.1766 8.60204 11.8568 8.66826 11.5601 8.79662C11.2634 8.92498 10.9962 9.11276 10.7749 9.34837L8.38319 12.0817L7.59986 11.1317C7.38401 10.8728 7.11387 10.6644 6.80858 10.5215C6.50329 10.3785 6.1703 10.3044 5.83319 10.3044C5.49609 10.3044 5.1631 10.3785 4.85781 10.5215C4.55251 10.6644 4.28238 10.8728 4.06653 11.1317L2.29153 13.2734V4.99837C2.29372 4.28075 2.57977 3.59315 3.08721 3.08572C3.59464 2.57828 4.28224 2.29224 4.99986 2.29004H11.6665C11.8323 2.29004 11.9913 2.22419 12.1085 2.10698C12.2257 1.98977 12.2915 1.8308 12.2915 1.66504C12.2915 1.49928 12.2257 1.34031 12.1085 1.2231C11.9913 1.10589 11.8323 1.04004 11.6665 1.04004H4.99986C3.95004 1.04004 2.94323 1.45708 2.20089 2.19941C1.45856 2.94174 1.04153 3.94856 1.04153 4.99837V14.9984C1.03759 15.012 1.03759 15.0264 1.04153 15.04C1.0525 16.0826 1.47438 17.0788 2.21552 17.8121C2.95667 18.5455 3.95722 18.9568 4.99986 18.9567H14.9999C16.0382 18.9546 17.0342 18.5446 17.773 17.8151C18.5119 17.0856 18.9346 16.0949 18.9499 15.0567V8.33171C18.9478 8.16803 18.8824 8.01152 18.7674 7.895C18.6524 7.77848 18.4968 7.711 18.3332 7.70671ZM14.9999 17.7067H4.99986C4.31912 17.7045 3.66417 17.4461 3.16538 16.9828C2.66659 16.5195 2.36055 15.8854 2.30819 15.2067L4.99986 11.9317C5.10068 11.8194 5.22402 11.7296 5.36185 11.6681C5.49969 11.6066 5.64893 11.5748 5.79986 11.5748C5.95079 11.5748 6.10003 11.6066 6.23787 11.6681C6.3757 11.7296 6.49904 11.8194 6.59986 11.9317L7.85819 13.4484C7.9159 13.5186 7.98841 13.5751 8.07052 13.614C8.15264 13.6529 8.24233 13.6732 8.33319 13.6734C8.51314 13.6634 8.68273 13.5861 8.80819 13.4567L11.6749 10.1734C11.7768 10.066 11.8996 9.98042 12.0357 9.92197C12.1718 9.86351 12.3184 9.83337 12.4665 9.83337C12.6146 9.83337 12.7612 9.86351 12.8973 9.92197C13.0334 9.98042 13.1562 10.066 13.2582 10.1734L17.6499 15.1734C17.608 15.8516 17.3119 16.4892 16.8207 16.9587C16.3295 17.4283 15.6793 17.6954 14.9999 17.7067Z" fill="#BFBFBF"/>
<path d="M3.5415 5.83171C3.5415 6.28495 3.67591 6.72802 3.92772 7.10489C4.17953 7.48175 4.53744 7.77548 4.95619 7.94893C5.37493 8.12238 5.83571 8.16776 6.28025 8.07934C6.72479 7.99091 7.13313 7.77265 7.45362 7.45216C7.77412 7.13166 7.99238 6.72333 8.0808 6.27879C8.16923 5.83425 8.12385 5.37347 7.95039 4.95472C7.77694 4.53598 7.48321 4.17807 7.10635 3.92625C6.72949 3.67444 6.28642 3.54004 5.83317 3.54004C5.22538 3.54004 4.64249 3.78148 4.21272 4.21125C3.78295 4.64102 3.5415 5.22392 3.5415 5.83171ZM6.87484 5.83171C6.87484 6.03773 6.81374 6.23912 6.69928 6.41042C6.58483 6.58173 6.42214 6.71524 6.2318 6.79408C6.04146 6.87292 5.83201 6.89355 5.62995 6.85336C5.42789 6.81316 5.24228 6.71395 5.0966 6.56828C4.95092 6.4226 4.85171 6.23699 4.81152 6.03492C4.77133 5.83286 4.79195 5.62342 4.8708 5.43308C4.94964 5.24274 5.08315 5.08005 5.25445 4.96559C5.42575 4.85113 5.62715 4.79004 5.83317 4.79004C6.10944 4.79004 6.37439 4.89979 6.56974 5.09514C6.76509 5.29049 6.87484 5.55544 6.87484 5.83171Z" fill="#BFBFBF"/>
<path d="M13.333 4.79004H15.208V6.66504C15.208 6.8308 15.2739 6.98977 15.3911 7.10698C15.5083 7.22419 15.6672 7.29004 15.833 7.29004C15.9988 7.29004 16.1577 7.22419 16.275 7.10698C16.3922 6.98977 16.458 6.8308 16.458 6.66504V4.79004H18.333C18.4988 4.79004 18.6577 4.72419 18.775 4.60698C18.8922 4.48977 18.958 4.3308 18.958 4.16504C18.958 3.99928 18.8922 3.84031 18.775 3.7231C18.6577 3.60589 18.4988 3.54004 18.333 3.54004H16.458V1.66504C16.458 1.49928 16.3922 1.34031 16.275 1.2231C16.1577 1.10589 15.9988 1.04004 15.833 1.04004C15.6672 1.04004 15.5083 1.10589 15.3911 1.2231C15.2739 1.34031 15.208 1.49928 15.208 1.66504V3.54004H13.333C13.1672 3.54004 13.0083 3.60589 12.8911 3.7231C12.7739 3.84031 12.708 3.99928 12.708 4.16504C12.708 4.3308 12.7739 4.48977 12.8911 4.60698C13.0083 4.72419 13.1672 4.79004 13.333 4.79004Z" fill="#BFBFBF"/>
</svg>
