<svg width="15" height="15" viewBox="0 0 15 15" fill="none" xmlns="http://www.w3.org/2000/svg">
<path d="M12.0326 1.87514V1.40625C12.0326 1.14738 11.823 0.9375 11.5639 0.9375C11.3048 0.9375 11.0951 1.14738 11.0951 1.40625V1.875H11.0938C10.3183 1.875 9.6875 2.5058 9.6875 3.28125V4.21875C9.6875 4.9942 10.3183 5.625 11.0938 5.625H11.0951V13.5938C11.0951 13.8528 11.3048 14.0625 11.5639 14.0625C11.823 14.0625 12.0326 13.8528 12.0326 13.5938V5.62486C12.8074 5.62411 13.4375 4.99374 13.4375 4.21875V3.28125C13.4375 2.50626 12.8074 1.87589 12.0326 1.87514Z" fill="white"/>
<path d="M1.5625 10.3125V11.25C1.5625 12.0255 2.1933 12.6562 2.96875 12.6562V13.5938C2.96875 13.8528 3.17841 14.0625 3.4375 14.0625C3.69659 14.0625 3.90625 13.8528 3.90625 13.5938V12.6562C4.6817 12.6562 5.3125 12.0255 5.3125 11.25V10.3125C5.3125 9.53705 4.6817 8.90625 3.90625 8.90625V1.40625C3.90625 1.14738 3.69659 0.9375 3.4375 0.9375C3.17841 0.9375 2.96875 1.14738 2.96875 1.40625V8.90625C2.1933 8.90625 1.5625 9.53705 1.5625 10.3125Z" fill="white"/>
<path d="M7.03125 7.96875H7.03262V13.5938C7.03262 13.8528 7.24228 14.0625 7.50137 14.0625C7.76047 14.0625 7.97012 13.8528 7.97012 13.5938V7.96861C8.74495 7.96786 9.375 7.33749 9.375 6.5625V5.625C9.375 4.85001 8.74495 4.21964 7.97012 4.21889V1.40625C7.97012 1.14738 7.76047 0.9375 7.50137 0.9375C7.24228 0.9375 7.03262 1.14738 7.03262 1.40625V4.21875H7.03125C6.2558 4.21875 5.625 4.84955 5.625 5.625V6.5625C5.625 7.33795 6.2558 7.96875 7.03125 7.96875Z" fill="white"/>
</svg>
