<svg width="30" height="30" viewBox="0 0 30 30" fill="none" xmlns="http://www.w3.org/2000/svg">
<path d="M12.2625 16.8751V16.875V9.37523C12.2629 9.2282 12.301 9.08373 12.373 8.95553C12.4449 8.82734 12.5485 8.71967 12.6738 8.64276C12.7991 8.56585 12.942 8.52225 13.0889 8.51609C13.2358 8.50994 13.3818 8.54144 13.5131 8.6076L13.5133 8.60771L21.0127 12.3574C21.0128 12.3574 21.0129 12.3575 21.0131 12.3576C21.1542 12.43 21.2726 12.5398 21.3553 12.6752C21.4381 12.8106 21.4819 12.9663 21.4819 13.125C21.4819 13.2837 21.4381 13.4394 21.3553 13.5748C21.2726 13.7102 21.1542 13.82 21.0131 13.8924C21.0129 13.8925 21.0128 13.8926 21.0127 13.8926L13.5133 17.6423L13.5127 17.6426C13.3925 17.7042 13.2596 17.7367 13.1247 17.7375C12.9633 17.738 12.805 17.6932 12.6678 17.6082C12.5435 17.5305 12.4411 17.4225 12.3702 17.2942C12.2993 17.166 12.2622 17.0217 12.2625 16.8751ZM14.096 10.8267L13.9875 10.7724V10.8938V15.3562V15.4776L14.096 15.4233L18.5585 13.1921L18.6927 13.125L18.5585 13.0579L14.096 10.8267ZM25.3125 24.3H8.4375C7.71147 24.3 7.01518 24.0116 6.5018 23.4982C5.98841 22.9848 5.7 22.2885 5.7 21.5625V4.6875C5.7 3.96147 5.98841 3.26518 6.5018 2.7518C7.01518 2.23841 7.71147 1.95 8.4375 1.95H25.3125C26.0385 1.95 26.7348 2.23841 27.2482 2.7518C27.7616 3.26518 28.05 3.96147 28.05 4.6875V21.5625C28.05 22.2885 27.7616 22.9848 27.2482 23.4982C26.7348 24.0116 26.0385 24.3 25.3125 24.3ZM8.4375 3.675C8.16897 3.675 7.91144 3.78167 7.72155 3.97155C7.53167 4.16144 7.425 4.41897 7.425 4.6875V21.5625C7.425 21.831 7.53167 22.0886 7.72155 22.2784C7.91144 22.4683 8.16897 22.575 8.4375 22.575H25.3125C25.581 22.575 25.8386 22.4683 26.0284 22.2784C26.2183 22.0886 26.325 21.831 26.325 21.5625V4.6875C26.325 4.41897 26.2183 4.16144 26.0284 3.97155C25.8386 3.78167 25.581 3.675 25.3125 3.675H8.4375ZM24.0474 26.5776C24.2091 26.7394 24.3 26.9588 24.3 27.1875C24.3 27.4162 24.2091 27.6356 24.0474 27.7974C23.8856 27.9591 23.6662 28.05 23.4375 28.05H4.6875C3.96147 28.05 3.26518 27.7616 2.7518 27.2482C2.23841 26.7348 1.95 26.0385 1.95 25.3125V6.5625C1.95 6.33375 2.04087 6.11437 2.20262 5.95262C2.36437 5.79087 2.58375 5.7 2.8125 5.7C3.04125 5.7 3.26063 5.79087 3.42238 5.95262C3.58413 6.11437 3.675 6.33375 3.675 6.5625V25.3125C3.675 25.581 3.78167 25.8386 3.97155 26.0284C4.16144 26.2183 4.41897 26.325 4.6875 26.325H23.4375C23.6662 26.325 23.8856 26.4159 24.0474 26.5776Z" fill="#EF5660" stroke="#9C9FB3" stroke-width="0.15"/>
</svg>
