<svg width="27" height="27" viewBox="0 0 27 27" fill="none" xmlns="http://www.w3.org/2000/svg">
<g clip-path="url(#clip0_798_13627)">
<path d="M25.5195 18.2964C26.0661 17.5993 26.3282 16.8519 26.2947 16.0823C26.2613 15.2345 25.882 14.5709 25.5697 14.1637C25.9322 13.2602 26.0716 11.838 24.8614 10.7338C23.9746 9.92508 22.4688 9.56256 20.3829 9.66295C18.9161 9.72988 17.6892 10.0032 17.639 10.0143H17.6334C17.3545 10.0645 17.0589 10.1259 16.7578 10.1928C16.7355 9.83584 16.7968 8.94907 17.4549 6.95245C18.2357 4.57658 18.1911 2.75842 17.3099 1.5426C16.3841 0.265428 14.9062 0.165039 14.4711 0.165039C14.0529 0.165039 13.668 0.337931 13.3947 0.65583C12.7757 1.37528 12.8482 2.70265 12.9263 3.31614C12.1901 5.29045 10.1265 10.1314 8.38088 11.4755C8.34741 11.4978 8.31953 11.5257 8.29164 11.5536C7.77854 12.0946 7.43276 12.6802 7.19852 13.1933C6.86947 13.0148 6.4958 12.9144 6.09424 12.9144H2.69217C1.40942 12.9144 0.37207 13.9574 0.37207 15.2345V24.2974C0.37207 25.5802 1.415 26.6175 2.69217 26.6175H6.09424C6.59061 26.6175 7.05351 26.4614 7.43276 26.1937L8.74339 26.3498C8.94417 26.3777 12.5136 26.8295 16.1778 26.757C16.8414 26.8072 17.4661 26.835 18.0461 26.835C19.0444 26.835 19.9145 26.757 20.6395 26.6008C22.3461 26.2383 23.5117 25.5133 24.1029 24.448C24.5547 23.6337 24.5547 22.8251 24.4822 22.312C25.592 21.3081 25.7872 20.1982 25.7482 19.4174C25.7259 18.9657 25.6255 18.5808 25.5195 18.2964ZM2.69217 25.1117C2.24042 25.1117 1.8779 24.7436 1.8779 24.2974V15.229C1.8779 14.7772 2.246 14.4147 2.69217 14.4147H6.09424C6.54599 14.4147 6.90851 14.7828 6.90851 15.229V24.2919C6.90851 24.7436 6.54041 25.1061 6.09424 25.1061H2.69217V25.1117ZM24.0918 17.6439C23.8575 17.8893 23.8129 18.2629 23.9914 18.5529C23.9914 18.5585 24.22 18.9489 24.2479 19.4843C24.287 20.2149 23.9356 20.8619 23.1994 21.414C22.9373 21.6148 22.8313 21.9606 22.9429 22.2729C22.9429 22.2785 23.1827 23.0147 22.7923 23.7118C22.4186 24.3811 21.5876 24.8607 20.3272 25.1284C19.3177 25.3459 17.9457 25.385 16.2614 25.2511C16.2391 25.2511 16.2112 25.2511 16.1833 25.2511C12.5972 25.3292 8.97206 24.8607 8.93302 24.8551H8.92744L8.36415 24.7882C8.39761 24.6321 8.41434 24.4647 8.41434 24.2974V15.229C8.41434 14.9891 8.3753 14.7549 8.30837 14.5374C8.40876 14.1637 8.68762 13.3327 9.34573 12.6244C11.8499 10.639 14.2982 3.94078 14.4042 3.65077C14.4488 3.53365 14.46 3.40537 14.4377 3.2771C14.3429 2.65245 14.3763 1.88838 14.5102 1.65972C14.8058 1.6653 15.6033 1.74895 16.0829 2.41264C16.6518 3.19902 16.6295 4.60446 16.016 6.46723C15.0791 9.30601 15.001 10.8007 15.7427 11.4588C16.1108 11.7878 16.6016 11.8046 16.9586 11.6763C17.2988 11.5982 17.6222 11.5313 17.929 11.4811C17.9513 11.4755 17.9792 11.47 18.0015 11.4644C19.7137 11.0907 22.7811 10.862 23.8464 11.8325C24.7499 12.6579 24.1085 13.751 24.036 13.8681C23.8296 14.1805 23.891 14.5876 24.1698 14.8386C24.1754 14.8441 24.761 15.3963 24.7889 16.138C24.8112 16.6344 24.577 17.1419 24.0918 17.6439Z" fill="#2D334B"/>
</g>
<defs>
<clipPath id="clip0_798_13627">
<rect width="26.67" height="26.67" fill="white" transform="translate(0 0.165039)"/>
</clipPath>
</defs>
</svg>
