<svg width="25" height="25" viewBox="0 0 25 25" fill="none" xmlns="http://www.w3.org/2000/svg">
<path d="M23.9583 13.5201H1.04167C0.466665 13.5201 0 13.0534 0 12.4784C0 11.9034 0.466665 11.4368 1.04167 11.4368H23.9583C24.5333 11.4368 25 11.9034 25 12.4784C25 13.0534 24.5333 13.5201 23.9583 13.5201Z" fill="#2D334B"/>
<path d="M23.9583 5.53377H1.04167C0.466665 5.53377 0 5.06711 0 4.49211C0 3.9171 0.466665 3.45044 1.04167 3.45044H23.9583C24.5333 3.45044 25 3.9171 25 4.49211C25 5.06711 24.5333 5.53377 23.9583 5.53377Z" fill="#2D334B"/>
<path d="M23.9583 21.5059H1.04167C0.466665 21.5059 0 21.0393 0 20.4643C0 19.8893 0.466665 19.4226 1.04167 19.4226H23.9583C24.5333 19.4226 25 19.8893 25 20.4643C25 21.0393 24.5333 21.5059 23.9583 21.5059Z" fill="#2D334B"/>
</svg>
