<svg width="15" height="15" viewBox="0 0 15 15" fill="none" xmlns="http://www.w3.org/2000/svg">
<g clip-path="url(#clip0_346_11212)">
<path d="M10.078 14.0573H4.9218C4.24398 14.0573 3.44805 13.598 3.10961 13.0111L0.531484 8.54671C0.187422 7.95046 0.187422 7.05046 0.531484 6.45374L3.11008 1.98937C3.44852 1.40249 4.24445 0.943115 4.92227 0.943115H10.078C10.7559 0.943115 11.5518 1.40249 11.8902 1.98937L14.4684 6.45374C14.8124 7.04999 14.8124 7.94999 14.4684 8.54671L11.8898 13.0111C11.5518 13.598 10.7554 14.0573 10.078 14.0573ZM4.9218 1.88015C4.57258 1.88015 4.09586 2.1553 3.92148 2.45765L1.34289 6.92202C1.16852 7.22437 1.16852 7.77515 1.34289 8.07749L3.92102 12.5419C4.09586 12.8447 4.57258 13.1194 4.92133 13.1194H10.078C10.4273 13.1194 10.904 12.8442 11.0784 12.5419L13.657 8.07749C13.8313 7.77515 13.8313 7.22437 13.657 6.92202L11.0788 2.45765C10.904 2.15483 10.4273 1.88015 10.0785 1.88015H4.9218ZM7.49992 10.2731C5.97039 10.2731 4.72633 9.02905 4.72633 7.49999C4.72633 5.97093 5.97039 4.72687 7.49992 4.72687C9.02945 4.72687 10.2735 5.97093 10.2735 7.49999C10.2735 9.02905 9.02945 10.2731 7.49992 10.2731ZM7.49992 5.66436C6.48742 5.66436 5.66383 6.48796 5.66383 7.49999C5.66383 8.51202 6.48742 9.33562 7.49992 9.33562C8.51242 9.33562 9.33602 8.51202 9.33602 7.49999C9.33602 6.48796 8.51242 5.66436 7.49992 5.66436Z" fill="white"/>
</g>
<defs>
<clipPath id="clip0_346_11212">
<rect width="15" height="15" fill="white"/>
</clipPath>
</defs>
</svg>
