<svg width="27" height="27" viewBox="0 0 27 27" fill="none" xmlns="http://www.w3.org/2000/svg">
<g clip-path="url(#clip0_798_13620)">
<path d="M23.6138 26.8352H3.05577C1.36999 26.8352 0 25.465 0 23.7795V7.66637C0 5.98059 1.36999 4.6106 3.05577 4.6106H6.94518C7.40523 4.6106 7.7786 4.98397 7.7786 5.44402C7.7786 5.90408 7.40523 6.27745 6.94518 6.27745H3.05577C2.2901 6.27745 1.66686 6.90069 1.66686 7.66637V23.7795C1.66686 24.5449 2.2901 25.1684 3.05577 25.1684H23.6138C24.3794 25.1684 25.0029 24.5449 25.0029 23.7795V14.3338C25.0029 13.8737 25.3763 13.5004 25.8363 13.5004C26.2964 13.5004 26.6697 13.8737 26.6697 14.3338V23.7795C26.6697 25.465 25.2995 26.8352 23.6138 26.8352Z" fill="#2D334B"/>
<path d="M7.50018 17.931C7.43913 17.931 7.37789 17.9243 7.31685 17.9086C6.94022 17.8209 6.66797 17.4986 6.66797 17.112V15.4452C6.66797 9.47117 11.5286 4.61058 17.5025 4.61058H17.7803V0.998917C17.7803 0.658912 17.987 0.353295 18.3026 0.225513C18.617 0.0989521 18.9781 0.175458 19.2138 0.421051L26.4369 7.92192C26.748 8.24422 26.748 8.75534 26.4369 9.07765L19.2138 16.5785C18.9781 16.8241 18.6147 16.8998 18.3026 16.774C17.987 16.6463 17.7803 16.3406 17.7803 16.0006V12.3892H16.4602C12.9643 12.3892 9.82263 14.3315 8.26036 17.4575C8.11691 17.7465 7.81577 17.931 7.50018 17.931ZM17.5025 6.27744C12.8353 6.27744 8.97048 9.78329 8.40482 14.3004C10.4249 12.0469 13.322 10.7223 16.4602 10.7223H18.6137C19.0738 10.7223 19.4471 11.0957 19.4471 11.5558V13.9338L24.6799 8.49978L19.4471 3.06581V5.44401C19.4471 5.90406 19.0738 6.27744 18.6137 6.27744H17.5025Z" fill="#2D334B"/>
</g>
<defs>
<clipPath id="clip0_798_13620">
<rect width="26.67" height="26.67" fill="white" transform="translate(0 0.165039)"/>
</clipPath>
</defs>
</svg>
