<svg width="18" height="21" viewBox="0 0 18 21" fill="none" xmlns="http://www.w3.org/2000/svg">
<path fill-rule="evenodd" clip-rule="evenodd" d="M11.352 0.388412C11.4881 1.33236 11.1118 2.25712 10.6155 2.9114C10.0844 3.61319 9.16909 4.15598 8.28222 4.12765C8.12033 3.22391 8.53485 2.29276 9.03922 1.66681C9.5925 0.975981 10.5407 0.445981 11.352 0.388412ZM14.0171 13.675C14.4743 12.9595 14.6451 12.5985 15 11.7907C12.4186 10.7883 12.0049 7.04082 14.5597 5.60251C13.7804 4.60464 12.6854 4.02621 11.6518 4.02621C10.907 4.02621 10.3967 4.22468 9.93281 4.4051C9.54622 4.55546 9.19184 4.69328 8.76081 4.69328C8.29503 4.69328 7.88257 4.54227 7.45067 4.38414C6.97609 4.21038 6.47805 4.02804 5.86004 4.02804C4.70009 4.02804 3.46542 4.75176 2.68263 5.98904C1.58228 7.73164 1.76997 11.0076 3.55437 13.7983C4.19217 14.7971 5.04434 15.9192 6.15893 15.9293C6.62141 15.934 6.92916 15.793 7.2622 15.6405C7.64339 15.4659 8.05769 15.2762 8.77505 15.2723C9.49662 15.2679 9.9044 15.4599 10.2805 15.6371C10.605 15.7899 10.9059 15.9316 11.3645 15.9265C12.48 15.9174 13.3793 14.6737 14.0171 13.675Z" fill="black"/>
</svg>
