<svg width="16" height="16" viewBox="0 0 16 16" fill="none" xmlns="http://www.w3.org/2000/svg">
<path d="M11.1955 9.06667C11.3232 8.72559 11.3879 8.36419 11.3866 8.00001C11.3866 7.19139 11.0654 6.41589 10.4936 5.84412C9.92187 5.27234 9.14637 4.95112 8.33776 4.95112C7.97806 4.95154 7.62134 5.01626 7.28442 5.14223L7.99998 5.88001C8.10875 5.8626 8.21871 5.85369 8.32887 5.85334C8.90062 5.85215 9.44961 6.07723 9.85598 6.47943C10.2623 6.88163 10.4931 7.42828 10.4978 8.00001C10.4974 8.11016 10.4885 8.22012 10.4711 8.3289L11.1955 9.06667Z" fill="#BFBFBF"/>
<path d="M15.24 7.79112C13.7422 5.02223 11.1156 3.34667 8.20889 3.34667C7.41749 3.34853 6.63141 3.47604 5.88 3.72445L6.59556 4.44445C7.12261 4.30824 7.66454 4.23807 8.20889 4.23556C10.7111 4.23556 12.9867 5.63112 14.3422 7.98223C13.845 8.8545 13.1858 9.62382 12.4 10.2489L13.0311 10.88C13.9405 10.1464 14.6957 9.24009 15.2533 8.21334L15.3689 8.00001L15.24 7.79112Z" fill="#BFBFBF"/>
<path d="M2.16441 2.5689L4.14663 4.55112C2.8937 5.35783 1.8697 6.47368 1.17329 7.79112L1.05774 8.00001L1.17329 8.21334C2.67107 10.9822 5.29774 12.6578 8.2044 12.6578C9.33892 12.6576 10.4587 12.4008 11.48 11.9067L13.7022 14.1289L14.48 13.4622L2.92441 1.90667L2.16441 2.5689ZM6.49774 6.90223L9.45329 9.85778C9.11935 10.0645 8.73492 10.1752 8.34218 10.1778C8.05682 10.1778 7.77427 10.1214 7.51079 10.0118C7.24732 9.90215 7.00812 9.74153 6.80696 9.53913C6.60579 9.33672 6.44664 9.09654 6.33865 8.8324C6.23067 8.56825 6.17598 8.28536 6.17774 8.00001C6.18275 7.61181 6.29337 7.23231 6.49774 6.90223ZM5.85329 6.25778C5.43749 6.84418 5.24259 7.5588 5.30312 8.27511C5.36365 8.99142 5.6757 9.6632 6.18401 10.1715C6.69232 10.6798 7.3641 10.9919 8.08041 11.0524C8.79672 11.1129 9.51134 10.918 10.0977 10.5022L10.8088 11.2133C9.98564 11.5652 9.09967 11.7466 8.2044 11.7467C5.70218 11.7467 3.42663 10.3511 2.07107 8.00001C2.72161 6.8481 3.65851 5.88365 4.79107 5.20001L5.85329 6.25778Z" fill="#BFBFBF"/>
</svg>
