<svg width="18" height="19" viewBox="0 0 18 19" fill="none" xmlns="http://www.w3.org/2000/svg">
<g clip-path="url(#clip0_46_139)">
<path d="M17.2042 9.54978C17.2042 4.80507 13.3815 0.958923 8.66671 0.958923C3.94974 0.959991 0.127075 4.80507 0.127075 9.55085C0.127075 13.8377 3.24967 17.3915 7.33059 18.0361V12.0331H5.1642V9.55085H7.33273V7.65659C7.33273 5.50408 8.60802 4.31523 10.5578 4.31523C11.4926 4.31523 12.4691 4.48278 12.4691 4.48278V6.59581H11.3923C10.3326 6.59581 10.0018 7.25853 10.0018 7.93833V9.54978H12.3688L11.991 12.0321H10.0007V18.035C14.0816 17.3904 17.2042 13.8367 17.2042 9.54978Z" fill="#059BE5"/>
</g>
<defs>
<clipPath id="clip0_46_139">
<rect x="0.12915" y="0.959991" width="17.075" height="17.075" rx="8.5375" fill="white"/>
</clipPath>
</defs>
</svg>
