<svg width="18" height="19" viewBox="0 0 18 19" fill="none" xmlns="http://www.w3.org/2000/svg">
<g clip-path="url(#clip0_46_128)">
<path d="M17.7044 7.8253H17.0167V7.78987H9.33313V11.2048H14.158C13.4541 13.1927 11.5627 14.6198 9.33313 14.6198C6.50428 14.6198 4.21072 12.3262 4.21072 9.49734C4.21072 6.66849 6.50428 4.37493 9.33313 4.37493C10.6389 4.37493 11.8269 4.86754 12.7314 5.67218L15.1462 3.25739C13.6214 1.83635 11.5819 0.959991 9.33313 0.959991C4.61838 0.959991 0.795776 4.78259 0.795776 9.49734C0.795776 14.2121 4.61838 18.0347 9.33313 18.0347C14.0479 18.0347 17.8705 14.2121 17.8705 9.49734C17.8705 8.92491 17.8116 8.36615 17.7044 7.8253Z" fill="#FFC107"/>
<path d="M1.77954 5.52363L4.58449 7.58071C5.34346 5.70164 7.18155 4.37493 9.33254 4.37493C10.6383 4.37493 11.8263 4.86754 12.7308 5.67218L15.1456 3.25739C13.6209 1.83635 11.5813 0.959991 9.33254 0.959991C6.05334 0.959991 3.20955 2.81132 1.77954 5.52363Z" fill="#FF3D00"/>
<path d="M9.33329 18.035C11.5385 18.035 13.5422 17.1911 15.0572 15.8187L12.4148 13.5828C11.5289 14.2565 10.4463 14.6209 9.33329 14.62C7.11272 14.62 5.22725 13.2041 4.51694 11.2281L1.73291 13.3732C3.14584 16.138 6.01525 18.035 9.33329 18.035Z" fill="#4CAF50"/>
<path d="M17.7044 7.8253H17.0167V7.78987H9.33313V11.2048H14.158C13.8213 12.1509 13.2148 12.9777 12.4134 13.5829L12.4147 13.582L15.057 15.818C14.87 15.9879 17.8705 13.766 17.8705 9.49734C17.8705 8.92491 17.8116 8.36614 17.7044 7.8253Z" fill="#1976D2"/>
</g>
<defs>
<clipPath id="clip0_46_128">
<rect x="0.795776" y="0.959991" width="17.075" height="17.075" rx="8.5375" fill="white"/>
</clipPath>
</defs>
</svg>
