<svg width="20" height="20" viewBox="0 0 20 20" fill="none" xmlns="http://www.w3.org/2000/svg">
<path d="M15 18.958H5C4.17154 18.9569 3.37732 18.6273 2.79151 18.0415C2.2057 17.4557 1.8761 16.6615 1.875 15.833V5.83301C1.8761 5.00454 2.2057 4.21033 2.79151 3.62452C3.37732 3.0387 4.17154 2.70911 5 2.70801H15C15.8285 2.70911 16.6227 3.0387 17.2085 3.62452C17.7943 4.21033 18.1239 5.00454 18.125 5.83301V15.833C18.1239 16.6615 17.7943 17.4557 17.2085 18.0415C16.6227 18.6273 15.8285 18.9569 15 18.958ZM5 3.95801C4.50292 3.95867 4.02639 4.15643 3.67491 4.50791C3.32342 4.8594 3.12566 5.33593 3.125 5.83301V15.833C3.12566 16.3301 3.32342 16.8066 3.67491 17.1581C4.02639 17.5096 4.50292 17.7073 5 17.708H15C15.4971 17.7073 15.9736 17.5096 16.3251 17.1581C16.6766 16.8066 16.8743 16.3301 16.875 15.833V5.83301C16.8743 5.33593 16.6766 4.8594 16.3251 4.50791C15.9736 4.15643 15.4971 3.95867 15 3.95801H5Z" fill="white"/>
<path d="M17.5 8.12467H2.5C2.33424 8.12467 2.17527 8.05883 2.05806 7.94162C1.94085 7.82441 1.875 7.66543 1.875 7.49967V5.83301C1.8761 5.00454 2.2057 4.21033 2.79151 3.62452C3.37732 3.0387 4.17154 2.70911 5 2.70801H15C15.8285 2.70911 16.6227 3.0387 17.2085 3.62452C17.7943 4.21033 18.1239 5.00454 18.125 5.83301V7.49967C18.125 7.66543 18.0592 7.82441 17.9419 7.94162C17.8247 8.05883 17.6658 8.12467 17.5 8.12467ZM3.125 6.87467H16.875V5.83301C16.8743 5.33593 16.6766 4.8594 16.3251 4.50791C15.9736 4.15643 15.4971 3.95867 15 3.95801H5C4.50292 3.95867 4.02639 4.15643 3.67491 4.50791C3.32342 4.8594 3.12566 5.33593 3.125 5.83301V6.87467Z" fill="white"/>
<path d="M13.332 5.62484C13.1663 5.62484 13.0073 5.55899 12.8901 5.44178C12.7729 5.32457 12.707 5.1656 12.707 4.99984V1.6665C12.707 1.50074 12.7729 1.34177 12.8901 1.22456C13.0073 1.10735 13.1663 1.0415 13.332 1.0415C13.4978 1.0415 13.6568 1.10735 13.774 1.22456C13.8912 1.34177 13.957 1.50074 13.957 1.6665V4.99984C13.957 5.1656 13.8912 5.32457 13.774 5.44178C13.6568 5.55899 13.4978 5.62484 13.332 5.62484Z" fill="white"/>
<path d="M6.66797 5.62484C6.50221 5.62484 6.34324 5.55899 6.22603 5.44178C6.10882 5.32457 6.04297 5.1656 6.04297 4.99984V1.6665C6.04297 1.50074 6.10882 1.34177 6.22603 1.22456C6.34324 1.10735 6.50221 1.0415 6.66797 1.0415C6.83373 1.0415 6.9927 1.10735 7.10991 1.22456C7.22712 1.34177 7.29297 1.50074 7.29297 1.6665V4.99984C7.29297 5.1656 7.22712 5.32457 7.10991 5.44178C6.9927 5.55899 6.83373 5.62484 6.66797 5.62484Z" fill="white"/>
<path d="M10 15.6247C9.83424 15.6247 9.67527 15.5588 9.55806 15.4416C9.44085 15.3244 9.375 15.1654 9.375 14.9997V10.833C9.375 10.6672 9.44085 10.5083 9.55806 10.3911C9.67527 10.2739 9.83424 10.208 10 10.208C10.1658 10.208 10.3247 10.2739 10.4419 10.3911C10.5592 10.5083 10.625 10.6672 10.625 10.833V14.9997C10.625 15.1654 10.5592 15.3244 10.4419 15.4416C10.3247 15.5588 10.1658 15.6247 10 15.6247Z" fill="white"/>
<path d="M12.0846 13.5415H7.91797C7.75221 13.5415 7.59324 13.4757 7.47603 13.3584C7.35882 13.2412 7.29297 13.0823 7.29297 12.9165C7.29297 12.7507 7.35882 12.5918 7.47603 12.4746C7.59324 12.3574 7.75221 12.2915 7.91797 12.2915H12.0846C12.2504 12.2915 12.4094 12.3574 12.5266 12.4746C12.6438 12.5918 12.7096 12.7507 12.7096 12.9165C12.7096 13.0823 12.6438 13.2412 12.5266 13.3584C12.4094 13.4757 12.2504 13.5415 12.0846 13.5415Z" fill="white"/>
</svg>
