<svg width="30" height="30" viewBox="0 0 30 30" fill="none" xmlns="http://www.w3.org/2000/svg">
<path fill-rule="evenodd" clip-rule="evenodd" d="M2.8125 5.625C2.8125 4.0717 4.0717 2.8125 5.625 2.8125H24.375C25.9284 2.8125 27.1875 4.07171 27.1875 5.625V15C27.1875 15.5177 26.7677 15.9375 26.25 15.9375C25.7323 15.9375 25.3125 15.5177 25.3125 15V5.625C25.3125 5.10722 24.8927 4.6875 24.375 4.6875H5.625C5.10724 4.6875 4.6875 5.10724 4.6875 5.625V24.375C4.6875 24.8927 5.10722 25.3125 5.625 25.3125H15C15.5177 25.3125 15.9375 25.7323 15.9375 26.25C15.9375 26.7677 15.5177 27.1875 15 27.1875H5.625C4.07171 27.1875 2.8125 25.9284 2.8125 24.375V5.625Z" fill="#2D334B"/>
<path fill-rule="evenodd" clip-rule="evenodd" d="M24.4102 19.6875C24.9279 19.6875 25.3477 20.1072 25.3477 20.625V26.875C25.3477 27.3927 24.9279 27.8125 24.4102 27.8125C23.8924 27.8125 23.4727 27.3927 23.4727 26.875V20.625C23.4727 20.1072 23.8924 19.6875 24.4102 19.6875Z" fill="#2D334B"/>
<path fill-rule="evenodd" clip-rule="evenodd" d="M20.3125 23.7188C20.3125 23.2009 20.7322 22.7812 21.25 22.7812H27.5C28.0177 22.7812 28.4375 23.2009 28.4375 23.7188C28.4375 24.2365 28.0177 24.6562 27.5 24.6562H21.25C20.7322 24.6562 20.3125 24.2365 20.3125 23.7188Z" fill="#2D334B"/>
<path fill-rule="evenodd" clip-rule="evenodd" d="M15 9.0625C13.7919 9.0625 12.8125 10.0419 12.8125 11.25C12.8125 12.4581 13.7919 13.4375 15 13.4375C16.2081 13.4375 17.1875 12.4581 17.1875 11.25C17.1875 10.0419 16.2081 9.0625 15 9.0625ZM10.9375 11.25C10.9375 9.00634 12.7564 7.1875 15 7.1875C17.2436 7.1875 19.0625 9.00634 19.0625 11.25C19.0625 13.4936 17.2436 15.3125 15 15.3125C12.7564 15.3125 10.9375 13.4936 10.9375 11.25Z" fill="#2D334B"/>
<path fill-rule="evenodd" clip-rule="evenodd" d="M8.4375 19.375C8.4375 15.995 11.4825 13.4375 15 13.4375C18.5175 13.4375 21.5625 15.995 21.5625 19.375C21.5625 19.8927 21.1427 20.3125 20.625 20.3125C20.1073 20.3125 19.6875 19.8927 19.6875 19.375C19.6875 17.2321 17.6958 15.3125 15 15.3125C12.3043 15.3125 10.3125 17.2321 10.3125 19.375C10.3125 19.8927 9.89276 20.3125 9.375 20.3125C8.85724 20.3125 8.4375 19.8927 8.4375 19.375Z" fill="#2D334B"/>
</svg>
