<svg width="30" height="30" viewBox="0 0 30 30" fill="none" xmlns="http://www.w3.org/2000/svg">
<path fill-rule="evenodd" clip-rule="evenodd" d="M1.875 5C1.875 3.27411 3.27411 1.875 5 1.875H25C26.7259 1.875 28.125 3.27411 28.125 5V13.75H26.875V5C26.875 3.96446 26.0355 3.125 25 3.125H5C3.96446 3.125 3.125 3.96446 3.125 5V25C3.125 26.0355 3.96446 26.875 5 26.875H13.75V28.125H5C3.27411 28.125 1.875 26.7259 1.875 25V5Z" fill="#2D334B"/>
<path fill-rule="evenodd" clip-rule="evenodd" d="M10.625 2.5C10.625 2.15483 10.9048 1.875 11.25 1.875H18.75C19.0951 1.875 19.375 2.15483 19.375 2.5V11.25C19.375 11.4509 19.2784 11.6396 19.1155 11.757C18.9525 11.8745 18.743 11.9065 18.5524 11.8429L15 10.6588L11.4476 11.8429C11.257 11.9065 11.0475 11.8745 10.8845 11.757C10.7216 11.6396 10.625 11.4509 10.625 11.25V2.5ZM11.875 3.125V10.3829L14.8024 9.40707C14.9306 9.36431 15.0694 9.36431 15.1976 9.40707L18.125 10.3829V3.125H11.875Z" fill="#2D334B"/>
<path fill-rule="evenodd" clip-rule="evenodd" d="M21.25 15.625C18.1434 15.625 15.625 18.1434 15.625 21.25C15.625 24.3566 18.1434 26.875 21.25 26.875C24.3566 26.875 26.875 24.3566 26.875 21.25C26.875 18.1434 24.3566 15.625 21.25 15.625ZM14.375 21.25C14.375 17.453 17.453 14.375 21.25 14.375C25.047 14.375 28.125 17.453 28.125 21.25C28.125 25.047 25.047 28.125 21.25 28.125C17.453 28.125 14.375 25.047 14.375 21.25Z" fill="#2D334B"/>
<path fill-rule="evenodd" clip-rule="evenodd" d="M24.375 21.875H18.125V20.625H24.375V21.875Z" fill="#2D334B"/>
<path fill-rule="evenodd" clip-rule="evenodd" d="M21.875 18.125V24.375H20.625V18.125H21.875Z" fill="#2D334B"/>
</svg>
