<svg width="17" height="18" viewBox="0 0 17 18" fill="none" xmlns="http://www.w3.org/2000/svg">
<g clip-path="url(#clip0_536_17462)">
<path d="M14.6156 1.59049H13.404C13.404 0.922502 12.8604 0.378906 12.1924 0.378906C11.5244 0.378906 10.9808 0.922502 10.9808 1.59049H6.13452C6.13452 0.922502 5.59092 0.378906 4.92293 0.378906C4.25495 0.378906 3.71135 0.922502 3.71135 1.59049H2.49977C1.38633 1.59049 0.480469 2.49635 0.480469 3.60979V15.3217C0.480469 16.4352 1.38633 17.341 2.49977 17.341H14.6156C15.729 17.341 16.6349 16.4352 16.6349 15.3217V3.60979C16.6349 2.49635 15.729 1.59049 14.6156 1.59049ZM11.7886 1.59049C11.7886 1.36796 11.9695 1.18663 12.1924 1.18663C12.4154 1.18663 12.5963 1.36796 12.5963 1.59049V2.39821C12.5963 2.62074 12.4154 2.80207 12.1924 2.80207C11.9695 2.80207 11.7886 2.62074 11.7886 2.39821V1.59049ZM4.51907 1.59049C4.51907 1.36796 4.7 1.18663 4.92293 1.18663C5.14586 1.18663 5.32679 1.36796 5.32679 1.59049V2.39821C5.32679 2.62074 5.14586 2.80207 4.92293 2.80207C4.7 2.80207 4.51907 2.62074 4.51907 2.39821V1.59049ZM1.28819 3.60979C1.28819 2.9418 1.83179 2.39821 2.49977 2.39821H3.71135C3.71135 3.06619 4.25495 3.60979 4.92293 3.60979C5.59092 3.60979 6.13452 3.06619 6.13452 2.39821H10.9808C10.9808 3.06619 11.5244 3.60979 12.1924 3.60979C12.8604 3.60979 13.404 3.06619 13.404 2.39821H14.6156C15.2836 2.39821 15.8272 2.9418 15.8272 3.60979V5.22523H1.28819V3.60979ZM15.8272 15.3217C15.8272 15.9897 15.2836 16.5333 14.6156 16.5333H2.49977C1.83179 16.5333 1.28819 15.9897 1.28819 15.3217V6.03295H15.8272V15.3217Z" fill="white"/>
<path d="M3.71006 10.4755H4.92165C5.3671 10.4755 5.72937 10.1132 5.72937 9.66774V8.45616C5.72937 8.0107 5.3671 7.64844 4.92165 7.64844H3.71006C3.26461 7.64844 2.90234 8.0107 2.90234 8.45616V9.66774C2.90234 10.1132 3.26461 10.4755 3.71006 10.4755ZM3.71006 8.45616H4.92165L4.92245 9.66774H3.71006V8.45616Z" fill="white"/>
<path d="M7.94835 10.4755H9.15993C9.60539 10.4755 9.96765 10.1132 9.96765 9.66774V8.45616C9.96765 8.0107 9.60539 7.64844 9.15993 7.64844H7.94835C7.50289 7.64844 7.14062 8.0107 7.14062 8.45616V9.66774C7.14062 10.1132 7.50289 10.4755 7.94835 10.4755ZM7.94835 8.45616H9.15993L9.16074 9.66774H7.94835V8.45616Z" fill="white"/>
<path d="M12.1905 10.4755H13.4021C13.8476 10.4755 14.2098 10.1132 14.2098 9.66774V8.45616C14.2098 8.0107 13.8476 7.64844 13.4021 7.64844H12.1905C11.7451 7.64844 11.3828 8.0107 11.3828 8.45616V9.66774C11.3828 10.1132 11.7451 10.4755 12.1905 10.4755ZM12.1905 8.45616H13.4021L13.4029 9.66774H12.1905V8.45616Z" fill="white"/>
<path d="M3.71006 14.9178H4.92165C5.3671 14.9178 5.72937 14.5556 5.72937 14.1101V12.8985C5.72937 12.4531 5.3671 12.0908 4.92165 12.0908H3.71006C3.26461 12.0908 2.90234 12.4531 2.90234 12.8985V14.1101C2.90234 14.5556 3.26461 14.9178 3.71006 14.9178ZM3.71006 12.8985H4.92165L4.92245 14.1101H3.71006V12.8985Z" fill="white"/>
<path d="M7.94835 14.9178H9.15993C9.60539 14.9178 9.96765 14.5556 9.96765 14.1101V12.8985C9.96765 12.4531 9.60539 12.0908 9.15993 12.0908H7.94835C7.50289 12.0908 7.14062 12.4531 7.14062 12.8985V14.1101C7.14062 14.5556 7.50289 14.9178 7.94835 14.9178ZM7.94835 12.8985H9.15993L9.16074 14.1101H7.94835V12.8985Z" fill="white"/>
<path d="M12.1905 14.9178H13.4021C13.8476 14.9178 14.2098 14.5556 14.2098 14.1101V12.8985C14.2098 12.4531 13.8476 12.0908 13.4021 12.0908H12.1905C11.7451 12.0908 11.3828 12.4531 11.3828 12.8985V14.1101C11.3828 14.5556 11.7451 14.9178 12.1905 14.9178ZM12.1905 12.8985H13.4021L13.4029 14.1101H12.1905V12.8985Z" fill="white"/>
</g>
<defs>
<clipPath id="clip0_536_17462">
<rect width="17" height="17.5679" fill="white"/>
</clipPath>
</defs>
</svg>
