<svg width="21" height="21" viewBox="0 0 21 21" fill="none" xmlns="http://www.w3.org/2000/svg">
<g clip-path="url(#clip0_848_21238)">
<path d="M19.8346 5.08138C19.4354 4.66313 18.884 4.41598 18.2567 4.41598H15.1008V4.37796C15.1008 3.90267 14.9106 3.4464 14.5875 3.14221C14.2643 2.81902 13.827 2.62891 13.3517 2.62891H7.64829C7.15399 2.62891 6.71673 2.81902 6.39354 3.14221C6.07034 3.46541 5.88023 3.90267 5.88023 4.37796V4.41598H2.74335C2.11597 4.41598 1.56464 4.66313 1.1654 5.08138C0.76616 5.48062 0.5 6.05096 0.5 6.65932V16.127C0.5 16.7544 0.747148 17.3057 1.1654 17.705C1.56464 18.1042 2.13498 18.3704 2.74335 18.3704H18.2567C18.884 18.3704 19.4354 18.1232 19.8346 17.705C20.2338 17.3057 20.5 16.7354 20.5 16.127V6.65932C20.5 6.03195 20.2529 5.48062 19.8346 5.08138ZM19.5114 16.127H19.4924C19.4924 16.4692 19.3593 16.7734 19.1312 17.0015C18.903 17.2297 18.5989 17.3627 18.2567 17.3627H2.74335C2.40114 17.3627 2.09696 17.2297 1.86882 17.0015C1.64068 16.7734 1.5076 16.4692 1.5076 16.127V6.65932C1.5076 6.31712 1.64068 6.01294 1.86882 5.7848C2.09696 5.55666 2.40114 5.42358 2.74335 5.42358H6.41255C6.69772 5.42358 6.92586 5.19545 6.92586 4.91028V4.35894C6.92586 4.14982 7.0019 3.9597 7.13498 3.82662C7.26806 3.69355 7.45818 3.6175 7.6673 3.6175H13.3517C13.5608 3.6175 13.751 3.69355 13.884 3.82662C14.0171 3.9597 14.0932 4.14982 14.0932 4.35894V4.91028C14.0932 5.19545 14.3213 5.42358 14.6065 5.42358H18.2757C18.6179 5.42358 18.9221 5.55666 19.1502 5.7848C19.3783 6.01294 19.5114 6.31712 19.5114 6.65932V16.127Z" fill="black"/>
<path d="M10.501 6.71631C9.20825 6.71631 8.02954 7.24863 7.19304 8.08513C6.33753 8.94064 5.82422 10.1003 5.82422 11.3931C5.82422 12.6859 6.35654 13.8646 7.19304 14.7011C8.04855 15.5566 9.20825 16.0699 10.501 16.0699C11.7938 16.0699 12.9725 15.5376 13.809 14.7011C14.6645 13.8456 15.1778 12.6859 15.1778 11.3931C15.1778 10.1003 14.6455 8.92163 13.809 8.08513C12.9725 7.24863 11.7938 6.71631 10.501 6.71631ZM13.0866 13.9977C12.4212 14.6441 11.5086 15.0623 10.501 15.0623C9.49342 15.0623 8.58087 14.6441 7.91547 13.9977C7.25007 13.3323 6.85084 12.4197 6.85084 11.4121C6.85084 10.4045 7.26909 9.49197 7.91547 8.82657C8.58087 8.16118 9.49342 7.76194 10.501 7.76194C11.5086 7.76194 12.4212 8.18019 13.0866 8.82657C13.752 9.49197 14.1512 10.4045 14.1512 11.4121C14.1702 12.4197 13.752 13.3323 13.0866 13.9977Z" fill="black"/>
<path d="M17.2675 8.56038C17.782 8.56038 18.1991 8.14331 18.1991 7.62882C18.1991 7.11434 17.782 6.69727 17.2675 6.69727C16.753 6.69727 16.3359 7.11434 16.3359 7.62882C16.3359 8.14331 16.753 8.56038 17.2675 8.56038Z" fill="black"/>
</g>
<defs>
<clipPath id="clip0_848_21238">
<rect width="20" height="20" fill="white" transform="translate(0.5 0.5)"/>
</clipPath>
</defs>
</svg>
