<svg width="24" height="24" viewBox="0 0 24 24" fill="none" xmlns="http://www.w3.org/2000/svg">
<path fill-rule="evenodd" clip-rule="evenodd" d="M4.08203 0.5C2.35615 0.5 0.957031 1.89911 0.957031 3.625V20.2917C0.957031 22.0176 2.35615 23.4167 4.08203 23.4167H20.7487C22.4746 23.4167 23.8737 22.0176 23.8737 20.2917V3.625C23.8737 1.89911 22.4746 0.5 20.7487 0.5H4.08203ZM15.5404 7.79167C15.5404 10.0928 13.6748 11.9583 11.3737 11.9583C9.07251 11.9583 7.20703 10.0928 7.20703 7.79167C7.20703 5.49048 9.07251 3.625 11.3737 3.625C13.6748 3.625 15.5404 5.49048 15.5404 7.79167ZM11.5477 13.0021L11.8945 15.0833H12.2417L12.8205 20.2917H4.08203C4.08203 16.2646 7.34663 13 11.3737 13C11.4318 13 11.4898 13.0007 11.5477 13.0021ZM16.4045 12.5833C16.1169 12.5833 15.8837 12.8165 15.8837 13.1042V13.3125H14.0551C13.2577 13.3125 13.2578 14.7708 14.0551 14.7708H20.1507C20.948 14.7708 20.9481 13.3125 20.1507 13.3125H18.322V13.1042C18.322 12.8165 18.0888 12.5833 17.8012 12.5833H16.4045ZM19.7217 15.5H14.4841C14.4011 15.4997 14.3219 15.5438 14.2655 15.6215C14.2091 15.6993 14.1806 15.8038 14.1871 15.9096L14.6537 20.9805C14.6591 21.076 14.6924 21.1655 14.7471 21.2309C14.8019 21.2964 14.8739 21.3329 14.9488 21.3333H19.2568C19.3317 21.3329 19.4037 21.2964 19.4585 21.2309C19.5132 21.1655 19.5466 21.076 19.5519 20.9805L20.0186 15.9096C20.0252 15.8038 19.9966 15.6993 19.9403 15.6215C19.8838 15.5438 19.8047 15.4997 19.7217 15.5Z" fill="#D32A05"/>
</svg>
