<svg width="25" height="27" viewBox="0 0 25 27" fill="none" xmlns="http://www.w3.org/2000/svg">
<path d="M23.1397 6.4278L23.3723 6.19518C23.7507 5.81612 23.9608 5.31164 23.9608 4.77493C23.9608 4.23822 23.7507 3.73374 23.3723 3.35468L21.6908 1.67308C20.9313 0.914963 19.6086 0.914963 18.8491 1.67308L18.6172 1.905L23.1397 6.4278Z" fill="#2D334B"/>
<path d="M21.9224 7.64485L17.3999 3.12207L7.13787 13.3847L9.39878 15.6457C9.73507 15.9821 9.73507 16.5272 9.39878 16.8635C9.23063 17.0316 9.01063 17.1157 8.79064 17.1157C8.57064 17.1157 8.35065 17.0316 8.1825 16.8635L6.78125 15.4622V18.1199C6.78125 18.1992 6.8455 18.2634 6.92474 18.2634H11.1262C11.2403 18.2634 11.3498 18.2181 11.4305 18.1373L21.9224 7.64485Z" fill="#2D334B"/>
<path d="M12.2658 19.7332C12.1047 19.8943 11.8861 19.9854 11.6577 19.9854H5.91819C5.44317 19.9854 5.05783 19.6001 5.05783 19.1243V13.3845C5.05783 13.2734 5.07955 13.1625 5.12229 13.0581C5.16503 12.9536 5.22808 12.8572 5.31005 12.7756L15.3184 2.7666H3.04845C1.94146 2.7666 1.03906 3.66765 1.03906 4.7754V23.4299C1.03906 24.5376 1.94146 25.4387 3.04845 25.4387H21.7018C22.8088 25.4387 23.7112 24.5376 23.7112 23.4299V8.28714L12.2658 19.7332ZM20.2669 19.9861L15.9623 19.9854C15.4873 19.9854 15.102 19.5993 15.102 19.1243C15.102 18.6486 15.4873 18.2632 15.9623 18.2632L20.2669 18.2639C20.742 18.2639 21.1273 18.65 21.1273 19.125C21.1273 19.6008 20.742 19.9861 20.2669 19.9861Z" fill="#2D334B"/>
</svg>
