<svg width="30" height="30" viewBox="0 0 30 30" fill="none" xmlns="http://www.w3.org/2000/svg">
<g clip-path="url(#clip0_534_15060)">
<path d="M29.793 3.84802C29.7938 3.08622 29.5686 2.34129 29.1458 1.7076C28.723 1.07391 28.1216 0.579961 27.4178 0.288315C26.7141 -0.0033316 25.9396 -0.0795519 25.1925 0.0693078C24.4453 0.218168 23.7592 0.58541 23.221 1.12452L5.17293 19.1723C5.05392 19.2913 4.96914 19.4402 4.92748 19.6033L3.42871 25.4736C3.38745 25.6352 3.39004 25.8049 3.43624 25.9651C3.48243 26.1254 3.57054 26.2705 3.69149 26.3853C3.81244 26.5002 3.96184 26.5807 4.12428 26.6185C4.28672 26.6564 4.45632 26.6502 4.61559 26.6007L10.2361 24.8521C10.3811 24.8069 10.513 24.7272 10.6204 24.6198L28.6685 6.57181C29.0267 6.21469 29.3105 5.79008 29.5036 5.32254C29.6966 4.855 29.7949 4.35383 29.793 3.84802ZM9.45818 23.1304L5.66049 24.3119L6.68061 20.3163L22.4746 4.5222L25.2706 7.31788L9.45818 23.1304ZM27.3427 5.246L26.5964 5.99225L23.8005 3.19634L24.5468 2.45009C24.9175 2.07932 25.4204 1.87103 25.9447 1.87103C26.4691 1.87103 26.9719 2.07932 27.3427 2.45009C27.7135 2.82085 27.9217 3.32371 27.9217 3.84805C27.9217 4.37238 27.7135 4.87524 27.3427 5.246ZM20.4694 29.9995H1.14062C0.891985 29.9995 0.653528 29.9007 0.477712 29.7249C0.301897 29.5491 0.203125 29.3107 0.203125 29.062C0.203125 28.8134 0.301897 28.5749 0.477712 28.3991C0.653528 28.2233 0.891985 28.1245 1.14062 28.1245H20.4694C20.718 28.1245 20.9565 28.2233 21.1323 28.3991C21.3081 28.5749 21.4069 28.8134 21.4069 29.062C21.4069 29.3107 21.3081 29.5491 21.1323 29.7249C20.9565 29.9007 20.718 29.9995 20.4694 29.9995Z" fill="#898282"/>
</g>
<defs>
<clipPath id="clip0_534_15060">
<rect width="30" height="30" fill="white"/>
</clipPath>
</defs>
</svg>
