<svg width="20" height="20" viewBox="0 0 20 20" fill="none" xmlns="http://www.w3.org/2000/svg">
<g clip-path="url(#clip0_848_21271)">
<path d="M9.9982 0.384766C4.68297 0.384766 0.382812 4.69934 0.382812 10.0001C0.382812 15.2887 4.66743 19.6155 9.9982 19.6155C15.3116 19.6155 19.6136 15.3023 19.6136 10.0001C19.6136 4.70277 15.316 0.384766 9.9982 0.384766ZM16.7881 15.6698C16.0355 15.283 15.1825 14.9808 14.3537 14.7656C14.7421 13.4404 14.9628 11.945 14.994 10.3848H18.836C18.752 12.3251 18.0342 14.179 16.7881 15.6698ZM3.20827 15.6698C1.9622 14.179 1.24439 12.3251 1.16039 10.3848H5.00235C5.03358 11.945 5.25431 13.4404 5.6427 14.7656C4.81304 14.9813 3.97443 15.2776 3.20827 15.6698ZM3.20827 4.33046C3.9732 4.72234 4.81427 5.019 5.6427 5.23465C5.25431 6.55992 5.03358 8.05523 5.00235 9.61553H1.16039C1.24439 7.67511 1.9622 5.82127 3.20827 4.33046ZM14.116 4.50284C13.7265 3.41715 13.1469 2.2833 12.336 1.4698C13.8037 1.87296 15.1557 2.65103 16.2475 3.74007C15.5802 4.06215 14.8147 4.32815 14.116 4.50284ZM10.3828 4.99569V1.19196C11.322 1.376 12.2105 2.2305 12.9177 3.64503C13.0795 3.96857 13.2272 4.31296 13.3606 4.67496C12.3803 4.87169 11.3746 4.97469 10.3828 4.99569ZM9.61358 4.99569C8.61339 4.97453 7.60497 4.86984 6.63577 4.67496C6.76912 4.31292 6.91689 3.96853 7.07862 3.64503C7.78589 2.2305 8.67435 1.37596 9.61358 1.19196V4.99569ZM9.61358 5.76507V9.61553H5.7717C5.80289 8.1105 6.01685 6.67388 6.39231 5.40938C7.38858 5.61557 8.4787 5.742 9.61358 5.76507ZM9.61358 10.3848V14.2352C8.5417 14.257 7.43785 14.3736 6.39235 14.5909C6.01685 13.3264 5.80289 11.8898 5.7717 10.3848H9.61358ZM9.61358 15.0046V18.8083C8.67435 18.6243 7.78589 17.7698 7.07862 16.3553C6.91685 16.0317 6.76912 15.6873 6.63577 15.3253C7.56762 15.1372 8.58166 15.0265 9.61358 15.0046ZM10.3828 15.0046C11.4124 15.0264 12.4223 15.1363 13.3606 15.3253C13.2272 15.6873 13.0795 16.0317 12.9177 16.3553C12.2105 17.7698 11.322 18.6243 10.3828 18.8083V15.0046ZM10.3828 14.2352V10.3848H14.2247C14.1935 11.8898 13.9796 13.3264 13.604 14.5909C12.6137 14.3852 11.5162 14.2583 10.3828 14.2352ZM10.3828 9.61553V5.76507C11.5305 5.74173 12.6164 5.6135 13.6041 5.40938C13.9796 6.67384 14.1935 8.1105 14.2247 9.61553H10.3828ZM5.88043 4.50284C5.15927 4.32073 4.41654 4.0628 3.74885 3.74007C4.84066 2.65103 6.19266 1.87296 7.66043 1.4698C6.84827 2.2845 6.26893 3.4198 5.88043 4.50284ZM5.88043 15.4975C6.26877 16.5802 6.8482 17.7158 7.66043 18.5305C6.19266 18.1273 4.84066 17.3492 3.74885 16.2602C4.41754 15.9368 5.16062 15.6801 5.88043 15.4975ZM14.1159 15.4975C14.8052 15.6697 15.5805 15.9374 16.2475 16.2602C15.1557 17.3492 13.8037 18.1273 12.336 18.5305C13.1482 17.7157 13.7277 16.5801 14.1159 15.4975ZM14.994 9.61553C14.9628 8.05523 14.7421 6.55992 14.3537 5.23465C15.1964 5.0158 16.0404 4.71392 16.7881 4.3305C18.0342 5.82127 18.752 7.67515 18.836 9.61557H14.994V9.61553Z" fill="#2D334B"/>
</g>
<defs>
<clipPath id="clip0_848_21271">
<rect width="20" height="20" fill="white"/>
</clipPath>
</defs>
</svg>
