<svg width="125" height="20" viewBox="0 0 125 20" fill="none" xmlns="http://www.w3.org/2000/svg">
<path d="M0 0H125L114.5 10L125 20H0V0Z" fill="#EF5660"/>
<path d="M18.877 6.355V14H17.623V8.764L15.291 14H14.422L12.079 8.764V14H10.825V6.355H12.178L14.862 12.35L17.535 6.355H18.877ZM24.0122 14.077C23.3009 14.077 22.6445 13.912 22.0432 13.582C21.4492 13.2447 20.9762 12.779 20.6242 12.185C20.2795 11.5837 20.1072 10.909 20.1072 10.161C20.1072 9.413 20.2795 8.742 20.6242 8.148C20.9762 7.554 21.4492 7.092 22.0432 6.762C22.6445 6.42467 23.3009 6.256 24.0122 6.256C24.7309 6.256 25.3872 6.42467 25.9812 6.762C26.5825 7.092 27.0555 7.554 27.4002 8.148C27.7449 8.742 27.9172 9.413 27.9172 10.161C27.9172 10.909 27.7449 11.5837 27.4002 12.185C27.0555 12.779 26.5825 13.2447 25.9812 13.582C25.3872 13.912 24.7309 14.077 24.0122 14.077ZM24.0122 12.988C24.5182 12.988 24.9692 12.8743 25.3652 12.647C25.7612 12.4123 26.0692 12.0823 26.2892 11.657C26.5165 11.2243 26.6302 10.7257 26.6302 10.161C26.6302 9.59633 26.5165 9.10133 26.2892 8.676C26.0692 8.25067 25.7612 7.92433 25.3652 7.697C24.9692 7.46967 24.5182 7.356 24.0122 7.356C23.5062 7.356 23.0552 7.46967 22.6592 7.697C22.2632 7.92433 21.9515 8.25067 21.7242 8.676C21.5042 9.10133 21.3942 9.59633 21.3942 10.161C21.3942 10.7257 21.5042 11.2243 21.7242 11.657C21.9515 12.0823 22.2632 12.4123 22.6592 12.647C23.0552 12.8743 23.5062 12.988 24.0122 12.988ZM31.6702 14.077C31.1568 14.077 30.6948 13.989 30.2842 13.813C29.8735 13.6297 29.5508 13.373 29.3162 13.043C29.0815 12.713 28.9642 12.328 28.9642 11.888H30.3062C30.3355 12.218 30.4638 12.4893 30.6912 12.702C30.9258 12.9147 31.2522 13.021 31.6702 13.021C32.1028 13.021 32.4402 12.9183 32.6822 12.713C32.9242 12.5003 33.0452 12.229 33.0452 11.899C33.0452 11.6423 32.9682 11.4333 32.8142 11.272C32.6675 11.1107 32.4805 10.986 32.2532 10.898C32.0332 10.81 31.7252 10.7147 31.3292 10.612C30.8305 10.48 30.4235 10.348 30.1082 10.216C29.8002 10.0767 29.5362 9.864 29.3162 9.578C29.0962 9.292 28.9862 8.91067 28.9862 8.434C28.9862 7.994 29.0962 7.609 29.3162 7.279C29.5362 6.949 29.8442 6.696 30.2402 6.52C30.6362 6.344 31.0945 6.256 31.6152 6.256C32.3558 6.256 32.9608 6.443 33.4302 6.817C33.9068 7.18367 34.1708 7.68967 34.2222 8.335H32.8362C32.8142 8.05633 32.6822 7.818 32.4402 7.62C32.1982 7.422 31.8792 7.323 31.4832 7.323C31.1238 7.323 30.8305 7.41467 30.6032 7.598C30.3758 7.78133 30.2622 8.04533 30.2622 8.39C30.2622 8.62467 30.3318 8.819 30.4712 8.973C30.6178 9.11967 30.8012 9.237 31.0212 9.325C31.2412 9.413 31.5418 9.50833 31.9232 9.611C32.4292 9.75033 32.8398 9.88967 33.1552 10.029C33.4778 10.1683 33.7492 10.3847 33.9692 10.678C34.1965 10.964 34.3102 11.349 34.3102 11.833C34.3102 12.2217 34.2038 12.5883 33.9912 12.933C33.7858 13.2777 33.4815 13.5563 33.0782 13.769C32.6822 13.9743 32.2128 14.077 31.6702 14.077ZM40.7288 6.355V7.378H38.6938V14H37.4398V7.378H35.3938V6.355H40.7288ZM50.2023 8.632C50.2023 9.02067 50.1106 9.38733 49.9273 9.732C49.7439 10.0767 49.4506 10.359 49.0473 10.579C48.6439 10.7917 48.1269 10.898 47.4963 10.898H46.1103V14H44.8563V6.355H47.4963C48.0829 6.355 48.5779 6.45767 48.9813 6.663C49.3919 6.861 49.6963 7.13233 49.8943 7.477C50.0996 7.82167 50.2023 8.20667 50.2023 8.632ZM47.4963 9.875C47.9729 9.875 48.3286 9.76867 48.5633 9.556C48.7979 9.336 48.9153 9.028 48.9153 8.632C48.9153 7.796 48.4423 7.378 47.4963 7.378H46.1103V9.875H47.4963ZM54.8852 14.077C54.1739 14.077 53.5176 13.912 52.9162 13.582C52.3222 13.2447 51.8492 12.779 51.4972 12.185C51.1526 11.5837 50.9802 10.909 50.9802 10.161C50.9802 9.413 51.1526 8.742 51.4972 8.148C51.8492 7.554 52.3222 7.092 52.9162 6.762C53.5176 6.42467 54.1739 6.256 54.8852 6.256C55.6039 6.256 56.2602 6.42467 56.8542 6.762C57.4556 7.092 57.9286 7.554 58.2732 8.148C58.6179 8.742 58.7902 9.413 58.7902 10.161C58.7902 10.909 58.6179 11.5837 58.2732 12.185C57.9286 12.779 57.4556 13.2447 56.8542 13.582C56.2602 13.912 55.6039 14.077 54.8852 14.077ZM54.8852 12.988C55.3912 12.988 55.8422 12.8743 56.2382 12.647C56.6342 12.4123 56.9422 12.0823 57.1622 11.657C57.3896 11.2243 57.5032 10.7257 57.5032 10.161C57.5032 9.59633 57.3896 9.10133 57.1622 8.676C56.9422 8.25067 56.6342 7.92433 56.2382 7.697C55.8422 7.46967 55.3912 7.356 54.8852 7.356C54.3792 7.356 53.9282 7.46967 53.5322 7.697C53.1362 7.92433 52.8246 8.25067 52.5972 8.676C52.3772 9.10133 52.2672 9.59633 52.2672 10.161C52.2672 10.7257 52.3772 11.2243 52.5972 11.657C52.8246 12.0823 53.1362 12.4123 53.5322 12.647C53.9282 12.8743 54.3792 12.988 54.8852 12.988ZM65.3702 8.632C65.3702 9.02067 65.2786 9.38733 65.0952 9.732C64.9119 10.0767 64.6186 10.359 64.2152 10.579C63.8119 10.7917 63.2949 10.898 62.6642 10.898H61.2782V14H60.0242V6.355H62.6642C63.2509 6.355 63.7459 6.45767 64.1492 6.663C64.5599 6.861 64.8642 7.13233 65.0622 7.477C65.2676 7.82167 65.3702 8.20667 65.3702 8.632ZM62.6642 9.875C63.1409 9.875 63.4966 9.76867 63.7312 9.556C63.9659 9.336 64.0832 9.028 64.0832 8.632C64.0832 7.796 63.6102 7.378 62.6642 7.378H61.2782V9.875H62.6642ZM67.8092 6.355V11.228C67.8092 11.8073 67.9595 12.2437 68.2602 12.537C68.5682 12.8303 68.9935 12.977 69.5362 12.977C70.0862 12.977 70.5115 12.8303 70.8122 12.537C71.1202 12.2437 71.2742 11.8073 71.2742 11.228V6.355H72.5282V11.206C72.5282 11.8293 72.3925 12.3573 72.1212 12.79C71.8499 13.2227 71.4869 13.5453 71.0322 13.758C70.5775 13.9707 70.0752 14.077 69.5252 14.077C68.9752 14.077 68.4729 13.9707 68.0182 13.758C67.5709 13.5453 67.2152 13.2227 66.9512 12.79C66.6872 12.3573 66.5552 11.8293 66.5552 11.206V6.355H67.8092ZM75.4149 12.988H77.9999V14H74.1609V6.355H75.4149V12.988ZM83.6576 12.438H80.4566L79.9066 14H78.5976L81.3366 6.344H82.7886L85.5276 14H84.2076L83.6576 12.438ZM83.3056 11.415L82.0626 7.862L80.8086 11.415H83.3056ZM90.6896 14L88.9296 10.942H87.9726V14H86.7186V6.355H89.3586C89.9452 6.355 90.4402 6.45767 90.8436 6.663C91.2542 6.86833 91.5586 7.14333 91.7566 7.488C91.9619 7.83267 92.0646 8.21767 92.0646 8.643C92.0646 9.14167 91.9179 9.59633 91.6246 10.007C91.3386 10.4103 90.8949 10.6853 90.2936 10.832L92.1856 14H90.6896ZM87.9726 9.941H89.3586C89.8279 9.941 90.1799 9.82367 90.4146 9.589C90.6566 9.35433 90.7776 9.039 90.7776 8.643C90.7776 8.247 90.6602 7.939 90.4256 7.719C90.1909 7.49167 89.8352 7.378 89.3586 7.378H87.9726V9.941Z" fill="white"/>
</svg>
