<svg width="21" height="21" viewBox="0 0 21 21" fill="none" xmlns="http://www.w3.org/2000/svg">
<g clip-path="url(#clip0_848_21264)">
<path d="M10.0125 20.2391C10.1211 20.4021 10.3041 20.5 10.5 20.5C10.6959 20.5 10.8789 20.4021 10.9875 20.2391C12.3742 18.1591 14.4167 15.5903 15.84 12.9778C16.978 10.8889 17.5312 9.10727 17.5312 7.53125C17.5312 3.65422 14.377 0.5 10.5 0.5C6.62297 0.5 3.46875 3.65422 3.46875 7.53125C3.46875 9.10727 4.02199 10.8889 5.16004 12.9778C6.58227 15.5883 8.62863 18.1634 10.0125 20.2391ZM10.5 1.67188C13.7309 1.67188 16.3594 4.30039 16.3594 7.53125C16.3594 8.90641 15.8529 10.5046 14.8109 12.4171C13.5841 14.6691 11.8334 16.9534 10.5 18.8738C9.16684 16.9537 7.41602 14.6692 6.1891 12.4171C5.14715 10.5046 4.64062 8.90641 4.64062 7.53125C4.64062 4.30039 7.26914 1.67188 10.5 1.67188Z" fill="#2D334B"/>
<path d="M10.5 11.0469C12.4385 11.0469 14.0156 9.46977 14.0156 7.53125C14.0156 5.59273 12.4385 4.01562 10.5 4.01562C8.56148 4.01562 6.98438 5.59273 6.98438 7.53125C6.98438 9.46977 8.56148 11.0469 10.5 11.0469ZM10.5 5.1875C11.7923 5.1875 12.8438 6.23891 12.8438 7.53125C12.8438 8.82359 11.7923 9.875 10.5 9.875C9.20766 9.875 8.15625 8.82359 8.15625 7.53125C8.15625 6.23891 9.20766 5.1875 10.5 5.1875Z" fill="#2D334B"/>
</g>
<defs>
<clipPath id="clip0_848_21264">
<rect width="20" height="20" fill="white" transform="translate(0.5 0.5)"/>
</clipPath>
</defs>
</svg>
