<svg width="20" height="20" viewBox="0 0 20 20" fill="none" xmlns="http://www.w3.org/2000/svg">
<path d="M10.0003 19C9.00031 19 8.18031 18.2 8.16031 17.2H3.50031C2.86031 17.2 2.32031 16.68 2.32031 16.02V15.52C2.32031 14.88 2.84031 14.34 3.50031 14.34H4.06031V8.52C4.06031 5.7 6.00031 3.3 8.74031 2.72V2.24C8.76031 1.56 9.32031 1 10.0003 1C10.6803 1 11.2603 1.56 11.2603 2.26V2.74C13.9803 3.32 15.9403 5.7 15.9403 8.54V14.36H16.5003C17.1403 14.36 17.6803 14.88 17.6803 15.54V16.04C17.6803 16.68 17.1603 17.22 16.5003 17.22H11.8403C11.8203 18.2 11.0003 19 10.0003 19ZM8.96031 17.2C8.98031 17.76 9.44031 18.2 10.0003 18.2C10.5603 18.2 11.0203 17.76 11.0403 17.2H8.96031ZM11.4003 16.4H16.4803C16.6803 16.4 16.8603 16.24 16.8603 16.02V15.52C16.8603 15.32 16.7003 15.14 16.4803 15.14H3.50031C3.30031 15.14 3.12031 15.3 3.12031 15.52V16.02C3.12031 16.22 3.28031 16.4 3.50031 16.4H11.4003ZM4.88031 14.36H15.1403V8.52C15.1403 6.02 13.2803 3.84 10.8003 3.46C10.2803 3.38 9.74031 3.38 9.22031 3.46C6.74031 3.84 4.88031 6.02 4.88031 8.52V14.36ZM10.0003 2.6C10.1603 2.6 10.3003 2.6 10.4603 2.62V2.26C10.4603 2.02 10.2603 1.8 10.0003 1.8C9.74031 1.8 9.54031 2 9.54031 2.26V2.62C9.68031 2.6 9.82031 2.6 9.96031 2.6H10.0003Z" fill="black"/>
</svg>
