<svg width="732" height="185" viewBox="0 0 732 185" fill="none" xmlns="http://www.w3.org/2000/svg">
<rect x="0.25" y="0.25" width="731.5" height="184.5" rx="7.75" fill="#F8F8F8" stroke="#D9D9D9" stroke-width="0.5"/>
<circle cx="366" cy="58" r="25" fill="#4A5069" fill-opacity="0.25"/>
<path d="M361.21 54.667C361.21 55.1202 361.344 55.5633 361.596 55.9402C361.848 56.317 362.206 56.6108 362.624 56.7842C363.043 56.9577 363.504 57.0031 363.948 56.9146C364.393 56.8262 364.801 56.6079 365.122 56.2874C365.442 55.967 365.661 55.5586 365.749 55.1141C365.837 54.6695 365.792 54.2088 365.619 53.79C365.445 53.3713 365.151 53.0134 364.774 52.7615C364.398 52.5097 363.955 52.3753 363.501 52.3753C362.894 52.3758 362.311 52.6174 361.881 53.047C361.452 53.4767 361.21 54.0593 361.21 54.667ZM364.543 54.667C364.543 54.873 364.482 55.0744 364.367 55.2457C364.253 55.417 364.09 55.5505 363.9 55.6294C363.71 55.7082 363.5 55.7288 363.298 55.6886C363.096 55.6485 362.91 55.5492 362.765 55.4036C362.619 55.2579 362.52 55.0723 362.48 54.8702C362.439 54.6681 362.46 54.4587 362.539 54.2684C362.618 54.078 362.751 53.9153 362.923 53.8009C363.094 53.6864 363.295 53.6253 363.501 53.6253C363.777 53.6258 364.042 53.7357 364.237 53.9309C364.433 54.1262 364.543 54.3909 364.543 54.667ZM374.335 55.7087C374.169 55.7087 374.01 55.7745 373.893 55.8917C373.775 56.0089 373.71 56.1679 373.71 56.3337V58.2228L373.384 57.9437C372.939 57.5748 372.379 57.3729 371.8 57.3729C371.222 57.3729 370.662 57.5748 370.217 57.9437L366.751 60.917C366.533 61.0909 366.262 61.1857 365.983 61.1857C365.703 61.1857 365.432 61.0909 365.214 60.917L364.937 60.6795C364.527 60.3397 364.018 60.1407 363.486 60.1117C362.954 60.0828 362.426 60.2254 361.981 60.5187L358.542 62.827C358.362 62.065 358.278 61.2833 358.293 60.5003V55.5003C358.293 51.6553 359.656 50.292 363.501 50.292H366.835C367 50.292 367.159 50.2261 367.277 50.1089C367.394 49.9917 367.46 49.8328 367.46 49.667C367.46 49.5012 367.394 49.3423 367.277 49.2251C367.159 49.1078 367 49.042 366.835 49.042H363.501C358.975 49.042 357.043 50.9728 357.043 55.5003V60.5003C357.043 65.0278 358.975 66.9587 363.501 66.9587H368.501C373.028 66.9587 374.96 65.0278 374.96 60.5003V56.3337C374.96 56.1679 374.894 56.0089 374.777 55.8917C374.659 55.7745 374.5 55.7087 374.335 55.7087ZM373.71 60.5003C373.71 64.3453 372.346 65.7087 368.501 65.7087H363.501C361.204 65.7087 359.798 65.2162 359.034 64.0045L362.677 61.5595C362.896 61.4197 363.152 61.3514 363.411 61.3639C363.67 61.3765 363.919 61.4693 364.123 61.6295L364.4 61.8678C364.844 62.2374 365.405 62.4398 365.983 62.4398C366.561 62.4398 367.121 62.2374 367.566 61.8678L371.035 58.892C371.253 58.7188 371.524 58.6246 371.803 58.6246C372.082 58.6246 372.353 58.7188 372.571 58.892L373.711 59.8703L373.71 60.5003ZM368.501 52.167C368.501 52.0012 368.567 51.8423 368.684 51.7251C368.802 51.6078 368.961 51.542 369.126 51.542H370.793V49.8753C370.793 49.7096 370.859 49.5506 370.976 49.4334C371.093 49.3162 371.252 49.2503 371.418 49.2503C371.584 49.2503 371.743 49.3162 371.86 49.4334C371.977 49.5506 372.043 49.7096 372.043 49.8753V51.542H373.71C373.875 51.542 374.034 51.6078 374.152 51.7251C374.269 51.8423 374.335 52.0012 374.335 52.167C374.335 52.3328 374.269 52.4917 374.152 52.6089C374.034 52.7261 373.875 52.792 373.71 52.792H372.043V54.4587C372.043 54.6244 371.977 54.7834 371.86 54.9006C371.743 55.0178 371.584 55.0837 371.418 55.0837C371.252 55.0837 371.093 55.0178 370.976 54.9006C370.859 54.7834 370.793 54.6244 370.793 54.4587V52.792H369.126C368.961 52.792 368.802 52.7261 368.684 52.6089C368.567 52.4917 368.501 52.3328 368.501 52.167Z" fill="#2D334B"/>
<path d="M310.607 114H309.257C309.101 114 308.975 113.961 308.879 113.883C308.783 113.805 308.711 113.706 308.663 113.586L307.457 110.472H301.67L300.464 113.586C300.422 113.694 300.35 113.79 300.248 113.874C300.146 113.958 300.02 114 299.87 114H298.52L303.677 101.103H305.45L310.607 114ZM302.156 109.212H306.971L304.946 103.965C304.814 103.641 304.685 103.236 304.559 102.75C304.493 102.996 304.427 103.224 304.361 103.434C304.301 103.638 304.241 103.818 304.181 103.974L302.156 109.212ZM318.395 114C318.167 114 318.023 113.889 317.963 113.667L317.819 112.56C317.429 113.034 316.982 113.415 316.478 113.703C315.98 113.985 315.407 114.126 314.759 114.126C314.237 114.126 313.763 114.027 313.337 113.829C312.911 113.625 312.548 113.328 312.248 112.938C311.948 112.548 311.717 112.062 311.555 111.48C311.393 110.898 311.312 110.229 311.312 109.473C311.312 108.801 311.402 108.177 311.582 107.601C311.762 107.019 312.02 106.515 312.356 106.089C312.698 105.663 313.112 105.33 313.598 105.09C314.084 104.844 314.636 104.721 315.254 104.721C315.812 104.721 316.289 104.817 316.685 105.009C317.081 105.195 317.435 105.459 317.747 105.801V100.743H319.349V114H318.395ZM315.29 112.83C315.812 112.83 316.268 112.71 316.658 112.47C317.054 112.23 317.417 111.891 317.747 111.453V107.043C317.453 106.647 317.129 106.371 316.775 106.215C316.427 106.053 316.04 105.972 315.614 105.972C314.762 105.972 314.108 106.275 313.652 106.881C313.196 107.487 312.968 108.351 312.968 109.473C312.968 110.067 313.019 110.577 313.121 111.003C313.223 111.423 313.373 111.771 313.571 112.047C313.769 112.317 314.012 112.515 314.3 112.641C314.588 112.767 314.918 112.83 315.29 112.83ZM328.45 114C328.222 114 328.078 113.889 328.018 113.667L327.874 112.56C327.484 113.034 327.037 113.415 326.533 113.703C326.035 113.985 325.462 114.126 324.814 114.126C324.292 114.126 323.818 114.027 323.392 113.829C322.966 113.625 322.603 113.328 322.303 112.938C322.003 112.548 321.772 112.062 321.61 111.48C321.448 110.898 321.367 110.229 321.367 109.473C321.367 108.801 321.457 108.177 321.637 107.601C321.817 107.019 322.075 106.515 322.411 106.089C322.753 105.663 323.167 105.33 323.653 105.09C324.139 104.844 324.691 104.721 325.309 104.721C325.867 104.721 326.344 104.817 326.74 105.009C327.136 105.195 327.49 105.459 327.802 105.801V100.743H329.404V114H328.45ZM325.345 112.83C325.867 112.83 326.323 112.71 326.713 112.47C327.109 112.23 327.472 111.891 327.802 111.453V107.043C327.508 106.647 327.184 106.371 326.83 106.215C326.482 106.053 326.095 105.972 325.669 105.972C324.817 105.972 324.163 106.275 323.707 106.881C323.251 107.487 323.023 108.351 323.023 109.473C323.023 110.067 323.074 110.577 323.176 111.003C323.278 111.423 323.428 111.771 323.626 112.047C323.824 112.317 324.067 112.515 324.355 112.641C324.643 112.767 324.973 112.83 325.345 112.83ZM344.91 111.336C345.006 111.336 345.093 111.375 345.171 111.453L345.855 112.2C345.327 112.812 344.685 113.289 343.929 113.631C343.179 113.973 342.273 114.144 341.211 114.144C340.281 114.144 339.438 113.985 338.682 113.667C337.926 113.343 337.281 112.893 336.747 112.317C336.213 111.735 335.799 111.039 335.505 110.229C335.211 109.419 335.064 108.528 335.064 107.556C335.064 106.584 335.22 105.693 335.532 104.883C335.85 104.073 336.294 103.377 336.864 102.795C337.434 102.213 338.115 101.763 338.907 101.445C339.705 101.121 340.584 100.959 341.544 100.959C342.492 100.959 343.308 101.106 343.992 101.4C344.682 101.694 345.294 102.093 345.828 102.597L345.261 103.398C345.219 103.458 345.171 103.509 345.117 103.551C345.063 103.587 344.985 103.605 344.883 103.605C344.805 103.605 344.721 103.578 344.631 103.524C344.547 103.464 344.445 103.392 344.325 103.308C344.205 103.224 344.064 103.134 343.902 103.038C343.74 102.942 343.548 102.852 343.326 102.768C343.104 102.684 342.846 102.615 342.552 102.561C342.258 102.501 341.919 102.471 341.535 102.471C340.845 102.471 340.212 102.591 339.636 102.831C339.066 103.065 338.574 103.401 338.16 103.839C337.746 104.277 337.422 104.811 337.188 105.441C336.96 106.071 336.846 106.776 336.846 107.556C336.846 108.36 336.96 109.077 337.188 109.707C337.422 110.337 337.737 110.871 338.133 111.309C338.535 111.741 339.009 112.071 339.555 112.299C340.101 112.527 340.689 112.641 341.319 112.641C341.703 112.641 342.048 112.62 342.354 112.578C342.66 112.53 342.942 112.458 343.2 112.362C343.464 112.266 343.707 112.146 343.929 112.002C344.157 111.852 344.385 111.675 344.613 111.471C344.715 111.381 344.814 111.336 344.91 111.336ZM351.58 104.739C352.246 104.739 352.846 104.85 353.38 105.072C353.92 105.294 354.376 105.609 354.748 106.017C355.126 106.425 355.414 106.92 355.612 107.502C355.816 108.078 355.918 108.723 355.918 109.437C355.918 110.157 355.816 110.805 355.612 111.381C355.414 111.957 355.126 112.449 354.748 112.857C354.376 113.265 353.92 113.58 353.38 113.802C352.846 114.018 352.246 114.126 351.58 114.126C350.914 114.126 350.311 114.018 349.771 113.802C349.237 113.58 348.781 113.265 348.403 112.857C348.025 112.449 347.734 111.957 347.53 111.381C347.326 110.805 347.224 110.157 347.224 109.437C347.224 108.723 347.326 108.078 347.53 107.502C347.734 106.92 348.025 106.425 348.403 106.017C348.781 105.609 349.237 105.294 349.771 105.072C350.311 104.85 350.914 104.739 351.58 104.739ZM351.58 112.875C352.48 112.875 353.152 112.575 353.596 111.975C354.04 111.369 354.262 110.526 354.262 109.446C354.262 108.36 354.04 107.514 353.596 106.908C353.152 106.302 352.48 105.999 351.58 105.999C351.124 105.999 350.728 106.077 350.392 106.233C350.056 106.389 349.774 106.614 349.546 106.908C349.324 107.202 349.156 107.565 349.042 107.997C348.934 108.423 348.88 108.906 348.88 109.446C348.88 109.986 348.934 110.469 349.042 110.895C349.156 111.321 349.324 111.681 349.546 111.975C349.774 112.263 350.056 112.485 350.392 112.641C350.728 112.797 351.124 112.875 351.58 112.875ZM356.512 104.883H357.826C357.952 104.883 358.057 104.916 358.141 104.982C358.225 105.048 358.285 105.126 358.321 105.216L360.634 111.084C360.718 111.3 360.784 111.516 360.832 111.732C360.88 111.948 360.925 112.161 360.967 112.371C361.015 112.161 361.066 111.948 361.12 111.732C361.174 111.516 361.243 111.3 361.327 111.084L363.667 105.216C363.703 105.12 363.76 105.042 363.838 104.982C363.922 104.916 364.024 104.883 364.144 104.883H365.395L361.678 114H360.229L356.512 104.883ZM370.255 104.739C370.801 104.739 371.305 104.832 371.767 105.018C372.229 105.198 372.628 105.462 372.964 105.81C373.3 106.152 373.561 106.578 373.747 107.088C373.939 107.592 374.035 108.168 374.035 108.816C374.035 109.068 374.008 109.236 373.954 109.32C373.9 109.404 373.798 109.446 373.648 109.446H367.582C367.594 110.022 367.672 110.523 367.816 110.949C367.96 111.375 368.158 111.732 368.41 112.02C368.662 112.302 368.962 112.515 369.31 112.659C369.658 112.797 370.048 112.866 370.48 112.866C370.882 112.866 371.227 112.821 371.515 112.731C371.809 112.635 372.061 112.533 372.271 112.425C372.481 112.317 372.655 112.218 372.793 112.128C372.937 112.032 373.06 111.984 373.162 111.984C373.294 111.984 373.396 112.035 373.468 112.137L373.918 112.722C373.72 112.962 373.483 113.172 373.207 113.352C372.931 113.526 372.634 113.67 372.316 113.784C372.004 113.898 371.68 113.982 371.344 114.036C371.008 114.096 370.675 114.126 370.345 114.126C369.715 114.126 369.133 114.021 368.599 113.811C368.071 113.595 367.612 113.283 367.222 112.875C366.838 112.461 366.538 111.951 366.322 111.345C366.106 110.739 365.998 110.043 365.998 109.257C365.998 108.621 366.094 108.027 366.286 107.475C366.484 106.923 366.766 106.446 367.132 106.044C367.498 105.636 367.945 105.318 368.473 105.09C369.001 104.856 369.595 104.739 370.255 104.739ZM370.291 105.918C369.517 105.918 368.908 106.143 368.464 106.593C368.02 107.037 367.744 107.655 367.636 108.447H372.595C372.595 108.075 372.544 107.736 372.442 107.43C372.34 107.118 372.19 106.851 371.992 106.629C371.794 106.401 371.551 106.227 371.263 106.107C370.981 105.981 370.657 105.918 370.291 105.918ZM376.085 114V104.883H377.003C377.177 104.883 377.297 104.916 377.363 104.982C377.429 105.048 377.474 105.162 377.498 105.324L377.606 106.746C377.918 106.11 378.302 105.615 378.758 105.261C379.22 104.901 379.76 104.721 380.378 104.721C380.63 104.721 380.858 104.751 381.062 104.811C381.266 104.865 381.455 104.943 381.629 105.045L381.422 106.242C381.38 106.392 381.287 106.467 381.143 106.467C381.059 106.467 380.93 106.44 380.756 106.386C380.582 106.326 380.339 106.296 380.027 106.296C379.469 106.296 379.001 106.458 378.623 106.782C378.251 107.106 377.939 107.577 377.687 108.195V114H376.085ZM389.148 114H387.402V101.103H389.148V114ZM392.345 114V104.883H393.299C393.527 104.883 393.671 104.994 393.731 105.216L393.848 106.152C394.184 105.738 394.559 105.399 394.973 105.135C395.393 104.871 395.879 104.739 396.431 104.739C397.049 104.739 397.547 104.91 397.925 105.252C398.309 105.594 398.585 106.056 398.753 106.638C398.879 106.308 399.044 106.023 399.248 105.783C399.458 105.543 399.692 105.345 399.95 105.189C400.208 105.033 400.481 104.919 400.769 104.847C401.063 104.775 401.36 104.739 401.66 104.739C402.14 104.739 402.566 104.817 402.938 104.973C403.316 105.123 403.634 105.345 403.892 105.639C404.156 105.933 404.357 106.296 404.495 106.728C404.633 107.154 404.702 107.643 404.702 108.195V114H403.1V108.195C403.1 107.481 402.944 106.941 402.632 106.575C402.32 106.203 401.867 106.017 401.273 106.017C401.009 106.017 400.757 106.065 400.517 106.161C400.283 106.251 400.076 106.386 399.896 106.566C399.716 106.746 399.572 106.974 399.464 107.25C399.362 107.52 399.311 107.835 399.311 108.195V114H397.709V108.195C397.709 107.463 397.562 106.917 397.268 106.557C396.974 106.197 396.545 106.017 395.981 106.017C395.585 106.017 395.216 106.125 394.874 106.341C394.538 106.551 394.229 106.839 393.947 107.205V114H392.345ZM413.824 114H413.113C412.957 114 412.831 113.976 412.735 113.928C412.639 113.88 412.576 113.778 412.546 113.622L412.366 112.776C412.126 112.992 411.892 113.187 411.664 113.361C411.436 113.529 411.196 113.673 410.944 113.793C410.692 113.907 410.422 113.994 410.134 114.054C409.852 114.114 409.537 114.144 409.189 114.144C408.835 114.144 408.502 114.096 408.19 114C407.884 113.898 407.617 113.748 407.389 113.55C407.161 113.352 406.978 113.103 406.84 112.803C406.708 112.497 406.642 112.137 406.642 111.723C406.642 111.363 406.741 111.018 406.939 110.688C407.137 110.352 407.455 110.055 407.893 109.797C408.337 109.539 408.916 109.329 409.63 109.167C410.344 108.999 411.217 108.903 412.249 108.879V108.168C412.249 107.46 412.096 106.926 411.79 106.566C411.49 106.2 411.043 106.017 410.449 106.017C410.059 106.017 409.729 106.068 409.459 106.17C409.195 106.266 408.964 106.377 408.766 106.503C408.574 106.623 408.406 106.734 408.262 106.836C408.124 106.932 407.986 106.98 407.848 106.98C407.74 106.98 407.644 106.953 407.56 106.899C407.482 106.839 407.419 106.767 407.371 106.683L407.083 106.17C407.587 105.684 408.13 105.321 408.712 105.081C409.294 104.841 409.939 104.721 410.647 104.721C411.157 104.721 411.61 104.805 412.006 104.973C412.402 105.141 412.735 105.375 413.005 105.675C413.275 105.975 413.479 106.338 413.617 106.764C413.755 107.19 413.824 107.658 413.824 108.168V114ZM409.666 113.019C409.948 113.019 410.206 112.992 410.44 112.938C410.674 112.878 410.893 112.797 411.097 112.695C411.307 112.587 411.505 112.458 411.691 112.308C411.883 112.158 412.069 111.987 412.249 111.795V109.896C411.511 109.92 410.884 109.98 410.368 110.076C409.852 110.166 409.432 110.286 409.108 110.436C408.784 110.586 408.547 110.763 408.397 110.967C408.253 111.171 408.181 111.399 408.181 111.651C408.181 111.891 408.22 112.098 408.298 112.272C408.376 112.446 408.481 112.59 408.613 112.704C408.745 112.812 408.901 112.893 409.081 112.947C409.261 112.995 409.456 113.019 409.666 113.019ZM419.321 104.73C419.717 104.73 420.086 104.775 420.428 104.865C420.776 104.949 421.091 105.075 421.373 105.243H423.848V105.837C423.848 106.035 423.722 106.161 423.47 106.215L422.435 106.359C422.639 106.749 422.741 107.184 422.741 107.664C422.741 108.108 422.654 108.513 422.48 108.879C422.312 109.239 422.075 109.548 421.769 109.806C421.469 110.064 421.109 110.262 420.689 110.4C420.275 110.538 419.819 110.607 419.321 110.607C418.895 110.607 418.493 110.556 418.115 110.454C417.923 110.574 417.776 110.703 417.674 110.841C417.578 110.979 417.53 111.114 417.53 111.246C417.53 111.462 417.617 111.627 417.791 111.741C417.965 111.849 418.196 111.927 418.484 111.975C418.772 112.023 419.099 112.053 419.465 112.065C419.831 112.077 420.203 112.098 420.581 112.128C420.965 112.152 421.34 112.197 421.706 112.263C422.072 112.329 422.399 112.437 422.687 112.587C422.975 112.737 423.206 112.944 423.38 113.208C423.554 113.472 423.641 113.814 423.641 114.234C423.641 114.624 423.542 115.002 423.344 115.368C423.152 115.734 422.873 116.058 422.507 116.34C422.141 116.628 421.694 116.856 421.166 117.024C420.638 117.198 420.041 117.285 419.375 117.285C418.709 117.285 418.124 117.219 417.62 117.087C417.122 116.955 416.708 116.778 416.378 116.556C416.048 116.334 415.799 116.076 415.631 115.782C415.469 115.494 415.388 115.191 415.388 114.873C415.388 114.423 415.529 114.042 415.811 113.73C416.099 113.412 416.492 113.16 416.99 112.974C416.732 112.854 416.525 112.695 416.369 112.497C416.219 112.293 416.144 112.023 416.144 111.687C416.144 111.555 416.168 111.42 416.216 111.282C416.264 111.138 416.336 110.997 416.432 110.859C416.534 110.721 416.657 110.589 416.801 110.463C416.945 110.337 417.113 110.226 417.305 110.13C416.855 109.878 416.501 109.545 416.243 109.131C415.991 108.711 415.865 108.222 415.865 107.664C415.865 107.22 415.949 106.818 416.117 106.458C416.291 106.092 416.531 105.783 416.837 105.531C417.143 105.273 417.506 105.075 417.926 104.937C418.352 104.799 418.817 104.73 419.321 104.73ZM422.165 114.495C422.165 114.267 422.102 114.084 421.976 113.946C421.85 113.808 421.679 113.703 421.463 113.631C421.247 113.553 420.998 113.496 420.716 113.46C420.434 113.424 420.137 113.4 419.825 113.388C419.513 113.37 419.195 113.352 418.871 113.334C418.547 113.316 418.238 113.283 417.944 113.235C417.602 113.397 417.323 113.595 417.107 113.829C416.897 114.063 416.792 114.342 416.792 114.666C416.792 114.87 416.843 115.059 416.945 115.233C417.053 115.413 417.215 115.566 417.431 115.692C417.647 115.824 417.917 115.926 418.241 115.998C418.571 116.076 418.958 116.115 419.402 116.115C419.834 116.115 420.221 116.076 420.562 115.998C420.905 115.92 421.193 115.809 421.427 115.665C421.667 115.521 421.85 115.35 421.976 115.152C422.102 114.954 422.165 114.735 422.165 114.495ZM419.321 109.545C419.645 109.545 419.93 109.5 420.176 109.41C420.428 109.32 420.638 109.194 420.806 109.032C420.974 108.87 421.1 108.678 421.184 108.456C421.268 108.228 421.31 107.979 421.31 107.709C421.31 107.151 421.139 106.707 420.797 106.377C420.461 106.047 419.969 105.882 419.321 105.882C418.679 105.882 418.187 106.047 417.845 106.377C417.509 106.707 417.341 107.151 417.341 107.709C417.341 107.979 417.383 108.228 417.467 108.456C417.557 108.678 417.686 108.87 417.854 109.032C418.022 109.194 418.229 109.32 418.475 109.41C418.721 109.5 419.003 109.545 419.321 109.545ZM429.054 104.739C429.6 104.739 430.104 104.832 430.566 105.018C431.028 105.198 431.427 105.462 431.763 105.81C432.099 106.152 432.36 106.578 432.546 107.088C432.738 107.592 432.834 108.168 432.834 108.816C432.834 109.068 432.807 109.236 432.753 109.32C432.699 109.404 432.597 109.446 432.447 109.446H426.381C426.393 110.022 426.471 110.523 426.615 110.949C426.759 111.375 426.957 111.732 427.209 112.02C427.461 112.302 427.761 112.515 428.109 112.659C428.457 112.797 428.847 112.866 429.279 112.866C429.681 112.866 430.026 112.821 430.314 112.731C430.608 112.635 430.86 112.533 431.07 112.425C431.28 112.317 431.454 112.218 431.592 112.128C431.736 112.032 431.859 111.984 431.961 111.984C432.093 111.984 432.195 112.035 432.267 112.137L432.717 112.722C432.519 112.962 432.282 113.172 432.006 113.352C431.73 113.526 431.433 113.67 431.115 113.784C430.803 113.898 430.479 113.982 430.143 114.036C429.807 114.096 429.474 114.126 429.144 114.126C428.514 114.126 427.932 114.021 427.398 113.811C426.87 113.595 426.411 113.283 426.021 112.875C425.637 112.461 425.337 111.951 425.121 111.345C424.905 110.739 424.797 110.043 424.797 109.257C424.797 108.621 424.893 108.027 425.085 107.475C425.283 106.923 425.565 106.446 425.931 106.044C426.297 105.636 426.744 105.318 427.272 105.09C427.8 104.856 428.394 104.739 429.054 104.739ZM429.09 105.918C428.316 105.918 427.707 106.143 427.263 106.593C426.819 107.037 426.543 107.655 426.435 108.447H431.394C431.394 108.075 431.343 107.736 431.241 107.43C431.139 107.118 430.989 106.851 430.791 106.629C430.593 106.401 430.35 106.227 430.062 106.107C429.78 105.981 429.456 105.918 429.09 105.918Z" fill="#2D334B"/>
<path d="M318.892 144.797C319.41 144.797 319.877 144.883 320.292 145.056C320.712 145.229 321.067 145.474 321.356 145.791C321.65 146.108 321.874 146.493 322.028 146.946C322.187 147.394 322.266 147.896 322.266 148.451C322.266 149.011 322.187 149.515 322.028 149.963C321.874 150.411 321.65 150.794 321.356 151.111C321.067 151.428 320.712 151.673 320.292 151.846C319.877 152.014 319.41 152.098 318.892 152.098C318.374 152.098 317.905 152.014 317.485 151.846C317.07 151.673 316.715 151.428 316.421 151.111C316.127 150.794 315.901 150.411 315.742 149.963C315.583 149.515 315.504 149.011 315.504 148.451C315.504 147.896 315.583 147.394 315.742 146.946C315.901 146.493 316.127 146.108 316.421 145.791C316.715 145.474 317.07 145.229 317.485 145.056C317.905 144.883 318.374 144.797 318.892 144.797ZM318.892 151.125C319.592 151.125 320.115 150.892 320.46 150.425C320.805 149.954 320.978 149.298 320.978 148.458C320.978 147.613 320.805 146.955 320.46 146.484C320.115 146.013 319.592 145.777 318.892 145.777C318.537 145.777 318.229 145.838 317.968 145.959C317.707 146.08 317.487 146.255 317.31 146.484C317.137 146.713 317.007 146.995 316.918 147.331C316.834 147.662 316.792 148.038 316.792 148.458C316.792 148.878 316.834 149.254 316.918 149.585C317.007 149.916 317.137 150.196 317.31 150.425C317.487 150.649 317.707 150.822 317.968 150.943C318.229 151.064 318.537 151.125 318.892 151.125ZM323.801 152V144.909H324.515C324.651 144.909 324.744 144.935 324.795 144.986C324.847 145.037 324.882 145.126 324.9 145.252L324.984 146.358C325.227 145.863 325.526 145.478 325.88 145.203C326.24 144.923 326.66 144.783 327.14 144.783C327.336 144.783 327.514 144.806 327.672 144.853C327.831 144.895 327.978 144.956 328.113 145.035L327.952 145.966C327.92 146.083 327.847 146.141 327.735 146.141C327.67 146.141 327.57 146.12 327.434 146.078C327.299 146.031 327.11 146.008 326.867 146.008C326.433 146.008 326.069 146.134 325.775 146.386C325.486 146.638 325.243 147.004 325.047 147.485V152H323.801ZM337.146 152C336.968 152 336.856 151.914 336.81 151.741L336.698 150.88C336.394 151.249 336.047 151.545 335.655 151.769C335.267 151.988 334.822 152.098 334.318 152.098C333.912 152.098 333.543 152.021 333.212 151.867C332.88 151.708 332.598 151.477 332.365 151.174C332.131 150.871 331.952 150.493 331.826 150.04C331.7 149.587 331.637 149.067 331.637 148.479C331.637 147.956 331.707 147.471 331.847 147.023C331.987 146.57 332.187 146.178 332.449 145.847C332.715 145.516 333.037 145.257 333.415 145.07C333.793 144.879 334.222 144.783 334.703 144.783C335.137 144.783 335.508 144.858 335.816 145.007C336.124 145.152 336.399 145.357 336.642 145.623V141.689H337.888V152H337.146ZM334.731 151.09C335.137 151.09 335.491 150.997 335.795 150.81C336.103 150.623 336.385 150.36 336.642 150.019V146.589C336.413 146.281 336.161 146.066 335.886 145.945C335.615 145.819 335.314 145.756 334.983 145.756C334.32 145.756 333.811 145.992 333.457 146.463C333.102 146.934 332.925 147.606 332.925 148.479C332.925 148.941 332.964 149.338 333.044 149.669C333.123 149.996 333.24 150.266 333.394 150.481C333.548 150.691 333.737 150.845 333.961 150.943C334.185 151.041 334.441 151.09 334.731 151.09ZM339.975 152V144.909H340.689C340.824 144.909 340.918 144.935 340.969 144.986C341.02 145.037 341.055 145.126 341.074 145.252L341.158 146.358C341.401 145.863 341.699 145.478 342.054 145.203C342.413 144.923 342.833 144.783 343.314 144.783C343.51 144.783 343.687 144.806 343.846 144.853C344.005 144.895 344.152 144.956 344.287 145.035L344.126 145.966C344.093 146.083 344.021 146.141 343.909 146.141C343.844 146.141 343.743 146.12 343.608 146.078C343.473 146.031 343.284 146.008 343.041 146.008C342.607 146.008 342.243 146.134 341.949 146.386C341.66 146.638 341.417 147.004 341.221 147.485V152H339.975ZM350.57 152H350.017C349.896 152 349.798 151.981 349.723 151.944C349.648 151.907 349.599 151.827 349.576 151.706L349.436 151.048C349.249 151.216 349.067 151.368 348.89 151.503C348.713 151.634 348.526 151.746 348.33 151.839C348.134 151.928 347.924 151.995 347.7 152.042C347.481 152.089 347.236 152.112 346.965 152.112C346.69 152.112 346.431 152.075 346.188 152C345.95 151.921 345.742 151.804 345.565 151.65C345.388 151.496 345.245 151.302 345.138 151.069C345.035 150.831 344.984 150.551 344.984 150.229C344.984 149.949 345.061 149.681 345.215 149.424C345.369 149.163 345.616 148.932 345.957 148.731C346.302 148.53 346.753 148.367 347.308 148.241C347.863 148.11 348.542 148.036 349.345 148.017V147.464C349.345 146.913 349.226 146.498 348.988 146.218C348.755 145.933 348.407 145.791 347.945 145.791C347.642 145.791 347.385 145.831 347.175 145.91C346.97 145.985 346.79 146.071 346.636 146.169C346.487 146.262 346.356 146.349 346.244 146.428C346.137 146.503 346.029 146.54 345.922 146.54C345.838 146.54 345.763 146.519 345.698 146.477C345.637 146.43 345.588 146.374 345.551 146.309L345.327 145.91C345.719 145.532 346.141 145.25 346.594 145.063C347.047 144.876 347.548 144.783 348.099 144.783C348.496 144.783 348.848 144.848 349.156 144.979C349.464 145.11 349.723 145.292 349.933 145.525C350.143 145.758 350.302 146.041 350.409 146.372C350.516 146.703 350.57 147.067 350.57 147.464V152ZM347.336 151.237C347.555 151.237 347.756 151.216 347.938 151.174C348.12 151.127 348.29 151.064 348.449 150.985C348.612 150.901 348.766 150.801 348.911 150.684C349.06 150.567 349.205 150.434 349.345 150.285V148.808C348.771 148.827 348.283 148.873 347.882 148.948C347.481 149.018 347.154 149.111 346.902 149.228C346.65 149.345 346.466 149.482 346.349 149.641C346.237 149.8 346.181 149.977 346.181 150.173C346.181 150.36 346.211 150.521 346.272 150.656C346.333 150.791 346.414 150.903 346.517 150.992C346.62 151.076 346.741 151.139 346.881 151.181C347.021 151.218 347.173 151.237 347.336 151.237ZM354.845 144.79C355.153 144.79 355.44 144.825 355.706 144.895C355.976 144.96 356.221 145.058 356.441 145.189H358.366V145.651C358.366 145.805 358.268 145.903 358.072 145.945L357.267 146.057C357.425 146.36 357.505 146.699 357.505 147.072C357.505 147.417 357.437 147.732 357.302 148.017C357.171 148.297 356.987 148.537 356.749 148.738C356.515 148.939 356.235 149.093 355.909 149.2C355.587 149.307 355.232 149.361 354.845 149.361C354.513 149.361 354.201 149.321 353.907 149.242C353.757 149.335 353.643 149.436 353.564 149.543C353.489 149.65 353.452 149.755 353.452 149.858C353.452 150.026 353.519 150.154 353.655 150.243C353.79 150.327 353.97 150.388 354.194 150.425C354.418 150.462 354.672 150.486 354.957 150.495C355.241 150.504 355.531 150.521 355.825 150.544C356.123 150.563 356.415 150.598 356.7 150.649C356.984 150.7 357.239 150.784 357.463 150.901C357.687 151.018 357.866 151.179 358.002 151.384C358.137 151.589 358.205 151.855 358.205 152.182C358.205 152.485 358.128 152.779 357.974 153.064C357.824 153.349 357.607 153.601 357.323 153.82C357.038 154.044 356.69 154.221 356.28 154.352C355.869 154.487 355.405 154.555 354.887 154.555C354.369 154.555 353.914 154.504 353.522 154.401C353.134 154.298 352.812 154.161 352.556 153.988C352.299 153.815 352.105 153.615 351.975 153.386C351.849 153.162 351.786 152.926 351.786 152.679C351.786 152.329 351.895 152.033 352.115 151.79C352.339 151.543 352.644 151.347 353.032 151.202C352.831 151.109 352.67 150.985 352.549 150.831C352.432 150.672 352.374 150.462 352.374 150.201C352.374 150.098 352.392 149.993 352.43 149.886C352.467 149.774 352.523 149.664 352.598 149.557C352.677 149.45 352.773 149.347 352.885 149.249C352.997 149.151 353.127 149.065 353.277 148.99C352.927 148.794 352.651 148.535 352.451 148.213C352.255 147.886 352.157 147.506 352.157 147.072C352.157 146.727 352.222 146.414 352.353 146.134C352.488 145.849 352.675 145.609 352.913 145.413C353.151 145.212 353.433 145.058 353.76 144.951C354.091 144.844 354.453 144.79 354.845 144.79ZM357.057 152.385C357.057 152.208 357.008 152.065 356.91 151.958C356.812 151.851 356.679 151.769 356.511 151.713C356.343 151.652 356.149 151.608 355.93 151.58C355.71 151.552 355.479 151.533 355.237 151.524C354.994 151.51 354.747 151.496 354.495 151.482C354.243 151.468 354.002 151.442 353.774 151.405C353.508 151.531 353.291 151.685 353.123 151.867C352.959 152.049 352.878 152.266 352.878 152.518C352.878 152.677 352.917 152.824 352.997 152.959C353.081 153.099 353.207 153.218 353.375 153.316C353.543 153.419 353.753 153.498 354.005 153.554C354.261 153.615 354.562 153.645 354.908 153.645C355.244 153.645 355.545 153.615 355.811 153.554C356.077 153.493 356.301 153.407 356.483 153.295C356.669 153.183 356.812 153.05 356.91 152.896C357.008 152.742 357.057 152.572 357.057 152.385ZM354.845 148.535C355.097 148.535 355.318 148.5 355.51 148.43C355.706 148.36 355.869 148.262 356 148.136C356.13 148.01 356.228 147.861 356.294 147.688C356.359 147.511 356.392 147.317 356.392 147.107C356.392 146.673 356.259 146.328 355.993 146.071C355.731 145.814 355.349 145.686 354.845 145.686C354.345 145.686 353.963 145.814 353.697 146.071C353.435 146.328 353.305 146.673 353.305 147.107C353.305 147.317 353.337 147.511 353.403 147.688C353.473 147.861 353.573 148.01 353.704 148.136C353.834 148.262 353.995 148.36 354.187 148.43C354.378 148.5 354.597 148.535 354.845 148.535ZM367.523 152H366.97C366.849 152 366.751 151.981 366.676 151.944C366.601 151.907 366.552 151.827 366.529 151.706L366.389 151.048C366.202 151.216 366.02 151.368 365.843 151.503C365.666 151.634 365.479 151.746 365.283 151.839C365.087 151.928 364.877 151.995 364.653 152.042C364.434 152.089 364.189 152.112 363.918 152.112C363.643 152.112 363.384 152.075 363.141 152C362.903 151.921 362.695 151.804 362.518 151.65C362.341 151.496 362.198 151.302 362.091 151.069C361.988 150.831 361.937 150.551 361.937 150.229C361.937 149.949 362.014 149.681 362.168 149.424C362.322 149.163 362.569 148.932 362.91 148.731C363.255 148.53 363.706 148.367 364.261 148.241C364.816 148.11 365.495 148.036 366.298 148.017V147.464C366.298 146.913 366.179 146.498 365.941 146.218C365.708 145.933 365.36 145.791 364.898 145.791C364.595 145.791 364.338 145.831 364.128 145.91C363.923 145.985 363.743 146.071 363.589 146.169C363.44 146.262 363.309 146.349 363.197 146.428C363.09 146.503 362.982 146.54 362.875 146.54C362.791 146.54 362.716 146.519 362.651 146.477C362.59 146.43 362.541 146.374 362.504 146.309L362.28 145.91C362.672 145.532 363.094 145.25 363.547 145.063C364 144.876 364.501 144.783 365.052 144.783C365.449 144.783 365.801 144.848 366.109 144.979C366.417 145.11 366.676 145.292 366.886 145.525C367.096 145.758 367.255 146.041 367.362 146.372C367.469 146.703 367.523 147.067 367.523 147.464V152ZM364.289 151.237C364.508 151.237 364.709 151.216 364.891 151.174C365.073 151.127 365.243 151.064 365.402 150.985C365.565 150.901 365.719 150.801 365.864 150.684C366.013 150.567 366.158 150.434 366.298 150.285V148.808C365.724 148.827 365.236 148.873 364.835 148.948C364.434 149.018 364.107 149.111 363.855 149.228C363.603 149.345 363.419 149.482 363.302 149.641C363.19 149.8 363.134 149.977 363.134 150.173C363.134 150.36 363.164 150.521 363.225 150.656C363.286 150.791 363.367 150.903 363.47 150.992C363.573 151.076 363.694 151.139 363.834 151.181C363.974 151.218 364.126 151.237 364.289 151.237ZM369.411 152V144.909H370.153C370.33 144.909 370.442 144.995 370.489 145.168L370.587 145.938C370.895 145.597 371.238 145.322 371.616 145.112C371.998 144.902 372.439 144.797 372.939 144.797C373.326 144.797 373.667 144.862 373.961 144.993C374.259 145.119 374.507 145.301 374.703 145.539C374.903 145.772 375.055 146.055 375.158 146.386C375.26 146.717 375.312 147.084 375.312 147.485V152H374.066V147.485C374.066 146.948 373.942 146.533 373.695 146.239C373.452 145.94 373.079 145.791 372.575 145.791C372.206 145.791 371.861 145.88 371.539 146.057C371.221 146.234 370.927 146.475 370.657 146.778V152H369.411ZM382.181 152C382.004 152 381.892 151.914 381.845 151.741L381.733 150.88C381.43 151.249 381.082 151.545 380.69 151.769C380.303 151.988 379.857 152.098 379.353 152.098C378.947 152.098 378.578 152.021 378.247 151.867C377.916 151.708 377.633 151.477 377.4 151.174C377.167 150.871 376.987 150.493 376.861 150.04C376.735 149.587 376.672 149.067 376.672 148.479C376.672 147.956 376.742 147.471 376.882 147.023C377.022 146.57 377.223 146.178 377.484 145.847C377.75 145.516 378.072 145.257 378.45 145.07C378.828 144.879 379.257 144.783 379.738 144.783C380.172 144.783 380.543 144.858 380.851 145.007C381.159 145.152 381.434 145.357 381.677 145.623V141.689H382.923V152H382.181ZM379.766 151.09C380.172 151.09 380.527 150.997 380.83 150.81C381.138 150.623 381.42 150.36 381.677 150.019V146.589C381.448 146.281 381.196 146.066 380.921 145.945C380.65 145.819 380.349 145.756 380.018 145.756C379.355 145.756 378.847 145.992 378.492 146.463C378.137 146.934 377.96 147.606 377.96 148.479C377.96 148.941 378 149.338 378.079 149.669C378.158 149.996 378.275 150.266 378.429 150.481C378.583 150.691 378.772 150.845 378.996 150.943C379.22 151.041 379.477 151.09 379.766 151.09ZM392.708 152C392.531 152 392.419 151.914 392.372 151.741L392.26 150.88C391.957 151.249 391.609 151.545 391.217 151.769C390.83 151.988 390.384 152.098 389.88 152.098C389.474 152.098 389.106 152.021 388.774 151.867C388.443 151.708 388.161 151.477 387.927 151.174C387.694 150.871 387.514 150.493 387.388 150.04C387.262 149.587 387.199 149.067 387.199 148.479C387.199 147.956 387.269 147.471 387.409 147.023C387.549 146.57 387.75 146.178 388.011 145.847C388.277 145.516 388.599 145.257 388.977 145.07C389.355 144.879 389.785 144.783 390.265 144.783C390.699 144.783 391.07 144.858 391.378 145.007C391.686 145.152 391.962 145.357 392.204 145.623V141.689H393.45V152H392.708ZM390.293 151.09C390.699 151.09 391.054 150.997 391.357 150.81C391.665 150.623 391.948 150.36 392.204 150.019V146.589C391.976 146.281 391.724 146.066 391.448 145.945C391.178 145.819 390.877 145.756 390.545 145.756C389.883 145.756 389.374 145.992 389.019 146.463C388.665 146.934 388.487 147.606 388.487 148.479C388.487 148.941 388.527 149.338 388.606 149.669C388.686 149.996 388.802 150.266 388.956 150.481C389.11 150.691 389.299 150.845 389.523 150.943C389.747 151.041 390.004 151.09 390.293 151.09ZM395.538 152V144.909H396.252C396.387 144.909 396.48 144.935 396.532 144.986C396.583 145.037 396.618 145.126 396.637 145.252L396.721 146.358C396.963 145.863 397.262 145.478 397.617 145.203C397.976 144.923 398.396 144.783 398.877 144.783C399.073 144.783 399.25 144.806 399.409 144.853C399.567 144.895 399.714 144.956 399.85 145.035L399.689 145.966C399.656 146.083 399.584 146.141 399.472 146.141C399.406 146.141 399.306 146.12 399.171 146.078C399.035 146.031 398.846 146.008 398.604 146.008C398.17 146.008 397.806 146.134 397.512 146.386C397.222 146.638 396.98 147.004 396.784 147.485V152H395.538ZM404.054 144.797C404.572 144.797 405.039 144.883 405.454 145.056C405.874 145.229 406.229 145.474 406.518 145.791C406.812 146.108 407.036 146.493 407.19 146.946C407.349 147.394 407.428 147.896 407.428 148.451C407.428 149.011 407.349 149.515 407.19 149.963C407.036 150.411 406.812 150.794 406.518 151.111C406.229 151.428 405.874 151.673 405.454 151.846C405.039 152.014 404.572 152.098 404.054 152.098C403.536 152.098 403.067 152.014 402.647 151.846C402.232 151.673 401.877 151.428 401.583 151.111C401.289 150.794 401.063 150.411 400.904 149.963C400.745 149.515 400.666 149.011 400.666 148.451C400.666 147.896 400.745 147.394 400.904 146.946C401.063 146.493 401.289 146.108 401.583 145.791C401.877 145.474 402.232 145.229 402.647 145.056C403.067 144.883 403.536 144.797 404.054 144.797ZM404.054 151.125C404.754 151.125 405.277 150.892 405.622 150.425C405.967 149.954 406.14 149.298 406.14 148.458C406.14 147.613 405.967 146.955 405.622 146.484C405.277 146.013 404.754 145.777 404.054 145.777C403.699 145.777 403.391 145.838 403.13 145.959C402.869 146.08 402.649 146.255 402.472 146.484C402.299 146.713 402.169 146.995 402.08 147.331C401.996 147.662 401.954 148.038 401.954 148.458C401.954 148.878 401.996 149.254 402.08 149.585C402.169 149.916 402.299 150.196 402.472 150.425C402.649 150.649 402.869 150.822 403.13 150.943C403.391 151.064 403.699 151.125 404.054 151.125ZM408.963 154.401V144.909H409.705C409.883 144.909 409.995 144.995 410.041 145.168L410.146 146.008C410.45 145.639 410.795 145.343 411.182 145.119C411.574 144.895 412.025 144.783 412.533 144.783C412.939 144.783 413.308 144.862 413.639 145.021C413.971 145.175 414.253 145.406 414.486 145.714C414.72 146.017 414.899 146.395 415.025 146.848C415.151 147.301 415.214 147.821 415.214 148.409C415.214 148.932 415.144 149.419 415.004 149.872C414.864 150.32 414.664 150.71 414.402 151.041C414.141 151.368 413.819 151.627 413.436 151.818C413.058 152.005 412.631 152.098 412.155 152.098C411.717 152.098 411.341 152.026 411.028 151.881C410.72 151.736 410.447 151.531 410.209 151.265V154.401H408.963ZM412.12 145.791C411.714 145.791 411.357 145.884 411.049 146.071C410.746 146.258 410.466 146.521 410.209 146.862V150.292C410.438 150.6 410.688 150.817 410.958 150.943C411.234 151.069 411.539 151.132 411.875 151.132C412.533 151.132 413.04 150.896 413.394 150.425C413.749 149.954 413.926 149.282 413.926 148.409C413.926 147.947 413.884 147.55 413.8 147.219C413.721 146.888 413.604 146.617 413.45 146.407C413.296 146.192 413.107 146.036 412.883 145.938C412.659 145.84 412.405 145.791 412.12 145.791Z" fill="#2D334B"/>
</svg>
