<svg width="19" height="18" viewBox="0 0 19 18" fill="none" xmlns="http://www.w3.org/2000/svg">
<path d="M17.8332 6.70768C17.6681 6.70984 17.5104 6.77638 17.3936 6.89313C17.2769 7.00987 17.2104 7.16759 17.2082 7.33268V12.3327L13.7249 8.34935C13.5035 8.11374 13.2363 7.92596 12.9396 7.7976C12.6429 7.66924 12.3231 7.60302 11.9999 7.60302C11.6766 7.60302 11.3568 7.66924 11.0601 7.7976C10.7634 7.92596 10.4962 8.11374 10.2749 8.34935L7.88319 11.0827L7.09986 10.1327C6.88401 9.87374 6.61387 9.66542 6.30858 9.52246C6.00329 9.3795 5.6703 9.3054 5.33319 9.3054C4.99609 9.3054 4.6631 9.3795 4.35781 9.52246C4.05251 9.66542 3.78238 9.87374 3.56653 10.1327L1.79153 12.2744V3.99935C1.79372 3.28173 2.07977 2.59413 2.58721 2.0867C3.09464 1.57926 3.78224 1.29321 4.49986 1.29102H11.1665C11.3323 1.29102 11.4913 1.22517 11.6085 1.10796C11.7257 0.990747 11.7915 0.831776 11.7915 0.666016C11.7915 0.500255 11.7257 0.341284 11.6085 0.224074C11.4913 0.106864 11.3323 0.0410156 11.1665 0.0410156H4.49986C3.45004 0.0410156 2.44323 0.458053 1.70089 1.20038C0.958563 1.94272 0.541526 2.94953 0.541526 3.99935V13.9993C0.53759 14.013 0.53759 14.0274 0.541526 14.041C0.552501 15.0836 0.974379 16.0797 1.71552 16.8131C2.45667 17.5464 3.45722 17.9577 4.49986 17.9577H14.4999C15.5382 17.9556 16.5342 17.5456 17.273 16.8161C18.0119 16.0866 18.4346 15.0959 18.4499 14.0577V7.33268C18.4478 7.16901 18.3824 7.0125 18.2674 6.89598C18.1524 6.77946 17.9968 6.71198 17.8332 6.70768ZM14.4999 16.7077H4.49986C3.81912 16.7055 3.16417 16.4471 2.66538 15.9838C2.16659 15.5205 1.86055 14.8864 1.80819 14.2077L4.49986 10.9327C4.60068 10.8204 4.72402 10.7305 4.86185 10.669C4.99969 10.6075 5.14893 10.5758 5.29986 10.5758C5.45079 10.5758 5.60003 10.6075 5.73787 10.669C5.8757 10.7305 5.99904 10.8204 6.09986 10.9327L7.35819 12.4493C7.4159 12.5195 7.48841 12.5761 7.57052 12.615C7.65264 12.6539 7.74233 12.6742 7.83319 12.6743C8.01314 12.6644 8.18273 12.5871 8.30819 12.4577L11.1749 9.17435C11.2768 9.06693 11.3996 8.9814 11.5357 8.92294C11.6718 8.86449 11.8184 8.83435 11.9665 8.83435C12.1146 8.83435 12.2612 8.86449 12.3973 8.92294C12.5334 8.9814 12.6562 9.06693 12.7582 9.17435L17.1499 14.1743C17.108 14.8526 16.8119 15.4901 16.3207 15.9597C15.8295 16.4293 15.1793 16.6964 14.4999 16.7077Z" fill="white"/>
<path d="M3.0415 4.83268C3.0415 5.28593 3.17591 5.729 3.42772 6.10586C3.67953 6.48273 4.03744 6.77645 4.45619 6.94991C4.87493 7.12336 5.33571 7.16874 5.78025 7.08032C6.22479 6.99189 6.63313 6.77363 6.95362 6.45314C7.27412 6.13264 7.49238 5.7243 7.5808 5.27976C7.66923 4.83522 7.62385 4.37445 7.45039 3.9557C7.27694 3.53695 6.98321 3.17904 6.60635 2.92723C6.22949 2.67542 5.78642 2.54102 5.33317 2.54102C4.72538 2.54102 4.14249 2.78246 3.71272 3.21223C3.28295 3.642 3.0415 4.22489 3.0415 4.83268ZM6.37484 4.83268C6.37484 5.0387 6.31374 5.2401 6.19928 5.4114C6.08483 5.5827 5.92214 5.71622 5.7318 5.79506C5.54146 5.8739 5.33201 5.89453 5.12995 5.85433C4.92789 5.81414 4.74228 5.71493 4.5966 5.56925C4.45092 5.42357 4.35171 5.23797 4.31152 5.0359C4.27133 4.83384 4.29195 4.62439 4.3708 4.43405C4.44964 4.24371 4.58315 4.08103 4.75445 3.96657C4.92575 3.85211 5.12715 3.79102 5.33317 3.79102C5.60944 3.79102 5.87439 3.90076 6.06974 4.09611C6.26509 4.29146 6.37484 4.55642 6.37484 4.83268Z" fill="white"/>
<path d="M12.833 3.79102H14.708V5.66602C14.708 5.83178 14.7739 5.99075 14.8911 6.10796C15.0083 6.22517 15.1672 6.29102 15.333 6.29102C15.4988 6.29102 15.6577 6.22517 15.775 6.10796C15.8922 5.99075 15.958 5.83178 15.958 5.66602V3.79102H17.833C17.9988 3.79102 18.1577 3.72517 18.275 3.60796C18.3922 3.49075 18.458 3.33178 18.458 3.16602C18.458 3.00026 18.3922 2.84128 18.275 2.72407C18.1577 2.60686 17.9988 2.54102 17.833 2.54102H15.958V0.666016C15.958 0.500255 15.8922 0.341284 15.775 0.224074C15.6577 0.106864 15.4988 0.0410156 15.333 0.0410156C15.1672 0.0410156 15.0083 0.106864 14.8911 0.224074C14.7739 0.341284 14.708 0.500255 14.708 0.666016V2.54102H12.833C12.6672 2.54102 12.5083 2.60686 12.3911 2.72407C12.2739 2.84128 12.208 3.00026 12.208 3.16602C12.208 3.33178 12.2739 3.49075 12.3911 3.60796C12.5083 3.72517 12.6672 3.79102 12.833 3.79102Z" fill="white"/>
</svg>
