<svg width="15" height="15" viewBox="0 0 15 15" fill="none" xmlns="http://www.w3.org/2000/svg">
<g clip-path="url(#clip0_240_10207)">
<g clip-path="url(#clip1_240_10207)">
<path d="M12.4392 1.53027H1.53015C0.778063 1.53027 0.166504 2.14183 0.166504 2.89389V13.803C0.166504 14.555 0.778063 15.1666 1.53015 15.1666H12.4392C13.1913 15.1666 13.8029 14.5551 13.8029 13.803V2.89389C13.8029 2.14183 13.1913 1.53027 12.4392 1.53027ZM13.121 13.803C13.121 14.1789 12.8151 14.4848 12.4392 14.4848H1.53015C1.1543 14.4848 0.848344 14.1789 0.848344 13.803V2.89389C0.848312 2.51804 1.15427 2.21208 1.53015 2.21208H12.4392C12.8151 2.21208 13.121 2.51804 13.121 2.89389V13.803Z" fill="white"/>
<path d="M13.8028 0.166504H2.55283C2.3644 0.166504 2.21191 0.318986 2.21191 0.507424C2.21191 0.695862 2.3644 0.848344 2.55283 0.848344H13.8028C14.1787 0.848344 14.4846 1.1543 14.4846 1.53015V12.7802C14.4846 12.9686 14.6371 13.1211 14.8256 13.1211C15.014 13.1211 15.1665 12.9686 15.1665 12.7802V1.53015C15.1665 0.778063 14.5549 0.166504 13.8028 0.166504Z" fill="white"/>
<path d="M6.98454 7.6665C6.60869 7.6665 6.30273 7.97246 6.30273 8.34831C6.30273 8.72416 6.60869 9.03012 6.98454 9.03012C7.36039 9.03012 7.66635 8.72416 7.66635 8.34831C7.66638 7.97246 7.36043 7.6665 6.98454 7.6665Z" fill="white"/>
<path d="M6.98483 2.8938C3.97725 2.8938 1.53027 5.34077 1.53027 8.34836C1.53027 11.3559 3.97725 13.8029 6.98483 13.8029C9.99242 13.8029 12.4394 11.3559 12.4394 8.34836C12.4394 5.34077 9.99242 2.8938 6.98483 2.8938ZM6.98483 13.1211C4.35313 13.1211 2.21211 10.9801 2.21211 8.34836C2.21211 5.71662 4.35313 3.57564 6.98483 3.57564C9.61654 3.57564 11.7576 5.71662 11.7576 8.34836C11.7576 10.9801 9.61657 13.1211 6.98483 13.1211Z" fill="white"/>
<path d="M6.98491 6.30298C5.85697 6.30298 4.93945 7.22049 4.93945 8.34843C4.93945 9.47638 5.85697 10.3939 6.98491 10.3939C8.11285 10.3939 9.03037 9.47638 9.03037 8.34843C9.03037 7.22049 8.11285 6.30298 6.98491 6.30298ZM6.98491 9.71208C6.23285 9.71208 5.62126 9.10052 5.62126 8.34843C5.62126 7.59635 6.23282 6.98479 6.98491 6.98479C7.737 6.98479 8.34856 7.59638 8.34856 8.34843C8.34856 9.10049 7.737 9.71208 6.98491 9.71208Z" fill="white"/>
<path d="M6.9855 4.93916C7.17358 4.93916 7.32642 4.78668 7.32642 4.59824C7.32642 4.41016 7.17393 4.25732 6.9855 4.25732C6.98518 4.25732 6.98483 4.25732 6.98415 4.25732C5.89185 4.25732 4.86477 4.68281 4.09207 5.45551C3.95889 5.58869 3.95889 5.80442 4.09207 5.93757C4.15864 6.00414 4.2459 6.03745 4.33312 6.03745C4.42033 6.03745 4.50755 6.00414 4.57416 5.93757C5.21803 5.2937 6.07396 4.93913 6.98415 4.93913C6.98451 4.93916 6.98483 4.93916 6.9855 4.93916Z" fill="white"/>
</g>
</g>
<defs>
<clipPath id="clip0_240_10207">
<rect width="15" height="15" fill="white"/>
</clipPath>
<clipPath id="clip1_240_10207">
<rect width="15" height="15" fill="white" transform="translate(0.166504 0.166504)"/>
</clipPath>
</defs>
</svg>
