<svg width="15" height="15" viewBox="0 0 15 15" fill="none" xmlns="http://www.w3.org/2000/svg">
<path d="M4.73125 7.23928V7.27285V7.79305C4.73125 8.02713 4.58145 8.23485 4.35946 8.30881C4.35946 8.30881 4.35945 8.30881 4.35945 8.30882L3.14927 8.71229C2.41442 8.95731 1.91875 9.64502 1.91875 10.4197V12.6875C1.91875 13.4227 2.51482 14.0188 3.25 14.0188H6.2568C6.03818 13.7838 5.86129 13.5188 5.73565 13.2313H3.25C2.94971 13.2313 2.70625 12.9878 2.70625 12.6875V10.4197C2.70625 9.98404 2.98508 9.59726 3.39843 9.45944L3.39843 9.45944L4.60851 9.05608L4.60851 9.05608C5.1521 8.87492 5.51875 8.36616 5.51875 7.79317V7.02969C5.51875 6.9159 5.45844 6.81062 5.36043 6.73623C4.86598 6.36147 4.58125 5.79713 4.58125 5.1875V4.25C4.58125 3.11046 5.56375 2.19617 6.72591 2.3095L6.72592 2.3095C7.74266 2.4087 8.48125 3.32076 8.48125 4.33356V5.1875C8.48125 5.79715 8.1965 6.3615 7.70202 6.73626M4.73125 7.23928L7.65672 6.67649M4.73125 7.23928L4.70621 7.21692C4.12324 6.69625 3.79375 5.96885 3.79375 5.1875V4.34785C3.79375 2.9526 4.79404 1.71231 6.17072 1.53568C7.84043 1.32144 9.26875 2.62198 9.26875 4.25V5.1875C9.26875 5.96885 8.93926 6.69625 8.35629 7.21692L8.33125 7.23928V7.27285V7.79305C8.33125 8.02714 8.48106 8.23486 8.70305 8.30882L9.26875 8.49749M4.73125 7.23928L9.26875 8.49749M7.70202 6.73626L7.65672 6.67649M7.70202 6.73626C7.70202 6.73626 7.70202 6.73626 7.70203 6.73626L7.65672 6.67649M7.70202 6.73626C7.60408 6.81051 7.54375 6.91587 7.54375 7.02969V7.79317C7.54375 8.36616 7.9104 8.87492 8.45399 9.05619L8.43027 9.12735C7.85605 8.93586 7.46875 8.39844 7.46875 7.79317V7.02969C7.46875 6.88801 7.54387 6.76203 7.65672 6.67649M9.26875 9.32775L8.454 9.0562L9.26875 9.4068V9.32775ZM9.26875 9.32775V8.49749M9.26875 9.32775L9.34375 9.35274L9.26875 8.49749M11.1438 6.59375V6.61272L11.1528 6.6294C11.1621 6.64665 11.1764 6.66375 11.1897 6.67839C11.2042 6.69415 11.2219 6.71169 11.2417 6.73029C11.2815 6.76756 11.3326 6.8117 11.3887 6.85859C11.5011 6.95238 11.6372 7.05988 11.7512 7.14997L11.7515 7.15019C12.4585 7.70858 13.4875 8.5262 13.4875 9.875C13.4875 10.0924 13.3112 10.2688 13.0938 10.2688C12.8763 10.2688 12.7 10.0924 12.7 9.875C12.7 9.38542 12.5039 8.98781 12.2273 8.64902C11.9527 8.31254 11.5951 8.0301 11.2671 7.7709L11.2652 7.76947L11.1438 7.67349V7.82832V12.2188C11.1438 13.1964 10.1423 14.0188 8.875 14.0188C7.60771 14.0188 6.60625 13.1964 6.60625 12.2188C6.60625 11.2411 7.60771 10.4188 8.875 10.4188C9.39081 10.4188 9.86103 10.5615 10.2424 10.7925L10.3562 10.8615V10.7284V6.59375C10.3562 6.37631 10.5326 6.2 10.75 6.2C10.9674 6.2 11.1438 6.37631 11.1438 6.59375ZM7.39375 12.2188C7.39375 12.5066 7.57572 12.7613 7.84445 12.9405C8.11425 13.1203 8.48059 13.2313 8.875 13.2313C9.26941 13.2313 9.63575 13.1203 9.90555 12.9405C10.1743 12.7613 10.3562 12.5066 10.3562 12.2188C10.3562 11.9309 10.1743 11.6762 9.90555 11.4971C9.63575 11.3172 9.26941 11.2063 8.875 11.2063C8.48059 11.2063 8.11425 11.3172 7.84445 11.4971C7.57572 11.6762 7.39375 11.9309 7.39375 12.2188Z" fill="white" stroke="#4A5069" stroke-width="0.15"/>
</svg>
