<svg width="40" height="40" viewBox="0 0 40 40" fill="none" xmlns="http://www.w3.org/2000/svg">
<path d="M27.2312 12.3221C25.9372 11.028 23.8314 11.028 22.5373 12.3221L18.9478 15.9116C18.3209 16.5384 17.9757 17.372 17.9757 18.2585C17.9757 19.9305 19.1178 20.7341 19.2239 20.8817C19.6814 21.3391 19.6814 22.0809 19.2239 22.5384C18.7665 22.9958 18.0247 22.9958 17.5673 22.5384C17.4496 22.3809 16.0495 21.3111 15.7072 19.1522L12.3211 22.5384C11.0271 23.8324 11.0271 25.9381 12.3211 27.2323L12.5973 27.5084C13.8914 28.8025 15.9971 28.8025 17.2912 27.5084L20.8807 23.919C21.5076 23.2921 21.8529 22.4586 21.8529 21.572C21.8529 19.9 20.7107 19.0965 20.6046 18.9488C20.1471 18.4914 20.1471 17.7496 20.6046 17.2922C21.062 16.8348 21.8038 16.8348 22.2612 17.2922C22.3789 17.4497 23.779 18.5195 24.1213 20.6784L27.5074 17.2922C28.8014 15.9981 28.8014 13.8924 27.5074 12.5983L27.2312 12.3221Z" fill="#2D334B"/>
<path d="M19.9146 0C8.90836 0 0 8.9068 0 19.9146C0 30.9209 8.9068 39.8292 19.9146 39.8292C30.9209 39.8292 39.8292 30.9224 39.8292 19.9146C39.8292 8.90836 30.9224 0 19.9146 0ZM29.1644 18.9482L25.5749 22.5377C25.0529 23.0597 24.4321 23.4744 23.7557 23.7578C23.48 24.4188 23.0747 25.038 22.5377 25.575L18.9482 29.1645C16.7409 31.3718 13.149 31.3724 10.941 29.1645L10.6648 28.8883C8.45726 26.6807 8.45726 23.0887 10.6648 20.8811L14.2543 17.2916C14.7763 16.7696 15.3971 16.3548 16.0735 16.0715C16.3492 15.4105 16.7545 14.7913 17.2915 14.2544L20.881 10.6649C23.0886 8.45742 26.6806 8.45727 28.8882 10.6649L29.1644 10.9411C31.372 13.1486 31.372 16.7405 29.1644 18.9482Z" fill="#2D334B"/>
</svg>
