<svg width="40" height="40" viewBox="0 0 40 40" fill="none" xmlns="http://www.w3.org/2000/svg">
<g clip-path="url(#clip0_244_11493)">
<path d="M20 40C31.0457 40 40 31.0457 40 20C40 8.9543 31.0457 0 20 0C8.9543 0 0 8.9543 0 20C0 31.0457 8.9543 40 20 40Z" fill="#2D334B"/>
<path d="M19.9953 20.9884L9.45312 15.729V26.179C9.45457 26.7088 9.66566 27.2165 10.0403 27.5911C10.4149 27.9657 10.9226 28.1768 11.4523 28.1782H28.5477C29.0774 28.1768 29.5851 27.9657 29.9597 27.5911C30.3343 27.2165 30.5454 26.7088 30.5469 26.179V15.8392L19.9953 20.9884Z" fill="white"/>
<path d="M20.0047 19.0126L30.5469 13.8673V13.822C30.5454 13.2922 30.3343 12.7845 29.9597 12.4099C29.5851 12.0353 29.0774 11.8242 28.5477 11.8228H11.4523C10.9347 11.8238 10.4376 12.025 10.065 12.3842C9.69234 12.7434 9.47309 13.2329 9.45312 13.7501L20.0047 19.0126Z" fill="white"/>
</g>
<defs>
<clipPath id="clip0_244_11493">
<rect width="40" height="40" fill="white"/>
</clipPath>
</defs>
</svg>
