<svg width="15" height="15" viewBox="0 0 15 15" fill="none" xmlns="http://www.w3.org/2000/svg">
<g clip-path="url(#clip0_240_10198)">
<path d="M4.77815 7.4987L4.77811 7.49869V7.50076C4.77811 8.79732 5.83284 9.85208 7.12943 9.85208C8.42601 9.85208 9.48077 8.79735 9.48084 7.50079L9.48076 7.49873C9.35217 4.38272 4.9072 4.38168 4.77815 7.4987ZM3.99629 7.49973C3.99685 5.77264 5.40218 4.36763 7.12943 4.36763C8.85668 4.36763 10.262 5.77262 10.2626 7.49971C10.0901 11.6562 4.1694 11.6573 3.99629 7.49973Z" fill="white" stroke="#4A5069" stroke-width="0.1"/>
<path d="M14.0529 0.837172L14.1029 0.837175L14.0529 0.837209V0.837318V0.837754V0.839489V0.846344L14.0529 0.87308L14.0529 0.974568L14.0529 1.33688L14.0528 2.43704L14.0527 4.0448C14.0527 4.56366 13.7976 5.02391 13.4061 5.30746L13.3757 5.32945L13.3884 5.36476C14.8869 9.56198 11.5905 14.1728 7.13079 14.1146C-1.64314 13.7516 -1.64396 1.25053 7.1305 0.886848C8.80316 0.880387 10.4469 1.53907 11.6579 2.68759L11.6857 2.71388L11.7183 2.69405C12.1438 2.43562 12.7566 2.41828 13.1975 2.6547L13.2711 2.69418V2.61063V0.275867C13.2711 0.155879 13.3262 0.0425434 13.4205 -0.0315421C13.5149 -0.105657 13.638 -0.132321 13.7546 -0.103915C13.7546 -0.103914 13.7546 -0.103914 13.7546 -0.103913L15.1516 0.236674L15.1634 0.188097L15.1516 0.236674C15.3613 0.287804 15.4899 0.499285 15.4388 0.709051C15.3876 0.918807 15.1761 1.04737 14.9664 0.996238L14.9546 1.04481L14.9664 0.996237L14.1148 0.788598L14.0529 0.773521L14.0529 0.837172ZM12.4921 4.82143L12.4921 4.82148H12.4942C12.9225 4.82148 13.2709 4.47311 13.2709 4.0448C13.2709 3.61648 12.9225 3.26812 12.4942 3.26808L12.4921 3.26816C11.4645 3.31057 11.4641 4.77887 12.4921 4.82143ZM12.9613 7.50275L12.9614 7.50275V7.50068C12.9614 6.86019 12.858 6.23315 12.6538 5.63284L12.6412 5.59598L12.6024 5.59911C11.3932 5.6966 10.5375 4.36469 11.1212 3.3082L11.1399 3.27425L11.1117 3.24764C7.4249 -0.229076 1.28748 2.43141 1.29729 7.50075L1.29737 7.50271C1.61652 15.2352 12.6411 15.2372 12.9613 7.50275Z" fill="white" stroke="#4A5069" stroke-width="0.1"/>
<path d="M7.12939 7.05981C6.88653 7.05981 6.68848 7.25787 6.68848 7.50072C6.7134 8.08569 7.54546 8.08552 7.5703 7.50072C7.5703 7.25787 7.37221 7.05981 7.12939 7.05981Z" fill="white"/>
</g>
<defs>
<clipPath id="clip0_240_10198">
<rect width="15" height="15" fill="white" transform="translate(0.5 -0.5)"/>
</clipPath>
</defs>
</svg>
