<svg width="16" height="16" viewBox="0 0 16 16" fill="none" xmlns="http://www.w3.org/2000/svg">
<path fill-rule="evenodd" clip-rule="evenodd" d="M8 14.75C11.7279 14.75 14.75 11.728 14.75 8C14.75 4.27208 11.728 1.24998 8 1.24998C4.27208 1.24998 1.24998 4.27208 1.24998 8C1.24998 11.7279 4.27208 14.75 8 14.75ZM8 15.5C12.1421 15.5 15.5 12.1421 15.5 8C15.5 3.85783 12.1421 0.5 8 0.5C3.85783 0.5 0.5 3.85783 0.5 8C0.5 12.1421 3.85783 15.5 8 15.5Z" fill="white"/>
<path fill-rule="evenodd" clip-rule="evenodd" d="M9.94899 7.99995L6.50006 5.70069V10.2993L9.94899 7.99995ZM10.6458 7.56314C10.9575 7.77098 10.9575 8.22899 10.6458 8.43683L6.56623 11.1566C6.21735 11.3892 5.75 11.139 5.75 10.7197V5.28027C5.75 4.86095 6.21735 4.61085 6.56623 4.84346L10.6458 7.56314Z" fill="white"/>
</svg>
