<svg width="40" height="40" viewBox="0 0 40 40" fill="none" xmlns="http://www.w3.org/2000/svg">
<g clip-path="url(#clip0_244_11500)">
<path d="M20 40C31.0457 40 40 31.0457 40 20C40 8.9543 31.0457 0 20 0C8.9543 0 0 8.9543 0 20C0 31.0457 8.9543 40 20 40Z" fill="#2D334B"/>
<path d="M16.7 15.6999L19 13.3999V22.9999C19 23.5999 19.4 23.9999 20 23.9999C20.6 23.9999 21 23.5999 21 22.9999V13.3999L23.3 15.6999C23.7 16.0999 24.3 16.0999 24.7 15.6999C25.1 15.2999 25.1 14.6999 24.7 14.2999L20.7 10.2999C20.6 10.1999 20.5 10.0999 20.4 10.0999C20.2 9.9999 19.9 9.9999 19.6 10.0999C19.5 10.0999 19.4 10.1999 19.3 10.2999L15.3 14.2999C14.9 14.6999 14.9 15.2999 15.3 15.6999C15.7 16.0999 16.3 16.0999 16.7 15.6999ZM29 21.9999C28.4 21.9999 28 22.3999 28 22.9999V26.9999C28 27.5999 27.6 27.9999 27 27.9999H13C12.4 27.9999 12 27.5999 12 26.9999V22.9999C12 22.3999 11.6 21.9999 11 21.9999C10.4 21.9999 10 22.3999 10 22.9999V26.9999C10 28.6999 11.3 29.9999 13 29.9999H27C28.7 29.9999 30 28.6999 30 26.9999V22.9999C30 22.3999 29.6 21.9999 29 21.9999Z" fill="white"/>
</g>
<defs>
<clipPath id="clip0_244_11500">
<rect width="40" height="40" fill="white"/>
</clipPath>
</defs>
</svg>
