<svg width="15" height="15" viewBox="0 0 15 15" fill="none" xmlns="http://www.w3.org/2000/svg">
<g clip-path="url(#clip0_244_10343)">
<g clip-path="url(#clip1_244_10343)">
<path d="M13.45 15H1.8876C0.939468 15 0.168945 14.2294 0.168945 13.2814V4.2189C0.168945 3.27077 0.939468 2.50024 1.8876 2.50024H4.07512C4.33387 2.50024 4.54386 2.71024 4.54386 2.96899C4.54386 3.22774 4.33387 3.43773 4.07512 3.43773H1.8876C1.45697 3.43773 1.10644 3.78826 1.10644 4.2189V13.2814C1.10644 13.7119 1.45697 14.0626 1.8876 14.0626H13.45C13.8807 14.0626 14.2313 13.7119 14.2313 13.2814V7.96886C14.2313 7.71011 14.4413 7.50012 14.7001 7.50012C14.9588 7.50012 15.1688 7.71011 15.1688 7.96886V13.2814C15.1688 14.2294 14.3982 15 13.45 15Z" fill="white"/>
<path d="M4.38652 9.99197C4.35218 9.99197 4.31774 9.98819 4.28341 9.97938C4.07158 9.93006 3.91846 9.74878 3.91846 9.53135V8.59386C3.91846 5.2339 6.65219 2.50017 10.0121 2.50017H10.1684V0.468861C10.1684 0.277632 10.2846 0.105743 10.4621 0.033875C10.6389 -0.0373066 10.8421 0.00572274 10.9746 0.143852L15.0371 4.36256C15.2121 4.54383 15.2121 4.83131 15.0371 5.01258L10.9746 9.23129C10.8421 9.36942 10.6377 9.41199 10.4621 9.34126C10.2846 9.26939 10.1684 9.09751 10.1684 8.90628V6.87509H9.42587C7.45968 6.87509 5.69273 7.96753 4.81406 9.72567C4.73338 9.88817 4.56401 9.99197 4.38652 9.99197ZM10.0121 3.43766C7.38713 3.43766 5.21346 5.40945 4.89531 7.95002C6.03147 6.6826 7.66087 5.93759 9.42587 5.93759H10.6371C10.8959 5.93759 11.1058 6.14759 11.1058 6.40634V7.7438L14.0489 4.68757L11.1058 1.63134V2.96891C11.1058 3.22766 10.8959 3.43766 10.6371 3.43766H10.0121Z" fill="white"/>
</g>
</g>
<defs>
<clipPath id="clip0_244_10343">
<rect width="15" height="15" fill="white"/>
</clipPath>
<clipPath id="clip1_244_10343">
<rect width="15" height="15" fill="white" transform="translate(0.168457)"/>
</clipPath>
</defs>
</svg>
