<svg width="40" height="40" viewBox="0 0 40 40" fill="none" xmlns="http://www.w3.org/2000/svg">
<path d="M20 40C31.0457 40 40 31.0457 40 20C40 8.9543 31.0457 0 20 0C8.9543 0 0 8.9543 0 20C0 31.0457 8.9543 40 20 40Z" fill="#2D334B"/>
<path d="M28.818 11.1816C26.7372 9.07998 23.9738 7.79114 21.0264 7.54754C18.079 7.30393 15.1416 8.12159 12.7439 9.85303C10.3463 11.5845 8.64629 14.1157 7.95059 16.9902C7.25488 19.8647 7.60926 22.8931 8.94981 25.5293L7.6339 31.9179C7.62024 31.9815 7.61986 32.0472 7.63276 32.111C7.64567 32.1747 7.67158 32.2351 7.7089 32.2884C7.76356 32.3692 7.84158 32.4315 7.93254 32.4668C8.02351 32.5021 8.12309 32.5089 8.21799 32.4861L14.4794 31.002C17.1081 32.3086 20.1152 32.6402 22.9655 31.9378C25.8158 31.2354 28.3245 29.5445 30.0452 27.166C31.7658 24.7876 32.5868 21.8758 32.3621 18.9488C32.1374 16.0218 30.8815 13.2695 28.818 11.1816ZM26.8657 26.7634C25.426 28.1991 23.5721 29.1468 21.5652 29.473C19.5583 29.7992 17.4997 29.4874 15.6794 28.5816L14.8066 28.1498L10.968 29.0589L10.9794 29.0111L11.7748 25.1475L11.3475 24.3043C10.4174 22.4776 10.0893 20.4035 10.4102 18.3789C10.7311 16.3544 11.6845 14.4834 13.1339 13.0338C14.955 11.2133 17.4247 10.1905 19.9998 10.1905C22.5749 10.1905 25.0446 11.2133 26.8657 13.0338C26.8812 13.0516 26.8979 13.0683 26.9157 13.0838C28.7143 14.9091 29.7183 17.3714 29.709 19.9339C29.6996 22.4964 28.6776 24.9513 26.8657 26.7634Z" fill="white"/>
<path d="M26.5249 23.9296C26.0545 24.6705 25.3113 25.5773 24.3772 25.8023C22.7408 26.1978 20.2295 25.8159 17.1045 22.9023L17.0658 22.8682C14.3181 20.3205 13.6045 18.2 13.7772 16.5182C13.8727 15.5637 14.6681 14.7 15.3386 14.1364C15.4446 14.0459 15.5703 13.9815 15.7056 13.9483C15.8409 13.9151 15.9822 13.9141 16.118 13.9452C16.2538 13.9763 16.3805 14.0388 16.4879 14.1277C16.5952 14.2165 16.6803 14.3293 16.7363 14.4569L17.7477 16.7296C17.8134 16.877 17.8377 17.0394 17.8181 17.1996C17.7985 17.3597 17.7356 17.5115 17.6363 17.6387L17.1249 18.3023C17.0152 18.4393 16.949 18.6061 16.9348 18.781C16.9206 18.956 16.9592 19.1312 17.0454 19.2841C17.3317 19.7864 18.0181 20.525 18.7795 21.2091C19.634 21.9819 20.5817 22.6887 21.1817 22.9296C21.3423 22.9952 21.5188 23.0112 21.6885 22.9755C21.8583 22.9399 22.0134 22.8542 22.134 22.7296L22.7272 22.1319C22.8417 22.019 22.984 21.9385 23.1397 21.8986C23.2954 21.8587 23.4589 21.8607 23.6136 21.9046L26.0158 22.5864C26.1484 22.6271 26.2698 22.6975 26.3709 22.7923C26.4721 22.8871 26.5502 23.0037 26.5993 23.1333C26.6484 23.2629 26.6673 23.4021 26.6544 23.5401C26.6415 23.6781 26.5972 23.8113 26.5249 23.9296Z" fill="white"/>
</svg>
