<svg width="16" height="16" viewBox="0 0 16 16" fill="none" xmlns="http://www.w3.org/2000/svg">
<g clip-path="url(#clip0_249_6025)">
<path fill-rule="evenodd" clip-rule="evenodd" d="M4.74959 2.37004C4.01025 2.79684 3.36221 3.36508 2.84247 4.04232C2.32274 4.71956 1.94149 5.49254 1.72048 6.31713C1.27415 7.98245 1.50764 9.75687 2.36959 11.25C3.23154 12.7432 4.65135 13.8328 6.31668 14.2791C7.982 14.7254 9.75642 14.492 11.2496 13.63C11.4212 13.5386 11.6216 13.5174 11.8085 13.5709C11.9954 13.6244 12.1542 13.7484 12.2515 13.9168C12.3488 14.0851 12.3769 14.2846 12.3299 14.4733C12.2829 14.6619 12.1645 14.825 11.9996 14.928C10.4871 15.8008 8.73054 16.1548 6.99804 15.9359C5.26553 15.7169 3.65225 14.9371 2.40442 13.7155C1.1566 12.4939 0.342766 10.8975 0.0871541 9.17003C-0.168458 7.44256 0.148187 5.6789 0.988758 4.14823C1.82933 2.61757 3.14766 1.40398 4.74252 0.692706C6.33738 -0.0185698 8.12117 -0.188465 9.82162 0.208952C11.5221 0.606369 13.0458 1.54927 14.1602 2.89373C15.2746 4.2382 15.9185 5.91038 15.9936 7.65504C15.9976 7.68655 15.9996 7.71828 15.9996 7.75004V7.85404C16.0003 7.91737 16.0003 7.98071 15.9996 8.04404V9.25004C16 9.84571 15.8069 10.4253 15.4494 10.9018C15.092 11.3783 14.5895 11.7259 14.0175 11.8922C13.4455 12.0586 12.835 12.0347 12.2778 11.8242C11.7206 11.6137 11.2467 11.228 10.9276 10.725C10.2929 11.4069 9.44009 11.8459 8.51631 11.9663C7.59252 12.0866 6.65571 11.8807 5.86749 11.3842C5.07928 10.8876 4.4891 10.1315 4.19878 9.24636C3.90847 8.36117 3.93623 7.4024 4.27727 6.53548C4.61831 5.66856 5.25124 4.94787 6.06686 4.49774C6.88249 4.04762 7.82964 3.89629 8.74492 4.06988C9.66019 4.24346 10.4862 4.73107 11.0804 5.44856C11.6745 6.16606 11.9997 7.06845 11.9996 8.00004V9.25004C11.9996 9.58156 12.1313 9.8995 12.3657 10.1339C12.6001 10.3683 12.9181 10.5 13.2496 10.5C13.5811 10.5 13.8991 10.3683 14.1335 10.1339C14.3679 9.8995 14.4996 9.58156 14.4996 9.25004V7.86704C14.4766 6.73738 14.1595 5.63322 13.5796 4.66348C12.9997 3.69374 12.1771 2.89191 11.1928 2.33707C10.2085 1.78224 9.09655 1.49356 7.96667 1.49952C6.83679 1.50547 5.72798 1.80586 4.74959 2.37104V2.37004ZM10.4996 8.00004C10.4996 7.337 10.2362 6.70112 9.76736 6.23227C9.29852 5.76343 8.66263 5.50004 7.99959 5.50004C7.33655 5.50004 6.70066 5.76343 6.23182 6.23227C5.76298 6.70112 5.49959 7.337 5.49959 8.00004C5.49959 8.66308 5.76298 9.29897 6.23182 9.76781C6.70066 10.2366 7.33655 10.5 7.99959 10.5C8.66263 10.5 9.29852 10.2366 9.76736 9.76781C10.2362 9.29897 10.4996 8.66308 10.4996 8.00004Z" fill="#4A5069"/>
</g>
<defs>
<clipPath id="clip0_249_6025">
<rect width="16" height="16" fill="white"/>
</clipPath>
</defs>
</svg>
