<svg width="30" height="30" viewBox="0 0 30 30" fill="none" xmlns="http://www.w3.org/2000/svg">
<path d="M25.5621 24.6785L20.6792 19.7955C22.1778 18.0865 23.0048 15.9241 23.0048 13.6299C23.0048 11.1256 22.0294 8.77148 20.2588 7.00085C18.4882 5.23022 16.134 4.25488 13.6298 4.25488C11.1255 4.25488 8.77136 5.23022 7.00073 7.00085C5.2301 8.77148 4.25476 11.1256 4.25476 13.6299C4.25476 16.1342 5.2301 18.4883 7.00073 20.2589C8.77136 22.0295 11.1255 23.0049 13.6298 23.0049C15.924 23.0049 18.0864 22.178 19.7954 20.6793L24.6783 25.5623C24.8004 25.6843 24.9603 25.7454 25.1202 25.7454C25.2802 25.7454 25.4401 25.6843 25.5621 25.5623C25.8063 25.3181 25.8063 24.9226 25.5621 24.6785ZM7.88452 19.3751C6.3501 17.8404 5.50476 15.8 5.50476 13.6299C5.50476 11.4598 6.3501 9.41937 7.88452 7.88464C9.41925 6.35022 11.4597 5.50488 13.6298 5.50488C15.7999 5.50488 17.8403 6.35022 19.375 7.88464C20.9094 9.41937 21.7548 11.4598 21.7548 13.6299C21.7548 15.8 20.9094 17.8404 19.375 19.3751C17.8403 20.9095 15.7999 21.7549 13.6298 21.7549C11.4597 21.7549 9.41925 20.9095 7.88452 19.3751Z" fill="white"/>
</svg>
