<svg width="35" height="35" viewBox="0 0 35 35" fill="none" xmlns="http://www.w3.org/2000/svg">
<path d="M17.5007 1.45825C14.3279 1.45825 11.2264 2.39908 8.58839 4.16176C5.95035 5.92444 3.89425 8.42981 2.68009 11.361C1.46594 14.2923 1.14826 17.5177 1.76723 20.6295C2.3862 23.7413 3.91402 26.5996 6.15749 28.8431C8.40095 31.0866 11.2593 32.6144 14.3711 33.2333C17.4829 33.8523 20.7083 33.5346 23.6395 32.3205C26.5708 31.1063 29.0761 29.0502 30.8388 26.4122C32.6015 23.7742 33.5423 20.6727 33.5423 17.4999C33.5373 13.2469 31.8456 9.1696 28.8383 6.16229C25.831 3.15498 21.7536 1.46327 17.5007 1.45825ZM23.6869 21.6255C23.8262 21.7601 23.9373 21.921 24.0137 22.0989C24.0902 22.2768 24.1304 22.4682 24.1321 22.6618C24.1337 22.8555 24.0969 23.0475 24.0235 23.2267C23.9502 23.406 23.8419 23.5688 23.705 23.7057C23.5681 23.8426 23.4052 23.9509 23.226 24.0242C23.0468 24.0976 22.8548 24.1345 22.6611 24.1328C22.4675 24.1311 22.2761 24.0909 22.0982 24.0144C21.9203 23.938 21.7594 23.8269 21.6248 23.6876L17.5007 19.562L13.3765 23.6876C13.1014 23.9533 12.7331 24.1003 12.3507 24.0969C11.9683 24.0936 11.6026 23.9402 11.3322 23.6699C11.0618 23.3995 10.9084 23.0337 10.9051 22.6513C10.9018 22.269 11.0488 21.9006 11.3144 21.6255L15.4386 17.4999L11.3144 13.3743C11.1751 13.2398 11.064 13.0788 10.9876 12.9009C10.9112 12.723 10.8709 12.5316 10.8693 12.338C10.8676 12.1444 10.9045 11.9523 10.9778 11.7731C11.0511 11.5939 11.1594 11.4311 11.2963 11.2941C11.4333 11.1572 11.5961 11.0489 11.7753 10.9756C11.9545 10.9023 12.1466 10.8654 12.3402 10.8671C12.5338 10.8687 12.7252 10.909 12.9031 10.9854C13.081 11.0618 13.242 11.1729 13.3765 11.3122L17.5007 15.4378L21.6248 11.3122C21.7594 11.1729 21.9203 11.0618 22.0982 10.9854C22.2761 10.909 22.4675 10.8687 22.6611 10.8671C22.8548 10.8654 23.0468 10.9023 23.226 10.9756C23.4052 11.0489 23.5681 11.1572 23.705 11.2941C23.8419 11.4311 23.9502 11.5939 24.0235 11.7731C24.0969 11.9523 24.1337 12.1444 24.1321 12.338C24.1304 12.5316 24.0902 12.723 24.0137 12.9009C23.9373 13.0788 23.8262 13.2398 23.6869 13.3743L19.5627 17.4999L23.6869 21.6255Z" fill="#2D334B"/>
</svg>
