<svg width="15" height="15" viewBox="0 0 15 15" fill="none" xmlns="http://www.w3.org/2000/svg">
<g clip-path="url(#clip0_848_21104)">
<g clip-path="url(#clip1_848_21104)">
<path d="M1.75 2.5C1.89834 2.5 2.04334 2.45601 2.16668 2.3736C2.29001 2.29119 2.38614 2.17406 2.44291 2.03701C2.49968 1.89997 2.51453 1.74917 2.48559 1.60368C2.45665 1.4582 2.38522 1.32456 2.28033 1.21967C2.17544 1.11478 2.0418 1.04335 1.89632 1.01441C1.75083 0.985472 1.60003 1.00032 1.46299 1.05709C1.32594 1.11386 1.20881 1.20999 1.1264 1.33332C1.04399 1.45666 1 1.60166 1 1.75C1 1.94891 1.07902 2.13968 1.21967 2.28033C1.36032 2.42098 1.55109 2.5 1.75 2.5ZM1.75 1.5C1.79945 1.5 1.84778 1.51466 1.88889 1.54213C1.93 1.5696 1.96205 1.60865 1.98097 1.65433C1.99989 1.70001 2.00484 1.75028 1.9952 1.79877C1.98555 1.84727 1.96174 1.89181 1.92678 1.92678C1.89181 1.96174 1.84727 1.98555 1.79877 1.9952C1.75028 2.00484 1.70001 1.99989 1.65433 1.98097C1.60865 1.96205 1.5696 1.93001 1.54213 1.88889C1.51466 1.84778 1.5 1.79945 1.5 1.75C1.5 1.6837 1.52634 1.62011 1.57322 1.57322C1.62011 1.52634 1.6837 1.5 1.75 1.5Z" fill="white"/>
<path d="M3.125 7.25C3.39695 7.25 3.66279 7.16936 3.88891 7.01827C4.11503 6.86718 4.29126 6.65244 4.39533 6.40119C4.49941 6.14994 4.52663 5.87348 4.47358 5.60675C4.42053 5.34003 4.28957 5.09503 4.09727 4.90273C3.90497 4.71043 3.65997 4.57948 3.39325 4.52642C3.12653 4.47337 2.85006 4.5006 2.59881 4.60467C2.34756 4.70874 2.13282 4.88497 1.98173 5.11109C1.83064 5.33721 1.75 5.60305 1.75 5.875C1.75046 6.23953 1.89548 6.589 2.15324 6.84676C2.411 7.10452 2.76047 7.24954 3.125 7.25ZM3.125 5C3.29806 5 3.46723 5.05132 3.61112 5.14746C3.75502 5.24361 3.86717 5.38027 3.93339 5.54015C3.99962 5.70004 4.01695 5.87597 3.98319 6.0457C3.94943 6.21544 3.86609 6.37135 3.74372 6.49372C3.62135 6.61609 3.46544 6.69943 3.2957 6.73319C3.12597 6.76695 2.95004 6.74962 2.79015 6.6834C2.63027 6.61717 2.49361 6.50502 2.39746 6.36112C2.30132 6.21723 2.25 6.04806 2.25 5.875C2.25 5.64294 2.34219 5.42038 2.50628 5.25628C2.67038 5.09219 2.89294 5 3.125 5Z" fill="white"/>
<path d="M13.657 5.79075C13.6091 5.74294 13.5565 5.70013 13.5 5.663V1C13.5 0.734784 13.3946 0.48043 13.2071 0.292893C13.0196 0.105357 12.7652 0 12.5 0L1 0C0.734784 0 0.48043 0.105357 0.292893 0.292893C0.105357 0.48043 0 0.734784 0 1L0 12.5C0 12.7652 0.105357 13.0196 0.292893 13.2071C0.48043 13.3946 0.734784 13.5 1 13.5H5.71675L5.5235 14.2085C5.49331 14.3138 5.49181 14.4253 5.51915 14.5314C5.54648 14.6375 5.60167 14.7344 5.679 14.812C5.737 14.8716 5.80635 14.9189 5.88296 14.9512C5.95956 14.9835 6.04187 15.0001 6.125 15C6.18121 15 6.23717 14.9927 6.2915 14.9782L8.2 14.4575C8.47169 14.3816 8.71961 14.2378 8.9205 14.0398L9.45925 13.5H12.5C12.7652 13.5 13.0196 13.3946 13.2071 13.2071C13.3946 13.0196 13.5 12.7652 13.5 12.5V9.45875L14.7093 8.25C14.8955 8.06345 15.0001 7.81061 15.0001 7.547C15.0001 7.28339 14.8955 7.03055 14.7093 6.844L13.657 5.79075ZM1 0.5H12.5C12.6326 0.5 12.7598 0.552678 12.8536 0.646447C12.9473 0.740215 13 0.867392 13 1V3H0.5V1C0.5 0.867392 0.552678 0.740215 0.646447 0.646447C0.740215 0.552678 0.867392 0.5 1 0.5ZM1 13C0.867392 13 0.740215 12.9473 0.646447 12.8536C0.552678 12.7598 0.5 12.6326 0.5 12.5V3.5H13V5.5045C12.8619 5.49709 12.7238 5.51873 12.5946 5.56804C12.4654 5.61735 12.348 5.69322 12.25 5.79075L10.4675 7.5735L8.625 5.992C8.52116 5.90288 8.38884 5.85389 8.252 5.85389C8.11516 5.85389 7.98284 5.90288 7.879 5.992L4.49375 8.925L3.627 8.23125C3.51726 8.14498 3.37973 8.1019 3.24039 8.11015C3.10104 8.11839 2.96955 8.17739 2.87075 8.276L1.72075 9.426C1.6506 9.49557 1.59497 9.57837 1.55708 9.66961C1.51918 9.76085 1.49978 9.85871 1.5 9.9575V11.5C1.5 11.6989 1.57902 11.8897 1.71967 12.0303C1.86032 12.171 2.05109 12.25 2.25 12.25H6.0615C6.056 12.2675 6.0485 12.284 6.04375 12.302L5.85325 13H1ZM8.048 12.8057L11.6385 9.21475L12.3385 9.91475L8.74725 13.505L8.048 12.8057ZM6.31475 11.75H2.25C2.1837 11.75 2.12011 11.7237 2.07322 11.6768C2.02634 11.6299 2 11.5663 2 11.5V9.9575C2.00004 9.9243 2.00669 9.89143 2.01957 9.86083C2.03244 9.83022 2.05129 9.80249 2.075 9.77925L3.225 8.62925C3.23697 8.61726 3.25285 8.60998 3.26974 8.60874C3.28664 8.6075 3.30341 8.61238 3.317 8.6225L4.3445 9.445C4.39012 9.48158 4.44712 9.50102 4.50559 9.49992C4.56405 9.49882 4.62028 9.47727 4.6645 9.439L8.20475 6.37C8.21744 6.35867 8.23386 6.3524 8.25088 6.3524C8.26789 6.3524 8.28431 6.35867 8.297 6.37L10.114 7.92825L6.461 11.5813C6.40852 11.6342 6.35966 11.6905 6.31475 11.75ZM10.5865 8.1625L11.285 8.8625L7.6945 12.4522L6.996 11.7535L10.5865 8.1625ZM12.6913 9.5605L10.94 7.809L11.6383 7.1105L13.3895 8.862L12.6913 9.5605ZM8.067 13.975L6.16175 14.4952C6.13976 14.501 6.11665 14.5009 6.09472 14.4949C6.0728 14.4889 6.05281 14.4773 6.03675 14.4613C6.02116 14.4461 6.01008 14.4269 6.00474 14.4058C5.9994 14.3847 6.00001 14.3625 6.0065 14.3418L6.525 12.4338C6.55497 12.3254 6.60107 12.2221 6.66175 12.1275L8.37125 13.837C8.27727 13.8979 8.17472 13.9444 8.067 13.975ZM13 12.5C13 12.6326 12.9473 12.7598 12.8536 12.8536C12.7598 12.9473 12.6326 13 12.5 13H9.959L13 9.95875V12.5ZM14.3558 7.89575L13.743 8.5085L11.9918 6.757L12.6045 6.14425C12.6973 6.05143 12.8232 5.99929 12.9545 5.99929C13.0858 5.99929 13.2117 6.05143 13.3045 6.14425L14.3568 7.19675C14.4491 7.2897 14.5008 7.41545 14.5006 7.54646C14.5004 7.67746 14.4483 7.80306 14.3558 7.89575Z" fill="white"/>
<path d="M3.5 1.5H6.5C6.5663 1.5 6.62989 1.47366 6.67678 1.42678C6.72366 1.37989 6.75 1.3163 6.75 1.25C6.75 1.1837 6.72366 1.12011 6.67678 1.07322C6.62989 1.02634 6.5663 1 6.5 1H3.5C3.4337 1 3.37011 1.02634 3.32322 1.07322C3.27634 1.12011 3.25 1.1837 3.25 1.25C3.25 1.3163 3.27634 1.37989 3.32322 1.42678C3.37011 1.47366 3.4337 1.5 3.5 1.5Z" fill="white"/>
<path d="M3.5 2.5H5.25C5.3163 2.5 5.37989 2.47366 5.42678 2.42678C5.47366 2.37989 5.5 2.3163 5.5 2.25C5.5 2.1837 5.47366 2.12011 5.42678 2.07322C5.37989 2.02634 5.3163 2 5.25 2H3.5C3.4337 2 3.37011 2.02634 3.32322 2.07322C3.27634 2.12011 3.25 2.1837 3.25 2.25C3.25 2.3163 3.27634 2.37989 3.32322 2.42678C3.37011 2.47366 3.4337 2.5 3.5 2.5Z" fill="white"/>
</g>
</g>
<defs>
<clipPath id="clip0_848_21104">
<rect width="15" height="15" fill="white"/>
</clipPath>
<clipPath id="clip1_848_21104">
<rect width="15" height="15" fill="white"/>
</clipPath>
</defs>
</svg>
