<svg width="30" height="30" viewBox="0 0 30 30" fill="none" xmlns="http://www.w3.org/2000/svg">
<g clip-path="url(#clip0_296_6254)">
<path d="M28.0952 3.3335H1.90479C0.852885 3.3335 0 4.18633 0 5.23823V24.7621C0 25.8139 0.852885 26.6667 1.90479 26.6667H28.0952C29.1471 26.6667 30 25.8139 30 24.762V5.23823C30 4.18633 29.1472 3.3335 28.0952 3.3335ZM28.0952 5.23823V19.091L24.3413 15.6782C23.7771 15.1653 22.9095 15.1858 22.3704 15.7254L18.5713 19.5239L11.0805 10.5763C10.5143 9.9001 9.47711 9.89345 8.90238 10.5615L1.90479 18.6939V5.23823H28.0952ZM20 10.2382C20 8.79155 21.1723 7.61916 22.619 7.61916C24.0657 7.61916 25.238 8.79155 25.238 10.2382C25.238 11.6849 24.0658 12.8572 22.619 12.8572C21.1723 12.8573 20 11.6849 20 10.2382Z" fill="#2D334B"/>
</g>
<defs>
<clipPath id="clip0_296_6254">
<rect width="30" height="29.9999" fill="white"/>
</clipPath>
</defs>
</svg>
