<svg width="15" height="15" viewBox="0 0 15 15" fill="none" xmlns="http://www.w3.org/2000/svg">
<path d="M3.89297 7.32627C3.78398 7.3415 3.70635 7.43965 3.71689 7.54922C3.95771 10.0444 5.29512 12.2745 7.38574 13.6679C7.42031 13.6907 7.45986 13.7024 7.49941 13.7024C7.53897 13.7024 7.57881 13.691 7.61309 13.6679C9.70283 12.2751 11.0402 10.045 11.2819 7.54922C11.2925 7.43965 11.2148 7.3415 11.1062 7.32627C9.85225 7.15166 8.66719 6.81533 7.58379 6.32666C7.53018 6.30234 7.46895 6.30234 7.41533 6.32666C6.32783 6.8165 5.14277 7.15283 3.89297 7.32627ZM10.8527 7.70391C10.5794 9.95244 9.36768 11.9581 7.49971 13.2492C5.63086 11.9572 4.41885 9.95185 4.14668 7.70391C5.33086 7.52285 6.45762 7.19853 7.49971 6.73828C8.53857 7.19736 9.66533 7.52168 10.8527 7.70361V7.70391ZM5.70703 10.2882L6.63867 11.2198C6.77637 11.3575 6.95947 11.4331 7.1543 11.4331H7.15518C7.35 11.4331 7.53281 11.3569 7.66963 11.2198L9.77988 9.11045C9.90586 8.98447 9.975 8.8166 9.975 8.6373C9.975 8.45801 9.90557 8.29014 9.77988 8.16416C9.65361 8.03789 9.48545 7.96816 9.30645 7.96816H9.30557C9.12686 7.96816 8.95928 8.03789 8.83359 8.16416L7.1543 9.84287L6.65332 9.34189C6.39258 9.08115 5.96807 9.08086 5.70762 9.3416C5.58106 9.46758 5.51133 9.63574 5.51133 9.81504C5.51133 9.99434 5.58105 10.1625 5.70732 10.2882H5.70703ZM5.99707 9.63223C6.04746 9.58184 6.11367 9.55664 6.18018 9.55664C6.24668 9.55664 6.3126 9.58184 6.36328 9.63223L7.00928 10.2782C7.08926 10.3582 7.21934 10.3585 7.29932 10.2782L9.12393 8.45449C9.12393 8.45449 9.12393 8.45449 9.12422 8.4542C9.17256 8.40557 9.2373 8.37891 9.30615 8.37891H9.30645C9.37588 8.37891 9.44092 8.40586 9.48984 8.45449C9.53818 8.50283 9.56484 8.56787 9.56484 8.6376C9.56484 8.70732 9.53818 8.77207 9.48984 8.82041L7.3793 10.9301C7.31982 10.9898 7.24014 11.0229 7.15488 11.0229H7.15459C7.06904 11.0229 6.98906 10.9898 6.929 10.9298L5.99678 9.99756C5.94814 9.94922 5.92148 9.88418 5.92148 9.81504C5.92148 9.7459 5.94814 9.68086 5.99707 9.63193V9.63223ZM12.6688 5.15566C12.8745 4.96084 13.0031 4.68545 13.0031 4.38047C13.0031 3.79102 12.5241 3.31172 11.9353 3.31172C11.3464 3.31172 10.8665 3.79131 10.8665 4.38047C10.8665 4.68574 10.9954 4.96113 11.2017 5.15596C11.0145 5.20225 10.8384 5.28691 10.6846 5.40527C10.2328 4.62803 9.4081 4.09687 8.46562 4.05205C9.0917 3.70898 9.51709 3.04365 9.51709 2.28076C9.51709 1.16836 8.61211 0.263672 7.5 0.263672C6.38789 0.263672 5.48203 1.16865 5.48203 2.28076C5.48203 3.04365 5.90771 3.70898 6.53379 4.05205C5.59072 4.09658 4.76602 4.62803 4.31455 5.40527C4.16074 5.28691 3.98467 5.20225 3.79746 5.15566C4.00342 4.96084 4.13232 4.68545 4.13232 4.38018C4.13232 3.79072 3.65332 3.31143 3.06445 3.31143C2.47559 3.31143 1.9957 3.79102 1.9957 4.38018C1.9957 4.68516 2.12461 4.96055 2.33027 5.15508C1.71973 5.30596 1.26562 5.85791 1.26562 6.51445V7.71035C1.26562 7.82373 1.35732 7.91543 1.4707 7.91543H2.87432C3.03193 9.14678 3.43652 10.3362 4.06787 11.407C4.87324 12.7731 6.02461 13.9148 7.39717 14.7085C7.42881 14.727 7.46426 14.736 7.49971 14.736C7.53516 14.736 7.57061 14.727 7.60254 14.7085C8.9748 13.9148 10.1259 12.7731 10.9312 11.407C11.5626 10.3362 11.9672 9.14678 12.1245 7.91543H13.5281C13.6415 7.91543 13.7332 7.82373 13.7332 7.71035V6.51445C13.7332 5.8582 13.2791 5.30596 12.6688 5.15537V5.15566ZM11.9353 3.72187C12.2979 3.72187 12.593 4.01719 12.593 4.38047C12.593 4.74375 12.2979 5.03818 11.9353 5.03818C11.5726 5.03818 11.2767 4.74316 11.2767 4.38047C11.2767 4.01777 11.572 3.72187 11.9353 3.72187ZM5.89189 2.28105C5.89189 1.39512 6.61318 0.674121 7.49971 0.674121C8.38623 0.674121 9.10664 1.39512 9.10664 2.28105C9.10664 3.16699 8.38564 3.88887 7.49971 3.88887C6.61377 3.88887 5.89189 3.16758 5.89189 2.28105ZM6.6624 4.45928H8.33584C9.4582 4.45928 10.4071 5.27227 10.6031 6.35332C9.69287 6.18135 8.64082 5.88018 7.59111 5.35752C7.53369 5.32881 7.46572 5.32881 7.4083 5.35752C6.35859 5.87988 5.30654 6.18105 4.396 6.35303C4.59111 5.27197 5.53975 4.45898 6.6624 4.45898V4.45928ZM3.06387 3.72187C3.42656 3.72187 3.72158 4.01719 3.72158 4.38047C3.72158 4.74375 3.42656 5.03818 3.06387 5.03818C2.70117 5.03818 2.40527 4.74316 2.40527 4.38047C2.40527 4.01777 2.70059 3.72187 3.06387 3.72187ZM2.79902 6.74473C2.79902 6.99932 2.80957 7.25303 2.83037 7.50557H1.6752V6.51475C1.6752 5.96895 2.11934 5.5248 2.66514 5.5248H3.4623C3.71045 5.5248 3.94775 5.61914 4.13057 5.78701C4.05205 5.98945 3.99727 6.20361 3.96943 6.42656C3.61025 6.48193 3.27949 6.51797 2.98799 6.54023C2.88105 6.54844 2.79844 6.6375 2.79844 6.74473H2.79902ZM7.49941 14.2934C4.904 12.7453 3.27656 9.94863 3.21123 6.9331C4.3248 6.83115 5.90889 6.54287 7.49941 5.77002C9.08994 6.54316 10.6737 6.83115 11.7867 6.9331C11.7214 9.94834 10.0942 12.745 7.49941 14.2934ZM13.3228 7.50557H12.1676C12.1884 7.25303 12.1989 6.99932 12.1989 6.74473C12.1989 6.6375 12.1163 6.54844 12.0094 6.54023C11.7182 6.51797 11.3877 6.48223 11.0288 6.42656C11.001 6.20361 10.9459 5.98916 10.8674 5.78672C11.0502 5.61914 11.2878 5.5248 11.5362 5.5248H12.3325C12.8783 5.5248 13.3225 5.96895 13.3225 6.51475V7.50557H13.3228Z" fill="#2D334B"/>
</svg>
