<svg width="19" height="19" viewBox="0 0 19 19" fill="none" xmlns="http://www.w3.org/2000/svg">
<path fill-rule="evenodd" clip-rule="evenodd" d="M6.12365 0.125H12.8764C13.7149 0.12499 14.4069 0.124979 14.9706 0.171031C15.5561 0.218875 16.0944 0.321542 16.6 0.579136C17.384 0.978615 18.0214 1.61603 18.4208 2.40004C18.6784 2.90559 18.7811 3.44383 18.829 4.02934C18.875 4.59308 18.875 5.28513 18.875 6.12363V12.8764C18.875 13.7149 18.875 14.4069 18.829 14.9706C18.7811 15.5561 18.6784 16.0944 18.4208 16.6C18.0214 17.384 17.384 18.0214 16.6 18.4208C16.0944 18.6784 15.5561 18.7811 14.9706 18.829C14.4069 18.875 13.7149 18.875 12.8764 18.875H6.12363C5.28513 18.875 4.59308 18.875 4.02934 18.829C3.44383 18.7811 2.90559 18.6784 2.40004 18.4208C1.61603 18.0214 0.978615 17.384 0.579136 16.6C0.321542 16.0944 0.218875 15.5561 0.171031 14.9706C0.124979 14.4069 0.12499 13.7149 0.125 12.8764V6.12365C0.12499 5.28514 0.124979 4.59309 0.171031 4.02934C0.218875 3.44383 0.321542 2.90559 0.579136 2.40004C0.978615 1.61603 1.61603 0.978615 2.40004 0.579136C2.90559 0.321542 3.44383 0.218875 4.02934 0.171031C4.59309 0.124979 5.28514 0.12499 6.12365 0.125ZM4.199 2.24745C3.74231 2.28476 3.50877 2.3524 3.34585 2.43541C2.95385 2.63514 2.63514 2.95385 2.43541 3.34585C2.3524 3.50877 2.28476 3.74231 2.24745 4.199C2.20915 4.66784 2.20833 5.2744 2.20833 6.16667V12.8333C2.20833 13.7256 2.20915 14.3322 2.24745 14.801C2.28476 15.2577 2.3524 15.4913 2.43541 15.6542C2.63514 16.0461 2.95385 16.3649 3.34585 16.5646C3.50877 16.6476 3.74231 16.7152 4.199 16.7525C4.66784 16.7908 5.2744 16.7917 6.16667 16.7917H12.8333C13.7256 16.7917 14.3322 16.7908 14.801 16.7525C15.2577 16.7152 15.4913 16.6476 15.6542 16.5646C16.0461 16.3649 16.3649 16.0461 16.5646 15.6542C16.6476 15.4913 16.7152 15.2577 16.7525 14.801C16.7908 14.3322 16.7917 13.7256 16.7917 12.8333V6.16667C16.7917 5.2744 16.7908 4.66784 16.7525 4.199C16.7152 3.74231 16.6476 3.50877 16.5646 3.34585C16.3649 2.95385 16.0461 2.63514 15.6542 2.43541C15.4913 2.3524 15.2577 2.28476 14.801 2.24745C14.3322 2.20915 13.7256 2.20833 12.8333 2.20833H6.16667C5.2744 2.20833 4.66784 2.20915 4.199 2.24745ZM4.29167 9.5C4.29167 8.92469 4.75804 8.45833 5.33333 8.45833H13.6667C14.242 8.45833 14.7083 8.92469 14.7083 9.5C14.7083 10.0753 14.242 10.5417 13.6667 10.5417H5.33333C4.75804 10.5417 4.29167 10.0753 4.29167 9.5Z" fill="#2D334B"/>
</svg>
