<svg width="30" height="30" viewBox="0 0 30 30" fill="none" xmlns="http://www.w3.org/2000/svg">
<path d="M29.0799 17.2334V18.0334C29.0949 18.4113 29.0178 18.7872 28.8552 19.1286C28.6926 19.4701 28.4494 19.7669 28.1466 19.9934C27.7678 20.2701 27.3089 20.4152 26.8399 20.4067C26.61 20.4076 26.3811 20.3762 26.1599 20.3134C26.1009 20.3064 26.0427 20.293 25.9866 20.2734L22.9466 19.2601C22.9199 19.2467 22.9066 19.2334 22.8799 19.2334V25.3801C22.8536 26.2702 22.5099 27.1215 21.911 27.7805C21.3121 28.4395 20.4973 28.8627 19.6138 28.9738C18.7302 29.0848 17.8361 28.8764 17.0927 28.3861C16.3494 27.8958 15.8057 27.156 15.5599 26.3001C15.4746 25.9735 15.4298 25.6376 15.4266 25.3001C15.4266 24.3122 15.8181 23.3646 16.5153 22.6649C17.2126 21.9651 18.1588 21.5702 19.1466 21.5667C19.7733 21.5723 20.3882 21.7375 20.9333 22.0467V15.6667C20.9113 15.2869 20.9853 14.9076 21.1484 14.5639C21.3115 14.2202 21.5586 13.9231 21.8667 13.6999C22.1749 13.4768 22.5342 13.3348 22.9117 13.287C23.2892 13.2393 23.6726 13.2873 24.0266 13.4267L26.2533 14.1601L27.0799 14.4401C27.6548 14.6517 28.1528 15.0312 28.5094 15.5292C28.866 16.0273 29.0648 16.621 29.0799 17.2334ZM18.2946 19.6334C18.4673 19.6116 18.6265 19.5288 18.7436 19.3999C18.8607 19.2711 18.928 19.1047 18.9333 18.9307V15.6667C18.911 14.97 19.0599 14.2785 19.3667 13.6526C19.6736 13.0267 20.1291 12.4855 20.6935 12.0764C21.2579 11.6672 21.9139 11.4026 22.6042 11.3056C23.2945 11.2086 23.998 11.2823 24.6533 11.5201L25.3759 11.7614C25.4762 11.7948 25.583 11.8039 25.6875 11.7879C25.7919 11.7719 25.8911 11.7313 25.9768 11.6694C26.0625 11.6076 26.1323 11.5262 26.1803 11.4321C26.2284 11.338 26.2534 11.2337 26.2533 11.1281V8.33339C26.2533 3.72006 23.4933 0.973389 18.8933 0.973389H8.27992C3.67992 0.973389 0.919922 3.72006 0.919922 8.33339V18.9467C0.919922 23.5601 3.67992 26.3067 8.27992 26.3067H12.7133C12.8132 26.3021 12.9112 26.2777 13.0015 26.2349C13.0919 26.192 13.1729 26.1316 13.2396 26.0571C13.3064 25.9826 13.3577 25.8956 13.3905 25.8011C13.4232 25.7066 13.4369 25.6065 13.4306 25.5067C13.4306 25.4401 13.4306 25.3734 13.4306 25.3081C13.4294 23.9364 13.9192 22.6097 14.8114 21.5679C15.7035 20.526 16.9391 19.8379 18.2946 19.6281V19.6334Z" fill="#2D334B"/>
</svg>
