<svg width="17" height="17" viewBox="0 0 17 17" fill="none" xmlns="http://www.w3.org/2000/svg">
<path d="M8.4987 0.708008C6.95766 0.708008 5.45122 1.16498 4.16988 2.02114C2.88855 2.8773 1.88987 4.09419 1.30014 5.51793C0.710407 6.94167 0.556106 8.50832 0.856749 10.0198C1.15739 11.5312 1.89948 12.9195 2.98916 14.0092C4.07885 15.0989 5.46719 15.841 6.97862 16.1416C8.49006 16.4423 10.0567 16.288 11.4804 15.6982C12.9042 15.1085 14.1211 14.1098 14.9772 12.8285C15.8334 11.5472 16.2904 10.0407 16.2904 8.49967C16.2879 6.43394 15.4662 4.45352 14.0056 2.99283C12.5449 1.53213 10.5644 0.710445 8.4987 0.708008ZM12.0404 9.20801H9.20704V12.0413C9.20704 12.2292 9.13241 12.4094 8.99957 12.5422C8.86673 12.675 8.68656 12.7497 8.4987 12.7497C8.31084 12.7497 8.13067 12.675 7.99783 12.5422C7.865 12.4094 7.79037 12.2292 7.79037 12.0413V9.20801H4.95704C4.76917 9.20801 4.58901 9.13338 4.45617 9.00054C4.32333 8.8677 4.2487 8.68754 4.2487 8.49967C4.2487 8.31181 4.32333 8.13165 4.45617 7.99881C4.58901 7.86597 4.76917 7.79134 4.95704 7.79134H7.79037V4.95801C7.79037 4.77015 7.865 4.58998 7.99783 4.45714C8.13067 4.3243 8.31084 4.24967 8.4987 4.24967C8.68656 4.24967 8.86673 4.3243 8.99957 4.45714C9.13241 4.58998 9.20704 4.77015 9.20704 4.95801V7.79134H12.0404C12.2282 7.79134 12.4084 7.86597 12.5412 7.99881C12.6741 8.13165 12.7487 8.31181 12.7487 8.49967C12.7487 8.68754 12.6741 8.8677 12.5412 9.00054C12.4084 9.13338 12.2282 9.20801 12.0404 9.20801Z" fill="#2D334B"/>
</svg>
