<svg width="24" height="24" viewBox="0 0 24 24" fill="none" xmlns="http://www.w3.org/2000/svg">
<g clip-path="url(#clip0_550_15677)">
<path d="M2.47615 15.6352C2.4012 15.5054 2.23676 15.4612 2.10992 15.533L0.884509 16.2265C0.75579 16.2993 0.710087 16.4654 0.782274 16.593L4.38443 22.9578C4.45727 23.0865 4.62335 23.1322 4.7509 23.06L5.97612 22.3666C6.10488 22.2937 6.15054 22.1277 6.07835 22.0001C4.88252 19.8871 3.70516 17.7245 2.47615 15.6352ZM2.10199 17.2705C1.86293 17.3055 1.64084 17.14 1.60587 16.9009C1.57095 16.6619 1.73637 16.4397 1.97543 16.4048C2.21449 16.3698 2.43663 16.5353 2.47156 16.7744C2.50648 17.0134 2.34106 17.2355 2.10199 17.2705ZM22.8852 16.1357C20.2437 17.7622 17.6018 19.3879 14.9603 21.0141C14.3168 21.4102 13.6279 21.4984 12.9001 21.3034L7.15179 19.7637C7.05963 19.7397 6.95829 19.75 6.86923 19.8012L5.98291 20.313L3.80838 16.4707L7.07548 14.5791C7.79337 14.1635 8.59212 13.7995 9.42987 14.0712C9.69162 14.1561 9.99963 14.2906 10.3547 14.3958L13.9387 15.4575C14.3762 15.6087 14.6689 16.047 14.5449 16.51C14.4139 16.999 13.9912 17.2039 13.5087 17.1168C12.5655 16.9466 11.6031 16.6116 10.6691 16.3613C10.4693 16.308 10.264 16.4267 10.2106 16.6265C10.1572 16.8263 10.2759 17.0316 10.4757 17.085C11.5537 17.3737 12.84 17.8547 13.9448 17.9459C14.7246 18.0706 15.4513 17.961 16.1376 17.5614L20.5046 15.0179C21.1232 14.6576 22.1322 14.1878 22.7875 14.5197C23.0633 14.6594 23.2129 14.9322 23.244 15.233C23.2817 15.5977 23.1507 15.9723 22.8852 16.1357ZM10.4343 6.46819C10.2878 6.32175 10.2878 6.08433 10.4343 5.93794L13.6861 2.68603C13.8152 2.55698 14.0149 2.5417 14.1607 2.64009L16.7129 4.11366L18.8258 2.00077C18.6348 2.03728 18.4451 1.92042 18.3941 1.7295C18.3407 1.52967 18.4594 1.32441 18.6592 1.27102L19.9817 0.916687C20.264 0.841266 20.5163 1.10503 20.4389 1.37977L20.0858 2.69766C20.0324 2.89748 19.8272 3.01617 19.6273 2.96278C19.4365 2.91178 19.3196 2.72212 19.3561 2.53106L17.0404 4.84678L17.0398 4.84622C16.9228 4.96331 16.7377 4.99223 16.5877 4.90537L14.0135 3.41916L10.9645 6.46823C10.8181 6.61462 10.5807 6.61462 10.4343 6.46819ZM9.3731 11.9685H10.3829V9.1627C10.3829 9.08526 10.4461 9.02208 10.5235 9.02208H11.9736C12.051 9.02208 12.1142 9.08526 12.1142 9.1627V11.9685H13.6017V6.24173C13.6017 6.1643 13.6648 6.10111 13.7423 6.10111H15.1924C15.2698 6.10111 15.333 6.1643 15.333 6.24173V11.9685H16.8205V7.42251C16.8205 7.34508 16.8837 7.28189 16.9611 7.28189H18.4112C18.4887 7.28189 18.5518 7.34508 18.5518 7.42251V11.9685H20.0393V3.97069C20.0393 3.89325 20.1025 3.83006 20.1799 3.83006H21.63C21.7075 3.83006 21.7707 3.89325 21.7707 3.97069V11.9685H22.7804C22.9875 11.9685 23.1554 12.1365 23.1554 12.3435C23.1554 12.5506 22.9875 12.7185 22.7804 12.7185H9.3731C9.16601 12.7185 8.9981 12.5506 8.9981 12.3435C8.9981 12.1365 9.16601 11.9685 9.3731 11.9685ZM5.82054 7.61147C7.67323 7.61147 9.1751 6.10959 9.1751 4.25691C9.1751 2.40422 7.67318 0.902344 5.82054 0.902344C3.96785 0.902344 2.46598 2.40422 2.46598 4.25691C2.46598 6.10959 3.96785 7.61147 5.82054 7.61147ZM5.76359 4.61395C5.13209 4.51031 4.51774 4.20745 4.48277 3.48544C4.4532 2.87611 4.88065 2.42616 5.44559 2.28272V2.13412C5.44559 1.92703 5.61349 1.75912 5.82059 1.75912C6.02768 1.75912 6.19559 1.92703 6.19559 2.13412V2.27742L6.20693 2.28023C6.60359 2.38078 6.96443 2.64155 7.15385 3.09277C7.23391 3.28369 7.1441 3.50339 6.95318 3.5835C6.76226 3.66356 6.54256 3.57375 6.46245 3.38283C6.32848 3.06375 5.99299 2.93241 5.66735 2.99794C5.44024 3.04369 5.21726 3.19256 5.22977 3.45023C5.24431 3.74981 5.64734 3.83686 5.88363 3.87562C6.57851 3.98972 7.25084 4.30739 7.27001 5.11041C7.28524 5.75133 6.77243 6.1312 6.19554 6.24455V6.37964C6.19554 6.58673 6.02763 6.75464 5.82054 6.75464C5.61345 6.75464 5.44554 6.58673 5.44554 6.37964V6.23705C4.92926 6.12141 4.51235 5.77514 4.3811 5.24859C4.33174 5.04797 4.45441 4.84528 4.65504 4.79597C4.85566 4.74666 5.05835 4.86928 5.10767 5.06991C5.19059 5.40267 5.54126 5.53917 5.8556 5.53167C6.09302 5.52605 6.52999 5.42559 6.52296 5.12803C6.51485 4.76011 6.0514 4.6612 5.76359 4.61395Z" fill="white"/>
</g>
<defs>
<clipPath id="clip0_550_15677">
<rect width="24" height="24" fill="white"/>
</clipPath>
</defs>
</svg>
