<svg width="26" height="24" viewBox="0 0 26 24" fill="none" xmlns="http://www.w3.org/2000/svg">
<path d="M16.8942 14H16.0626L15.7679 13.73C16.7995 12.59 17.4205 11.11 17.4205 9.5C17.4205 5.91 14.3574 3 10.5784 3C6.79949 3 3.73633 5.91 3.73633 9.5C3.73633 13.09 6.79949 16 10.5784 16C12.2732 16 13.8311 15.41 15.0311 14.43L15.3153 14.71V15.5L20.5784 20.49L22.1469 19L16.8942 14ZM10.5784 14C7.95738 14 5.84159 11.99 5.84159 9.5C5.84159 7.01 7.95738 5 10.5784 5C13.1995 5 15.3153 7.01 15.3153 9.5C15.3153 11.99 13.1995 14 10.5784 14Z" fill="#ADADAD"/>
</svg>
