<svg width="24" height="24" viewBox="0 0 24 24" fill="none" xmlns="http://www.w3.org/2000/svg">
<path d="M18.9766 8.93359H4.97656C3.87656 8.93359 2.97656 9.83359 2.97656 10.9336V18.9336C2.97656 20.0336 3.87656 20.9336 4.97656 20.9336H18.9766C20.0766 20.9336 20.9766 20.0336 20.9766 18.9336V10.9336C20.9766 9.83359 20.0766 8.93359 18.9766 8.93359ZM13.9766 15.9336H12.9766V16.9336C12.9766 17.4836 12.5266 17.9336 11.9766 17.9336C11.4266 17.9336 10.9766 17.4836 10.9766 16.9336V15.9336H9.97656C9.42656 15.9336 8.97656 15.4836 8.97656 14.9336C8.97656 14.3836 9.42656 13.9336 9.97656 13.9336H10.9766V12.9336C10.9766 12.3836 11.4266 11.9336 11.9766 11.9336C12.5266 11.9336 12.9766 12.3836 12.9766 12.9336V13.9336H13.9766C14.5266 13.9336 14.9766 14.3836 14.9766 14.9336C14.9766 15.4836 14.5266 15.9336 13.9766 15.9336ZM4.97656 5.93359C4.97656 5.38159 5.42356 4.93359 5.97656 4.93359H17.9766C18.5296 4.93359 18.9766 5.38159 18.9766 5.93359C18.9766 6.48559 18.5296 6.93359 17.9766 6.93359H5.97656C5.42356 6.93359 4.97656 6.48559 4.97656 5.93359ZM6.97656 2.93359C6.97656 2.38159 7.42356 1.93359 7.97656 1.93359H15.9766C16.5296 1.93359 16.9766 2.38159 16.9766 2.93359C16.9766 3.48559 16.5296 3.93359 15.9766 3.93359H7.97656C7.42356 3.93359 6.97656 3.48559 6.97656 2.93359Z" fill="white"/>
</svg>
