<svg width="15" height="16" viewBox="0 0 15 16" fill="none" xmlns="http://www.w3.org/2000/svg">
<path d="M12.4039 2.71145H10.4581V2.43365C10.4581 1.78205 9.92803 1.25195 9.27643 1.25195H5.72593C5.07433 1.25195 4.54423 1.78205 4.54423 2.43365V2.71145H2.59843C2.08873 2.71145 1.67383 3.1262 1.67383 3.6359V4.0742C1.67383 4.55135 2.03728 4.9451 2.50168 4.9937L3.45373 13.3481C3.54448 14.146 4.21873 14.7476 5.02183 14.7476H9.98038C10.7835 14.7476 11.4577 14.146 11.5485 13.3481L12.5005 4.9937C12.9651 4.94525 13.3284 4.55135 13.3284 4.0742V3.6359C13.3284 3.1262 12.9136 2.71145 12.4039 2.71145ZM5.14438 2.43365C5.14438 2.1128 5.40523 1.85195 5.72608 1.85195H9.27658C9.59743 1.85195 9.85828 2.1128 9.85828 2.43365V2.71145H5.14438V2.43365ZM10.9525 13.2802C10.8963 13.7747 10.4784 14.1476 9.98068 14.1476H5.02213C4.52443 14.1476 4.10653 13.7747 4.05028 13.2802L3.10663 4.9988H11.8963L10.9525 13.2802ZM12.7287 4.0742C12.7287 4.25315 12.583 4.3988 12.4041 4.3988H2.59843C2.41948 4.3988 2.27383 4.25315 2.27383 4.0742V3.6359C2.27383 3.4571 2.41948 3.31145 2.59843 3.31145H12.4038C12.5827 3.31145 12.7284 3.4571 12.7284 3.6359V4.0742H12.7287Z" fill="white"/>
<path d="M7.50117 12.5239C7.66677 12.5239 7.80117 12.3895 7.80117 12.2239V6.92256C7.80117 6.75696 7.66677 6.62256 7.50117 6.62256C7.33557 6.62256 7.20117 6.75696 7.20117 6.92256V12.2239C7.20117 12.3895 7.33557 12.5239 7.50117 12.5239Z" fill="white"/>
<path d="M9.29442 12.5099C9.30432 12.5109 9.31422 12.5114 9.32382 12.5114C9.47652 12.5114 9.60702 12.3956 9.62202 12.2405L10.1359 6.96409C10.152 6.79909 10.0314 6.65239 9.86652 6.63634C9.69927 6.61939 9.55482 6.74089 9.53877 6.90574L9.02487 12.1821C9.00882 12.3471 9.12957 12.4938 9.29442 12.5099Z" fill="white"/>
<path d="M5.67892 12.5114C5.68852 12.5114 5.69842 12.5109 5.70832 12.5099C5.87317 12.494 5.99377 12.3471 5.97772 12.1821L5.46382 6.90572C5.44777 6.74087 5.30332 6.61952 5.13607 6.63632C4.97122 6.65222 4.85062 6.79907 4.86667 6.96407L5.38057 12.2405C5.39572 12.3954 5.52637 12.5114 5.67892 12.5114Z" fill="white"/>
</svg>
