<svg width="40" height="40" viewBox="0 0 40 40" fill="none" xmlns="http://www.w3.org/2000/svg">
<g clip-path="url(#clip0_441_12647)">
<path d="M33.3292 14.7033C31.4805 7.33865 24.0117 2.86711 16.647 4.71581C10.8917 6.16057 6.71271 11.1348 6.28214 17.053C2.19563 17.7269 -0.570865 21.5859 0.103046 25.6724C0.702121 29.3054 3.85006 31.966 7.532 31.9513H13.7813V29.4516H7.532C4.77089 29.4516 2.53255 27.2133 2.53255 24.4522C2.53255 21.6911 4.77089 19.4527 7.532 19.4527C8.22231 19.4527 8.78186 18.8932 8.78186 18.2028C8.77561 11.9903 13.8069 6.949 20.0194 6.94283C25.3972 6.93744 30.0266 10.7394 31.0669 16.0156C31.1696 16.5424 31.5972 16.9449 32.1293 17.0155C35.5463 17.5021 37.9217 20.6665 37.4352 24.0834C36.9983 27.1516 34.3786 29.4362 31.2794 29.4516H26.2799V31.9513H31.2794C36.1114 31.9367 40.0166 28.0078 40.0019 23.1758C39.9897 19.1536 37.2366 15.6578 33.3292 14.7033Z" fill="white"/>
<path d="M19.144 16.9816L14.1445 21.9811L15.9068 23.7434L18.7815 20.8812V32.8674H21.2812V20.8812L24.1434 23.7434L25.9057 21.9811L20.9063 16.9816C20.4188 16.497 19.6315 16.497 19.144 16.9816Z" fill="white"/>
</g>
<defs>
<clipPath id="clip0_441_12647">
<rect width="40" height="40" fill="white" transform="translate(-0.00195312)"/>
</clipPath>
</defs>
</svg>
