<svg width="20" height="20" viewBox="0 0 20 20" fill="none" xmlns="http://www.w3.org/2000/svg">
<path d="M5.20964 6.6665C5.20964 7.11975 5.34404 7.56282 5.59585 7.93969C5.84766 8.31655 6.20557 8.61028 6.62432 8.78373C7.04307 8.95718 7.50384 9.00256 7.94838 8.91414C8.39292 8.82571 8.80126 8.60745 9.12176 8.28696C9.44225 7.96646 9.66051 7.55813 9.74894 7.11359C9.83736 6.66905 9.79198 6.20827 9.61853 5.78952C9.44508 5.37077 9.15135 5.01286 8.77448 4.76105C8.39762 4.50924 7.95455 4.37484 7.5013 4.37484C6.89365 4.37528 6.31101 4.61686 5.88134 5.04654C5.45166 5.47621 5.21008 6.05885 5.20964 6.6665ZM8.54297 6.6665C8.54297 6.87253 8.48188 7.07392 8.36742 7.24522C8.25296 7.41652 8.09027 7.55004 7.89993 7.62888C7.70959 7.70772 7.50015 7.72835 7.29808 7.68816C7.09602 7.64796 6.91041 7.54875 6.76473 7.40307C6.61905 7.25739 6.51984 7.07179 6.47965 6.86972C6.43946 6.66766 6.46009 6.45822 6.53893 6.26788C6.61777 6.07754 6.75128 5.91485 6.92258 5.80039C7.09388 5.68593 7.29528 5.62484 7.5013 5.62484C7.77743 5.62528 8.04213 5.73517 8.23738 5.93042C8.43264 6.12568 8.54253 6.39037 8.54297 6.6665ZM18.3346 7.70817C18.1689 7.70817 18.0099 7.77402 17.8927 7.89123C17.7755 8.00844 17.7096 8.16741 17.7096 8.33317V10.2223L17.3838 9.94317C16.9386 9.57431 16.3786 9.37245 15.8005 9.37245C15.2223 9.37245 14.6623 9.57431 14.2171 9.94317L10.7513 12.9165C10.5328 13.0905 10.2618 13.1852 9.98255 13.1852C9.70329 13.1852 9.43228 13.0905 9.2138 12.9165L8.93714 12.679C8.52661 12.3392 8.01785 12.1402 7.48574 12.1112C6.95362 12.0823 6.42627 12.2249 5.9813 12.5182L2.54214 14.8265C2.36175 14.0645 2.27804 13.2828 2.29297 12.4998V7.49984C2.29297 3.65484 3.6563 2.2915 7.5013 2.2915H10.8346C11.0004 2.2915 11.1594 2.22566 11.2766 2.10845C11.3938 1.99124 11.4596 1.83226 11.4596 1.6665C11.4596 1.50074 11.3938 1.34177 11.2766 1.22456C11.1594 1.10735 11.0004 1.0415 10.8346 1.0415H7.5013C2.97464 1.0415 1.04297 2.97234 1.04297 7.49984V12.4998C1.04297 17.0273 2.97464 18.9582 7.5013 18.9582H12.5013C17.028 18.9582 18.9596 17.0273 18.9596 12.4998V8.33317C18.9596 8.16741 18.8938 8.00844 18.7766 7.89123C18.6594 7.77402 18.5004 7.70817 18.3346 7.70817ZM17.7096 12.4998C17.7096 16.3448 16.3463 17.7082 12.5013 17.7082H7.5013C5.2038 17.7082 3.79797 17.2157 3.0338 16.004L6.67714 13.559C6.89561 13.4192 7.15216 13.3509 7.41122 13.3634C7.67027 13.376 7.91902 13.4688 8.12297 13.629L8.39964 13.8673C8.84447 14.237 9.40461 14.4393 9.98297 14.4393C10.5613 14.4393 11.1215 14.237 11.5663 13.8673L15.0346 10.8915C15.2533 10.7183 15.524 10.6241 15.803 10.6241C16.0819 10.6241 16.3526 10.7183 16.5713 10.8915L17.7113 11.8698L17.7096 12.4998ZM12.5013 4.1665C12.5013 4.00074 12.5672 3.84177 12.6844 3.72456C12.8016 3.60735 12.9605 3.5415 13.1263 3.5415H14.793V1.87484C14.793 1.70908 14.8588 1.55011 14.976 1.4329C15.0932 1.31569 15.2522 1.24984 15.418 1.24984C15.5837 1.24984 15.7427 1.31569 15.8599 1.4329C15.9771 1.55011 16.043 1.70908 16.043 1.87484V3.5415H17.7096C17.8754 3.5415 18.0344 3.60735 18.1516 3.72456C18.2688 3.84177 18.3346 4.00074 18.3346 4.1665C18.3346 4.33226 18.2688 4.49124 18.1516 4.60845C18.0344 4.72566 17.8754 4.7915 17.7096 4.7915H16.043V6.45817C16.043 6.62393 15.9771 6.7829 15.8599 6.90011C15.7427 7.01732 15.5837 7.08317 15.418 7.08317C15.2522 7.08317 15.0932 7.01732 14.976 6.90011C14.8588 6.7829 14.793 6.62393 14.793 6.45817V4.7915H13.1263C12.9605 4.7915 12.8016 4.72566 12.6844 4.60845C12.5672 4.49124 12.5013 4.33226 12.5013 4.1665Z" fill="#2D334B"/>
</svg>
