<svg width="50" height="50" viewBox="0 0 50 50" fill="none" xmlns="http://www.w3.org/2000/svg">
<path d="M39.5872 30.4688C34.5615 30.4688 30.4727 34.5571 30.4727 39.5833C30.4727 44.6096 34.5615 48.6979 39.5872 48.6979C44.613 48.6979 48.7018 44.6096 48.7018 39.5833C48.7018 34.5571 44.613 30.4688 39.5872 30.4688ZM43.2646 39.094C42.9677 39.3909 42.4636 39.3977 42.1599 39.094L40.3685 37.3027V43.75C40.3685 44.1813 40.0186 44.5313 39.5872 44.5313C39.1559 44.5313 38.806 44.1813 38.806 43.75V37.3027L37.0146 39.094C36.7094 39.3992 36.215 39.3992 35.9099 39.094C35.6047 38.7889 35.6047 38.2945 35.9099 37.9893C35.9099 37.9893 39.0307 34.8685 39.0349 34.8643C39.3289 34.5703 39.8452 34.5699 40.1396 34.8643L43.2646 37.9893C43.5698 38.2945 43.5698 38.7889 43.2646 39.094Z" fill="#2D334B"/>
<path d="M12.2422 28.125C12.2422 29.4169 13.2935 30.4688 14.5859 30.4688C15.8784 30.4688 16.9297 29.4169 16.9297 28.125V25.7812H14.5859C13.2935 25.7812 12.2422 26.8331 12.2422 28.125Z" fill="#2D334B"/>
<path d="M28.9339 39.0816C26.5815 39.2354 24.2197 39.3227 21.8706 39.3227C18.0396 39.3227 14.169 39.1162 10.3675 38.7082C7.5833 38.4081 5.34585 36.1702 5.04627 33.386C4.22433 25.7464 4.22382 18.001 5.04475 10.3655C5.34433 7.58132 7.58178 5.34336 10.3655 5.04327C17.9669 4.22744 25.7763 4.22642 33.3869 5.04225C36.1706 5.34234 38.4081 7.57928 38.7072 10.3635C39.3702 16.5183 39.4895 22.7451 39.0841 28.9314C39.2515 28.9236 39.4163 28.906 39.5856 28.906C40.4872 28.906 41.3581 29.0305 42.1949 29.2419C42.6203 22.8417 42.5 16.3975 41.8144 10.0288C41.3591 5.79503 37.9549 2.3913 33.7206 1.93557C25.8643 1.09227 17.8937 1.09227 10.0313 1.93659C5.797 2.39232 2.39276 5.79706 1.93754 10.0319C1.09323 17.8891 1.09374 25.8593 1.93908 33.7206C2.3943 37.9555 5.79854 41.3592 10.0334 41.8149C13.9599 42.2361 17.9145 42.4477 21.8701 42.4477C24.3305 42.4477 26.7903 42.3561 29.2445 42.1929C29.033 41.356 28.9085 40.4848 28.9085 39.5831C28.9085 39.4138 28.9261 39.249 28.9339 39.0816Z" fill="#2D334B"/>
<path d="M24.7422 27.083C24.7422 28.3749 25.7935 29.4268 27.0859 29.4268C28.3784 29.4268 29.4297 28.3749 29.4297 27.083V24.7393H27.0859C25.7935 24.7393 24.7422 25.7911 24.7422 27.083Z" fill="#2D334B"/>
<path d="M28.5203 12.5319L19.5806 14.0222C18.9494 14.127 18.4922 14.6661 18.4922 15.306V16.785L29.4297 14.9621C29.4297 14.9621 29.4297 13.3177 29.4297 13.3021C29.4297 12.8346 28.981 12.4484 28.5203 12.5319Z" fill="#2D334B"/>
<path d="M33.2204 6.59652C29.4738 6.19368 25.6591 5.99023 21.8831 5.99023C18.1004 5.99023 14.2817 6.1947 10.5326 6.59754C8.47467 6.81828 6.82011 8.47335 6.59835 10.5323C5.78963 18.0569 5.79014 25.6904 6.59987 33.219C6.82163 35.278 8.47619 36.933 10.5346 37.1538C16.6703 37.8138 22.9363 37.9224 29.1155 37.5027C29.9528 33.281 33.2849 29.9495 37.5065 29.1125C37.9286 22.9225 37.8174 16.6906 37.1541 10.5302C36.9328 8.47233 35.2783 6.81726 33.2204 6.59652ZM30.9921 27.083C30.9921 29.2365 29.2398 30.9892 27.0858 30.9892C24.9318 30.9892 23.1796 29.2365 23.1796 27.083C23.1796 24.9294 24.9318 23.1767 27.0858 23.1767H29.4296V16.5473L18.4921 18.3703V28.1246C18.4921 30.2782 16.7398 32.0309 14.5858 32.0309C12.4318 32.0309 10.6796 30.2782 10.6796 28.1246C10.6796 25.9711 12.4318 24.2184 14.5858 24.2184H16.9296V15.3062C16.9296 13.8994 17.9366 12.7112 19.3237 12.4803C19.3237 12.4803 28.2518 10.9919 28.2628 10.99C29.672 10.7551 30.9921 11.8766 30.9921 13.3022V27.083Z" fill="#2D334B"/>
</svg>
