<svg width="30" height="30" viewBox="0 0 30 30" fill="none" xmlns="http://www.w3.org/2000/svg">
<path d="M29.1211 2.46094H0.878906C0.393448 2.46094 0 2.85439 0 3.33984V26.6277C0 27.1131 0.393448 27.5066 0.878906 27.5066H29.1211C29.6066 27.5066 30 27.1131 30 26.6277V3.33984C30 2.85439 29.6066 2.46094 29.1211 2.46094ZM11.2818 17.9343V12.0332C11.2818 11.6112 11.5226 11.2264 11.9101 11.0291C12.3038 10.8289 12.7828 10.8556 13.1472 11.0941L18.1762 14.0298C18.2018 14.0446 18.2265 14.0609 18.2506 14.0783C18.5479 14.2948 18.7184 14.6249 18.7184 14.9837C18.7184 15.3426 18.5479 15.6727 18.2506 15.8892C18.2265 15.9066 18.2018 15.9229 18.1762 15.9377L13.1472 18.8734C12.9458 19.005 12.7098 19.072 12.4722 19.072C12.2797 19.072 12.0863 19.0279 11.9101 18.9381C11.5224 18.7411 11.2818 18.3563 11.2818 17.9343ZM20.6385 5.74905V4.21875H23.5876V5.74905H20.6385ZM18.8807 5.74905H15.9313V4.21875H18.8807V5.74905ZM14.1735 5.74905H11.2244V4.21875H14.1735V5.74905ZM9.46655 5.74905H6.51741V4.21875H9.46655V5.74905ZM9.46655 24.2184V25.7487H6.51741V24.2184H9.46655ZM11.2244 24.2184H14.1735V25.7487H11.2244V24.2184ZM15.9313 24.2184H18.8807V25.7487H15.9313V24.2184ZM20.6385 24.2184H23.5876V25.7487H20.6385V24.2184ZM28.2422 5.74905H25.3455V4.21875H28.2422V5.74905ZM4.7596 4.21875V5.74905H1.75781V4.21875H4.7596ZM1.75781 24.2184H4.7596V25.7487H1.75781V24.2184ZM25.3455 25.7487V24.2184H28.2422V25.7487H25.3455Z" fill="#2D334B"/>
</svg>
