<svg width="26" height="26" viewBox="0 0 26 26" fill="none" xmlns="http://www.w3.org/2000/svg">
<path d="M12.9023 15.1484C14.2695 15.1484 15.3828 14.0352 15.3828 12.668C15.3828 11.3008 14.2695 10.1875 12.9023 10.1875C11.5352 10.1875 10.4219 11.3008 10.4219 12.668C10.4219 14.0352 11.5352 15.1484 12.9023 15.1484ZM12.9023 11.3594C13.625 11.3594 14.2109 11.9453 14.2109 12.668C14.2109 13.3906 13.625 13.9766 12.9023 13.9766C12.1797 13.9766 11.5938 13.3906 11.5938 12.668C11.5938 11.9453 12.1797 11.3594 12.9023 11.3594Z" fill="#4A5069"/>
<path d="M19.3671 17.9609C19.3671 17.8828 19.3475 17.8047 19.328 17.7461C19.2304 17.5312 19.035 17.375 18.7811 17.375L7.10145 17.2969C6.86708 17.2969 6.65224 17.4336 6.55458 17.6484C6.45692 17.8633 6.51552 18.1172 6.67177 18.293L12.5507 24.1914C12.785 24.4258 13.1561 24.4258 13.371 24.1914L19.1718 18.3906C19.3085 18.2734 19.3671 18.1172 19.3671 17.9609ZM17.3749 18.5469L12.9608 22.9414L8.5077 18.4883L17.3749 18.5469Z" fill="#4A5069"/>
<path d="M6.67194 7.53131C6.49616 7.70709 6.4571 7.961 6.55476 8.17584C6.65241 8.39069 6.86726 8.54694 7.10163 8.5274L18.7813 8.44928C19.0157 8.44928 19.2305 8.31256 19.3282 8.07819C19.3673 8.00006 19.3673 7.92194 19.3673 7.86334C19.3673 7.70709 19.3087 7.57037 19.1915 7.45319L13.3907 1.65241C13.1563 1.41803 12.7852 1.41803 12.5704 1.65241L6.67194 7.53131ZM17.3751 7.29694L8.50788 7.336L12.961 2.88287L17.3751 7.29694Z" fill="#4A5069"/>
</svg>
