<svg width="40" height="38" viewBox="0 0 40 38" fill="none" xmlns="http://www.w3.org/2000/svg">
<path d="M37.3333 0.333313H2.66667C1.95967 0.334121 1.28186 0.615332 0.781941 1.11525C0.282019 1.61518 0.000808123 2.29298 0 2.99998V35C0.000808123 35.707 0.282019 36.3848 0.781941 36.8847C1.28186 37.3846 1.95967 37.6658 2.66667 37.6666H37.3333C38.0403 37.6658 38.7181 37.3846 39.2181 36.8847C39.718 36.3848 39.9992 35.707 40 35V2.99998C39.9992 2.29298 39.718 1.61518 39.2181 1.11525C38.7181 0.615332 38.0403 0.334121 37.3333 0.333313ZM29.3333 20.3333H13.8854L19.6094 26.0573C19.7345 26.1808 19.8339 26.3279 19.9019 26.4899C19.97 26.652 20.0053 26.826 20.0058 27.0017C20.0064 27.1775 19.9722 27.3517 19.9051 27.5142C19.8381 27.6767 19.7396 27.8243 19.6153 27.9486C19.491 28.0729 19.3434 28.1714 19.1809 28.2384C19.0184 28.3054 18.8442 28.3396 18.6684 28.3391C18.4926 28.3385 18.3187 28.3032 18.1566 28.2352C17.9945 28.1671 17.8475 28.0677 17.724 27.9426L9.72493 19.9436C9.47547 19.6929 9.33543 19.3536 9.33543 19C9.33543 18.6463 9.47547 18.3071 9.72493 18.0564L17.724 10.0573C17.9748 9.81103 18.3127 9.67375 18.6642 9.67534C19.0157 9.67694 19.3523 9.81727 19.6008 10.0658C19.8494 10.3144 19.9897 10.651 19.9913 11.0025C19.9929 11.354 19.8556 11.6919 19.6093 11.9426L13.8854 17.6666H29.3333C29.687 17.6666 30.0261 17.8071 30.2761 18.0572C30.5262 18.3072 30.6667 18.6464 30.6667 19C30.6667 19.3536 30.5262 19.6927 30.2761 19.9428C30.0261 20.1928 29.687 20.3333 29.3333 20.3333Z" fill="black"/>
</svg>
