<svg width="137" height="118" viewBox="0 0 137 118" fill="none" xmlns="http://www.w3.org/2000/svg">
<rect width="137" height="118" rx="4" fill="white"/>
<path d="M53.7775 78.298C53.1448 78.8787 52.3258 79.169 51.3205 79.169C50.3151 79.169 49.4918 78.8787 48.8505 78.298C48.2178 77.7087 47.9015 76.9243 47.9015 75.945V69.9H49.1105V75.893C49.1105 76.5343 49.3011 77.0457 49.6825 77.427C50.0638 77.7997 50.6098 77.986 51.3205 77.986C52.0311 77.986 52.5771 77.7997 52.9585 77.427C53.3398 77.0457 53.5305 76.5343 53.5305 75.893V69.9H54.7265V75.945C54.7265 76.9243 54.4101 77.7087 53.7775 78.298ZM60.0461 72.331C60.9561 72.331 61.7318 72.6647 62.3731 73.332C63.0144 73.9907 63.3351 74.7967 63.3351 75.75C63.3351 76.7033 63.0144 77.5137 62.3731 78.181C61.7318 78.8397 60.9561 79.169 60.0461 79.169C58.9714 79.169 58.1524 78.74 57.5891 77.882V81.6H56.4581V72.5H57.5891V73.618C58.1524 72.76 58.9714 72.331 60.0461 72.331ZM59.9031 78.077C60.5531 78.077 61.0991 77.856 61.5411 77.414C61.9831 76.9633 62.2041 76.4087 62.2041 75.75C62.2041 75.0913 61.9831 74.541 61.5411 74.099C61.0991 73.6483 60.5531 73.423 59.9031 73.423C59.2444 73.423 58.6941 73.6483 58.2521 74.099C57.8101 74.541 57.5891 75.0913 57.5891 75.75C57.5891 76.4087 57.8101 76.9633 58.2521 77.414C58.6941 77.856 59.2444 78.077 59.9031 78.077ZM64.6847 79V69.51H65.8157V79H64.6847ZM73.0271 78.181C72.3598 78.8397 71.5494 79.169 70.5961 79.169C69.6428 79.169 68.8324 78.8397 68.1651 78.181C67.5064 77.5223 67.1771 76.712 67.1771 75.75C67.1771 74.788 67.5064 73.9777 68.1651 73.319C68.8324 72.6603 69.6428 72.331 70.5961 72.331C71.5494 72.331 72.3598 72.6603 73.0271 73.319C73.6944 73.9777 74.0281 74.788 74.0281 75.75C74.0281 76.712 73.6944 77.5223 73.0271 78.181ZM70.5961 78.064C71.2461 78.064 71.7921 77.843 72.2341 77.401C72.6761 76.959 72.8971 76.4087 72.8971 75.75C72.8971 75.0913 72.6761 74.541 72.2341 74.099C71.7921 73.657 71.2461 73.436 70.5961 73.436C69.9548 73.436 69.4131 73.657 68.9711 74.099C68.5291 74.541 68.3081 75.0913 68.3081 75.75C68.3081 76.4087 68.5291 76.959 68.9711 77.401C69.4131 77.843 69.9548 78.064 70.5961 78.064ZM80.7434 72.5H81.8744V79H80.7434V77.882C80.1801 78.74 79.3611 79.169 78.2864 79.169C77.3764 79.169 76.6008 78.8397 75.9594 78.181C75.3181 77.5137 74.9974 76.7033 74.9974 75.75C74.9974 74.7967 75.3181 73.9907 75.9594 73.332C76.6008 72.6647 77.3764 72.331 78.2864 72.331C79.3611 72.331 80.1801 72.76 80.7434 73.618V72.5ZM78.4294 78.077C79.0881 78.077 79.6384 77.856 80.0804 77.414C80.5224 76.9633 80.7434 76.4087 80.7434 75.75C80.7434 75.0913 80.5224 74.541 80.0804 74.099C79.6384 73.6483 79.0881 73.423 78.4294 73.423C77.7794 73.423 77.2334 73.6483 76.7914 74.099C76.3494 74.541 76.1284 75.0913 76.1284 75.75C76.1284 76.4087 76.3494 76.9633 76.7914 77.414C77.2334 77.856 77.7794 78.077 78.4294 78.077ZM88.97 69.9H90.101V79H88.97V77.882C88.4066 78.74 87.5876 79.169 86.513 79.169C85.603 79.169 84.8273 78.8397 84.186 78.181C83.5446 77.5137 83.224 76.7033 83.224 75.75C83.224 74.7967 83.5446 73.9907 84.186 73.332C84.8273 72.6647 85.603 72.331 86.513 72.331C87.5876 72.331 88.4066 72.76 88.97 73.618V69.9ZM86.656 78.077C87.3146 78.077 87.865 77.856 88.307 77.414C88.749 76.9633 88.97 76.4087 88.97 75.75C88.97 75.0913 88.749 74.541 88.307 74.099C87.865 73.6483 87.3146 73.423 86.656 73.423C86.006 73.423 85.46 73.6483 85.018 74.099C84.576 74.541 84.355 75.0913 84.355 75.75C84.355 76.4087 84.576 76.9633 85.018 77.414C85.46 77.856 86.006 78.077 86.656 78.077Z" fill="#BFBFBF"/>
<path d="M65.136 48.5222C65.4446 48.523 65.7465 48.4324 66.0037 48.2618C66.2609 48.0912 66.4617 47.8483 66.581 47.5636C66.7002 47.279 66.7325 46.9654 66.6737 46.6625C66.6149 46.3596 66.4677 46.0808 66.2507 45.8614C66.0336 45.6421 65.7565 45.4919 65.4542 45.4298C65.1519 45.3678 64.838 45.3967 64.5521 45.5129C64.2662 45.629 64.0212 45.8273 63.8478 46.0826C63.6745 46.3379 63.5806 46.6388 63.5781 46.9474C63.577 47.3625 63.7402 47.7611 64.0322 48.0562C64.3241 48.3513 64.721 48.5188 65.136 48.5222ZM65.136 46.24C65.2788 46.2392 65.4186 46.2808 65.5376 46.3596C65.6567 46.4384 65.7496 46.5508 65.8046 46.6826C65.8596 46.8143 65.8742 46.9594 65.8466 47.0995C65.8189 47.2395 65.7503 47.3682 65.6493 47.4692C65.5484 47.5701 65.4197 47.6388 65.2797 47.6664C65.1396 47.6941 64.9945 47.6794 64.8628 47.6244C64.731 47.5694 64.6186 47.4765 64.5398 47.3574C64.461 47.2384 64.4194 47.0986 64.4202 46.9558C64.4213 46.7663 64.4971 46.5849 64.6311 46.4509C64.7651 46.3169 64.9465 46.2412 65.136 46.24Z" fill="#BFBFBF"/>
<path d="M72.2855 53.0191C72.2472 52.9653 72.1967 52.9212 72.1382 52.8905C72.0797 52.8598 72.0148 52.8433 71.9487 52.8423C71.8909 52.8425 71.8339 52.8545 71.781 52.8777C71.7281 52.9009 71.6806 52.9347 71.6413 52.977L70.2645 54.3286C70.2217 54.368 70.1876 54.4159 70.1643 54.4691C70.141 54.5224 70.1289 54.5799 70.1289 54.6381C70.1289 54.6962 70.141 54.7537 70.1643 54.807C70.1876 54.8603 70.2217 54.9081 70.2645 54.9475C70.3036 54.987 70.3502 55.0183 70.4015 55.0397C70.4528 55.0611 70.5078 55.0721 70.5634 55.0721C70.619 55.0721 70.674 55.0611 70.7253 55.0397C70.7766 55.0183 70.8232 54.987 70.8624 54.9475L71.5276 54.2823V55.7897C71.5276 55.9013 71.572 56.0084 71.6509 56.0874C71.7299 56.1663 71.837 56.2107 71.9487 56.2107C72.0603 56.2107 72.1674 56.1663 72.2464 56.0874C72.3254 56.0084 72.3697 55.9013 72.3697 55.7897V54.2949L72.9971 54.9223C73.076 55.0007 73.1827 55.0447 73.2939 55.0447C73.4052 55.0447 73.5119 55.0007 73.5908 54.9223C73.6302 54.8831 73.6616 54.8366 73.6829 54.7853C73.7043 54.734 73.7153 54.6789 73.7153 54.6233C73.7153 54.5678 73.7043 54.5127 73.6829 54.4614C73.6616 54.4101 73.6302 54.3635 73.5908 54.3244L72.2855 53.0191Z" fill="#BFBFBF"/>
<path d="M69.56 52.139C69.0332 52.6705 68.6984 53.3624 68.6084 54.1053H62.52C62.3394 54.1031 62.167 54.0298 62.0401 53.9013C61.9132 53.7729 61.8421 53.5996 61.8421 53.419V53.3179L64.5158 50.6737C64.7153 50.4798 64.9781 50.3645 65.2558 50.349C65.5336 50.3335 65.8076 50.419 66.0274 50.5895L66.7053 51.2548L66.7558 51.2969C66.8926 51.3952 67.0568 51.4482 67.2253 51.4482C67.3937 51.4482 67.558 51.3952 67.6947 51.2969L69.88 49.1495C70.1438 48.8816 70.4762 48.6916 70.8409 48.6002C71.2056 48.5088 71.5884 48.5197 71.9474 48.6316C72.1733 48.7063 72.3843 48.8203 72.5705 48.9685L72.7979 49.1916V49.4737C72.7979 49.5854 72.8423 49.6925 72.9212 49.7715C73.0002 49.8504 73.1073 49.8948 73.2189 49.8948C73.3306 49.8948 73.4377 49.8504 73.5167 49.7715C73.5956 49.6925 73.64 49.5854 73.64 49.4737V45.5201C73.6395 45.3192 73.5992 45.1204 73.5216 44.9351C73.4439 44.7499 73.3304 44.5818 73.1876 44.4405C73.0448 44.2993 72.8755 44.1876 72.6894 44.112C72.5032 44.0364 72.304 43.9984 72.1032 44.0001H62.52C62.1176 44.0023 61.7322 44.1631 61.4476 44.4477C61.1631 44.7323 61.0022 45.1176 61 45.5201V53.419C61 53.8229 61.1599 54.2104 61.4447 54.4968C61.7295 54.7832 62.1161 54.9452 62.52 54.9474H68.6084C68.7056 55.7025 69.0556 56.4023 69.6015 56.9329C70.1474 57.4635 70.8569 57.7936 71.6144 57.8693C72.3719 57.945 73.1327 57.7618 73.7728 57.3497C74.4128 56.9376 74.8944 56.3209 75.1391 55.6C75.3837 54.8791 75.3769 54.0966 75.1198 53.38C74.8628 52.6635 74.3705 52.0552 73.7234 51.6542C73.0763 51.2533 72.3124 51.0833 71.5564 51.1721C70.8003 51.2609 70.0966 51.6032 69.56 52.1432V52.139ZM62.52 44.8422H72.1032C72.1927 44.8416 72.2815 44.8587 72.3645 44.8925C72.4475 44.9262 72.523 44.976 72.5867 45.039C72.6504 45.1019 72.7012 45.1768 72.7359 45.2593C72.7707 45.3419 72.7889 45.4305 72.7895 45.5201V48.1222C72.604 48.0051 72.4045 47.9117 72.1958 47.8443C71.695 47.6828 71.1596 47.6613 70.6475 47.7823C70.1354 47.9033 69.6661 48.162 69.2905 48.5306L67.2147 50.5727L67.0168 50.379L66.7053 50.0758C66.331 49.7151 65.8314 49.5136 65.3116 49.5136C64.7918 49.5136 64.2922 49.7151 63.9179 50.0758L61.8421 52.1348V45.5201C61.8432 45.3406 61.915 45.1688 62.0419 45.0419C62.1688 44.915 62.3406 44.8433 62.52 44.8422ZM73.7284 56.3074C73.375 56.6605 72.9248 56.9008 72.4349 56.998C71.9449 57.0953 71.4371 57.0451 70.9756 56.8538C70.5142 56.6625 70.1198 56.3387 69.8423 55.9233C69.5648 55.5079 69.4167 55.0196 69.4167 54.5201C69.4167 54.0205 69.5648 53.5322 69.8423 53.1168C70.1198 52.7014 70.5142 52.3776 70.9756 52.1863C71.4371 51.995 71.9449 51.9448 72.4349 52.0421C72.9248 52.1393 73.375 52.3797 73.7284 52.7327C73.9633 52.9673 74.1496 53.2459 74.2768 53.5526C74.4039 53.8593 74.4694 54.1881 74.4694 54.5201C74.4694 54.852 74.4039 55.1808 74.2768 55.4875C74.1496 55.7942 73.9633 56.0728 73.7284 56.3074Z" fill="#BFBFBF"/>
</svg>
